<svg width="125" height="107" viewBox="0 0 125 107" fill="none" xmlns="http://www.w3.org/2000/svg">
<g clip-path="url(#clip0_1112_617)">
<path d="M55.7114 69.4321C55.7114 67.0934 53.8051 65.1984 51.4524 65.1984C49.0997 65.1984 47.1934 67.0934 47.1934 69.4321C47.1934 71.7709 49.0997 73.6659 51.4524 73.6659C53.8051 73.6659 55.7114 71.7709 55.7114 69.4321Z" fill="#058B8C"/>
<path d="M71.5871 67.2725C73.8904 63.5682 72.7368 58.7091 69.0103 56.4194C65.2838 54.1297 60.3957 55.2766 58.0924 58.981C55.7891 62.6853 56.9428 67.5445 60.6692 69.8341C64.3957 72.1238 69.2838 70.9769 71.5871 67.2725Z" fill="#058B8C"/>
<path d="M88.408 59.8095C90.9408 55.736 89.6722 50.3927 85.5744 47.8749C81.4766 45.3571 76.1014 46.6182 73.5685 50.6917C71.0357 54.7652 72.3043 60.1085 76.4022 62.6263C80.5 65.1442 85.8752 63.883 88.408 59.8095Z" fill="#058B8C"/>
<path d="M90.7323 67.2598C88.2866 64.6992 83.0697 65.1891 83.0697 65.1891C83.0697 65.1891 76.5324 64.6345 74.812 66.6682C73.0917 68.7019 74.282 72.8432 74.282 72.8432L74.4121 85.5815C74.4121 85.5815 75.6024 85.3227 77.1833 84.7311C78.7735 84.1394 80.2892 83.0209 80.9867 81.1166C81.6841 79.2124 83.0046 77.5022 83.9252 77.7703C84.8459 78.0291 85.906 79.6746 84.7808 81.6435C83.6556 83.6125 82.1026 85.258 82.1026 85.258C79.164 88.4102 71.2969 89.8523 71.2969 92.4221C71.2969 94.992 73.7426 95.5096 76.5789 95.1121C79.4244 94.7146 85.9618 93.2726 90.1278 85.8496C94.2939 78.4266 93.1687 69.8204 90.723 67.2598H90.7323Z" fill="#058B8C"/>
<path d="M62.7234 86.3765C58.6225 84.6109 57.3671 81.1166 58.5574 80.1737C59.7477 79.2308 61.0682 79.6746 61.468 80.5897C61.8679 81.5049 63.4488 84.2689 65.4295 85.3874C67.4102 86.5059 71.7716 86.3765 71.7716 86.3765V73.1113C71.3717 71.0129 69.921 72.0575 69.921 72.0575C69.921 72.0575 68.5354 74.2945 64.8343 74.4239C61.1333 74.5534 58.297 71.4011 58.297 71.4011C58.297 71.4011 58.4272 72.6491 56.9114 74.6828C55.3956 76.7165 53.8055 76.6517 51.4621 76.5223C49.1187 76.3929 49.9742 78.2972 50.6345 80.8578C51.2947 83.4184 53.3405 87.4303 56.9114 90.6473C60.4823 93.8642 66.0339 95.3155 68.0147 95.2323C69.9954 95.1491 69.205 92.4221 69.205 90.5825C69.205 88.743 66.8244 88.1514 62.7327 86.3857L62.7234 86.3765Z" fill="#058B8C"/>
<path d="M35.3095 77.6871C35.3095 77.6871 48.9607 91.2574 71.9205 91.2574C94.8802 91.2574 98.2373 87.1253 104.57 82.2074C110.903 77.2896 112.288 76.698 114.065 76.3097C115.85 75.9122 115.45 78.4728 111.693 83.7882C107.936 89.1035 100.023 107.398 73.3061 107C46.5894 106.603 34.1285 88.1144 30.9575 83.1965C27.7957 78.2787 24.3271 70.2271 35.3095 77.6871V77.6871Z" fill="#058B8C"/>
<path d="M28.9759 55.6677C28.9759 55.6677 46.9792 46.6178 67.1677 45.4346C87.347 44.2513 97.0461 45.4346 106.55 49.5667C116.044 53.6988 116.044 55.2703 120.006 56.056C123.967 56.8417 126.534 56.6014 120.992 50.528C115.449 44.4547 107.536 34.8131 87.7469 32.8442C67.9582 30.8752 55.8878 33.2417 40.0605 39.1394C24.2333 45.0371 15.3246 55.2703 13.7438 57.8309C12.1629 60.3915 13.3439 62.5546 19.4814 59.7998C25.6189 57.0451 28.9759 55.6677 28.9759 55.6677V55.6677Z" fill="#F49600"/>
<path d="M48.1692 4.58506C48.1692 4.58506 56.0829 24.6077 52.5213 29.8121C48.9597 35.0165 45.9932 32.8534 44.6076 25.5783C43.222 18.3032 43.6219 7.58938 43.6219 4.58506C43.6219 1.58074 43.8172 -4.01191 48.1692 4.58506V4.58506Z" fill="#F49600"/>
<path d="M26.4012 13.2837C26.4012 13.2837 31.3484 19.8655 34.5101 28.1297C37.6719 36.3939 35.4958 38.1595 33.5244 38.7511C31.5437 39.3427 29.1724 36.3014 26.4012 26.0128C23.63 15.7334 24.0485 9.78022 26.4012 13.2745V13.2837Z" fill="#F49600"/>
<path d="M3.64613 17.3141C3.64613 17.3141 13.3452 25.1993 18.4877 32.1693C23.6301 39.1486 26.8012 41.1083 22.4491 44.8522C18.0971 48.5868 14.9261 43.2807 9.39304 34.2308C3.84141 25.1808 3.05098 22.8236 1.86068 20.263C0.67038 17.7024 -0.278139 13.9308 3.64613 17.3141Z" fill="#F49600"/>
</g>
<defs>
<clipPath id="clip0_1112_617">
<rect width="125" height="107" fill="white"/>
</clipPath>
</defs>
</svg>
