<?xml version="1.0" encoding="utf-8"?>
<!-- Generator: Adobe Illustrator 26.5.0, SVG Export Plug-In . SVG Version: 6.00 Build 0)  -->
<svg version="1.1" xmlns="http://www.w3.org/2000/svg" xmlns:xlink="http://www.w3.org/1999/xlink" x="0px" y="0px"
	 viewBox="0 0 500 813.8" style="enable-background:new 0 0 500 813.8;" xml:space="preserve">
<style type="text/css">
	.st0{fill:url(#SVGID_1_);}
	.st1{fill:#FFFFFF;stroke:#47CFA7;stroke-width:3;stroke-miterlimit:10;}
	.st2{fill:#47CFA7;}
	.st3{fill:#47CFA7;stroke:#FFFFFF;stroke-width:3;stroke-miterlimit:10;}
	.st4{fill:#FFFFFF;}
	.st5{fill:none;stroke:#47CFA7;stroke-miterlimit:10;}
	.st6{fill:url(#SVGID_00000075873496642476829950000014278739384230551451_);}
	.st7{fill:none;stroke:#000000;stroke-miterlimit:10;}
	.st8{fill:#F5DC2F;}
	.st9{fill:#F39100;}
	.st10{fill:#CD116B;}
	.st11{fill:#FFFFFF;stroke:#E6E6E6;stroke-width:6;stroke-miterlimit:10;}
	.st12{fill:#B5668F;stroke:#513041;stroke-width:6;stroke-miterlimit:10;}
	.st13{fill:none;stroke:#513041;stroke-width:6;stroke-miterlimit:10;}
	.st14{fill:#F2F2F2;}
	.st15{fill:#B5668F;}
</style>
<g id="Слой_1">
	
		<linearGradient id="SVGID_1_" gradientUnits="userSpaceOnUse" x1="-82.5112" y1="1179.4951" x2="598.5269" y2="1179.4951" gradientTransform="matrix(0 1 -1 0 1433.413 115.4536)">
		<stop  offset="4.748603e-02" style="stop-color:#47CFA7"/>
		<stop  offset="1" style="stop-color:#00666B"/>
	</linearGradient>
	<polygon class="st0" points="242.4,714 242.4,32.9 265.4,32.9 265.4,714 	"/>
	<g>
		<circle class="st1" cx="253.9" cy="102.7" r="15.7"/>
		<circle class="st2" cx="253.9" cy="102.7" r="6"/>
		<g>
			<circle class="st2" cx="347.2" cy="102.7" r="51.3"/>
			<polygon class="st2" points="274.8,102.7 316.8,127 316.8,78.5 			"/>
			<circle class="st3" cx="347.2" cy="102.7" r="43"/>
			<g>
				<path class="st4" d="M365.6,98.8c0-2.7-1.9-4.9-4.4-5.6c-0.2-0.1-0.4-0.1-0.6-0.2c0-1.3,0-2.5,0-3.7c-0.1-4.9-3-9.1-7.6-10.8
					c-1-0.4-2.1-0.5-3.1-0.8c-2.4,0-4.9,0-7.3,0c-0.1,0-0.2,0.1-0.3,0.1c-5.8,0.7-10.3,5.6-10.3,11.5c0,2.9,0,5.7,0,8.6
					c0,1.6,0.9,2.9,2.4,3.4c0.3,0.1,0.4,0.3,0.4,0.6c0.5,4,2.6,7,6.2,8.9c0.3,0.1,0.4,0.3,0.3,0.6c-0.1,1.6-1.3,3.1-2.9,3.4
					c-0.7,0.1-1.3,0.1-2,0.2c-3.9,0.5-7.2,3.8-7.6,7.7c-0.2,2-0.1,4-0.1,6c0,0.7,0.3,1.1,0.9,1.1c0.5,0,0.9-0.4,0.9-1.1
					c0-1.6,0-3.2,0-4.8c0-1.9,0.6-3.5,1.9-4.9c1.3-1.4,2.8-2.2,4.7-2.3c0,1.1,0,2.1,0,3.2c0,0.4-0.1,0.6-0.5,0.7
					c-1.4,0.6-2.2,2.1-1.9,3.6c0.3,1.5,1.6,2.6,3.1,2.6c1.6,0,2.9-1,3.3-2.5c0.3-1.6-0.4-3.1-1.9-3.7c-0.3-0.1-0.4-0.3-0.4-0.6
					c0-0.8,0-1.7,0-2.5c0-0.8,0-0.8,0.8-1.1c0.2-0.1,0.5-0.2,0.6-0.3c0.3-0.2,0.6-0.1,0.8,0.1c1.5,1.2,3.1,2.4,4.6,3.5
					c0.4,0.3,0.8,0.3,1.2,0c0.9-0.7,1.8-1.4,2.7-2.1c0.4-0.3,0.5-0.9,0.2-1.3c-0.3-0.4-0.8-0.4-1.3-0.1c-0.4,0.3-0.9,0.7-1.3,1
					c-1,0.7-1,0.7-1.9,0c-1.1-0.9-2.3-1.7-3.3-2.5c0.4-1,0.8-1.9,1.1-2.9c0.8,0.1,1.6,0.3,2.4,0.3c0.8,0,1.7,0,2.5-0.1
					c5-0.6,9.3-5,9.8-10c0.2-2.5,0.1-5,0.1-7.6c0-0.5-0.4-0.8-0.8-0.8c-0.2,0-0.4,0-0.6,0c-1.3,0-2.3-0.6-2.9-1.9
					c-0.2-0.5-0.3-1.2-0.4-1.8c-0.1-0.7-0.7-1-1.3-0.7c-0.1,0.1-0.2,0.1-0.3,0.2c-1.8,1.3-3.7,2.3-5.8,3.1c-1.9,0.8-3.9,1.3-6,1.6
					c-0.1,0-0.1,0-0.2,0c-0.6,0.1-0.9,0.5-0.8,1c0.1,0.5,0.5,0.8,1.1,0.7c4-0.6,7.8-1.9,11.2-4c0.2-0.1,0.3-0.2,0.6-0.3
					c0.7,2.3,2.2,3.6,4.5,3.8c0,2.2,0.2,4.3,0,6.4c-0.4,4.5-4.4,8.3-9,8.6c-5.9,0.4-10.6-4.1-10.6-10c0-1.9,0-3.8,0-5.7
					c0-0.7-0.3-1.1-0.9-1.1c-0.5,0-0.8,0.4-0.8,1c0,1.5,0,2.9,0,4.4c0,0.2,0,0.3,0,0.5c-0.7-0.4-1-1-1-1.7c0-2.9,0-5.8,0-8.6
					c0.1-4.5,3.2-8.5,7.7-9.4c2.8-0.6,5.6-0.3,8.5-0.2c0.4,0,0.8,0.1,1.3,0.2c4.6,1.1,7.8,5,7.8,9.8c0,2.7,0,5.3,0,8
					c0,0.2,0,0.3,0,0.5c0.1,0.4,0.3,0.7,0.8,0.7c0.4,0,0.8-0.2,0.9-0.6c0.1-0.2,0.1-0.4,0.1-0.7c0-0.9,0-1.7,0-2.7
					c0.2,0,0.3,0.1,0.5,0.1c1.7,0.6,2.9,2.2,2.9,4.1c0,3.2,0,6.3,0,9.5c0,0.2,0,0.3,0,0.5c-2.2,0.2-4-0.4-5.4-2
					c-0.4-0.5-0.9-0.5-1.3-0.2c-0.4,0.3-0.4,0.9,0,1.3c0.9,1.1,2.1,1.8,3.5,2.3c1.4,0.4,2.8,0.3,4.2,0.3c0.5,0,0.8-0.4,0.8-1
					C365.7,106.1,365.7,102.5,365.6,98.8z M339.4,123.5c0,0.8-0.7,1.5-1.5,1.5c-0.8,0-1.5-0.7-1.5-1.5c0-0.8,0.7-1.5,1.5-1.5
					C338.7,122,339.4,122.7,339.4,123.5z"/>
				<path class="st4" d="M355.9,120.4c-0.3-0.1-0.4-0.2-0.4-0.6c0-1.3,0-2.7,0-4c0-0.7-0.2-0.9-0.9-1c-1.2-0.2-2.1-0.7-2.7-1.7
					c-0.3-0.5-0.8-0.6-1.3-0.4c-0.4,0.3-0.5,0.8-0.2,1.3c0.7,1.1,1.7,1.8,3,2.2c0.2,0.1,0.4,0.3,0.4,0.4c0,1.2,0,2.3,0,3.5
					c-0.2,0.1-0.2,0.1-0.3,0.1c-2.1,0.6-3.4,2.4-3.5,4.5c0,1.3,0,2.5,0,3.8c0,0.7,0.4,1.1,0.9,1.1c0.5,0,0.8-0.4,0.8-1.1
					c0-1.2,0-2.4,0-3.6c0-0.4,0-0.7,0.2-1.1c0.4-1.3,1.8-2.2,3.1-2c1.5,0.2,2.6,1.4,2.6,2.8c0,1.3,0,2.6,0,3.9c0,0.6,0.3,1,0.9,1
					c0.5,0,0.9-0.4,0.9-1c0-1.3,0-2.6,0-3.9C359.2,122.8,357.9,121,355.9,120.4z"/>
				<path class="st4" d="M363.2,120.6c-0.7-1.7-1.8-3.1-3.3-4.2c-0.4-0.3-0.8-0.3-1.1,0c-0.3,0.3-0.4,0.6-0.2,1
					c0.1,0.2,0.3,0.4,0.5,0.5c1.7,1.3,2.7,3,2.9,5.1c0.1,1.9,0.1,3.8,0.1,5.6c0,0.7,0.3,1.1,0.9,1.1c0.5,0,0.9-0.4,0.9-1.1
					c0-0.9,0-1.7,0-2.6c0-0.3,0-0.7,0-1C363.8,123.6,363.8,122.1,363.2,120.6z"/>
			</g>
		</g>
	</g>
	<g>
		<circle class="st1" cx="253.9" cy="255.2" r="15.7"/>
		<circle class="st2" cx="253.9" cy="255.2" r="6"/>
		<g>
			<circle class="st2" cx="161.8" cy="255.2" r="51.3"/>
			<polygon class="st2" points="234.1,255.2 192.1,230.9 192.1,279.4 			"/>
			<circle class="st3" cx="161.8" cy="255.2" r="43"/>
			<g>
				<path class="st4" d="M193.1,241.5c0-1.9-0.8-2.7-2.7-2.7c-7.9,0-15.9,0-23.8,0c-0.3,0-0.5,0-0.8,0c-0.1-1,0.2-2-1.1-2.2
					c0-0.6,0-1.1,0-1.7c0-0.5,0-1.1,0-1.6c-0.1-1.3-0.9-2.1-2.2-2.2c-0.6,0-1.2,0-1.9,0c-1.6,0-2.4,0.8-2.5,2.4c0,1,0,2,0,3
					c-1.3,0.2-1,1.3-1.1,2.2c-0.3,0-0.6,0-0.8,0c-7.9,0-15.8,0-23.7,0c-1.3,0-2.3,0.4-2.8,1.7c0,1.1,0,2.1,0,3.2
					c0.5,1.3,1.4,1.7,2.8,1.7c2.5-0.1,4.9,0,7.4,0c0.2,0,0.5,0,0.8,0c0,0.9,0,1.7,0,2.5c0,0.4-0.1,0.6-0.4,0.8
					c-6.1,3.8-8.9,9.2-8.1,16.3c0.8,7.9,7.9,14.1,15.8,14.2c1.1,0,1.5-0.3,1.5-1.4c0-1,0-2,0-3c4.6-0.7,8-3,9.9-7.2
					c1.9-4.3,1.2-8.4-1.5-12.1c1.6-1.4,2.2-1.7,5.1-1.3c0.7,0.1,1.4,0.8,2.1,1.2c-2.7,3.9-3.4,8-1.5,12.2c1.9,4.3,5.3,6.6,9.9,7.2
					c0,1,0,2.1,0,3.1c0,0.9,0.4,1.3,1.3,1.3c0.6,0,1.2,0,1.8-0.1c9.7-1.1,16.3-10.7,13.9-20.2c-1.1-4.5-3.8-7.9-7.7-10.3
					c-0.2-0.1-0.5-0.3-0.5-0.5c0-0.9,0-1.8,0-2.8c0.9,0,1.8,0,2.6,0c2,0,4,0,6,0c1.4,0,2.3-0.9,2.3-2.3
					C193.1,242.5,193.1,242,193.1,241.5z M140.7,243.1c-2.9,0-5.7,0-8.6,0c0-0.7,0-1.4,0-2.1c2.9,0,5.7,0,8.6,0
					C140.7,241.7,140.7,242.4,140.7,243.1z M154.9,241c0.7,0,1.4,0,2.1,0c0,0.7,0,1.4,0,2.1c-0.7,0-1.4,0-2.1,0
					C154.9,242.4,154.9,241.7,154.9,241z M147.2,277c-0.9-0.2-1.8-0.3-2.6-0.5c-5.5-1.5-9.6-6.3-10.3-11.9c-0.7-5.7,2.1-11.3,7-14.1
					c1.1-0.6,1.6-1.5,1.6-2.8c-0.1-2.2,0-4.4,0-6.7c3.3,0,6.5,0,9.8,0c0,0.2,0,0.4,0,0.7c0,2.1,0.1,4.2-0.1,6.4
					c-0.1,1-0.6,2-0.9,3.1c0,0.1-0.4,0.1-0.6,0.1c-4.4-0.9-8.3,0.1-11.5,3.4c-3.3,3.5-4.3,7.7-2.7,12.2c1.6,4.6,5,7.2,9.8,8
					c0.1,0,0.2,0,0.2,0c0,0,0,0,0.1,0.1C147.2,275.5,147.2,276.2,147.2,277z M158.2,262.8c0,5.4-4.4,9.8-9.8,9.8
					c-5.4,0-9.8-4.3-9.9-9.8c0-5.4,4.3-9.8,9.8-9.9C153.7,253,158.2,257.4,158.2,262.8z M158.2,252.2c0,0.1-0.1,0.3-0.3,0.4
					c-0.5,0.4-1,0.8-1.5,1.1c-0.9-0.6-1.7-1.2-2.6-1.7c0.4-1.1,0.9-2.1,1-3.2c0.2-1.1,0-2.2,0-3.4c0.8,0,1.5,0,2.2,0
					c0.1,0.9-0.3,2,1.1,2.2C158.2,249.1,158.2,250.7,158.2,252.2z M160.4,233.4c0.7,0,1.4,0,2.1,0c0,1.1,0,2.1,0,3.2
					c-0.7,0-1.4,0-2.1,0C160.4,235.5,160.4,234.5,160.4,233.4z M162.5,251.9c-0.7,0-1.4,0-2.1,0c0-1.4,0-2.8,0-4.3
					c0.7,0,1.4,0,2.1,0C162.5,249,162.5,250.4,162.5,251.9z M163.6,245.3c-1.5,0-2.9,0-4.3,0c0-2.2,0-4.3,0-6.5c1.4,0,2.8,0,4.3,0
					C163.6,241,163.6,243.1,163.6,245.3z M165.9,241c0.7,0,1.4,0,2.1,0c0,0.7,0,1.3,0,2.1c-0.7,0-1.4,0-2.1,0
					C165.9,242.5,165.9,241.8,165.9,241z M165,252.6c-0.1-0.1-0.2-0.3-0.2-0.4c0-1.5,0-3.1,0-4.6c1.4-0.2,1-1.3,1.1-2.2
					c0.7,0,1.4,0,2.2,0c0,1.2-0.1,2.3,0,3.4c0.2,1.1,0.7,2.1,1,3.2c-0.8,0.6-1.7,1.2-2.6,1.8C166,253.4,165.5,253,165,252.6z
					 M174.6,272.6c-5.4,0-9.8-4.4-9.8-9.8c0-5.4,4.4-9.8,9.8-9.8c5.4,0,9.8,4.4,9.8,9.9C184.3,268.3,180,272.6,174.6,272.6z
					 M188.6,260.9c1.1,7.7-4.2,14.4-11.1,15.8c-0.6,0.1-1.2,0.2-1.8,0.3c0-0.8,0-1.5,0-2.2c3.8-0.5,6.8-2.2,8.9-5.4
					c1.7-2.6,2.3-5.4,1.8-8.4c-0.6-3.5-2.4-6.3-5.4-8.3c-3-1.9-6.3-2.3-9.8-1.4c-0.5-1.4-1.1-2.7-1-4.2c0.1-2,0-4,0-6
					c3.3,0,6.5,0,9.8,0c0,0.2,0,0.4,0,0.6c0,2.1,0,4.2,0,6.4c0,1.1,0.4,1.8,1.4,2.4C185.5,252.7,187.9,256.2,188.6,260.9z
					 M190.9,243.1c-2.9,0-5.7,0-8.6,0c0-0.7,0-1.4,0-2.1c2.9,0,5.7,0,8.6,0C190.9,241.7,190.9,242.4,190.9,243.1z"/>
				<path class="st4" d="M148.3,255.2c-4.2,0-7.6,3.5-7.6,7.7c0,4.2,3.5,7.6,7.6,7.6c4.2,0,7.7-3.5,7.6-7.7
					C156,258.6,152.5,255.2,148.3,255.2z M148.3,268.3c-3,0-5.4-2.5-5.4-5.4c0-3,2.4-5.5,5.4-5.5c3,0,5.5,2.4,5.5,5.4
					C153.8,265.8,151.3,268.3,148.3,268.3z"/>
				<path class="st4" d="M174.6,255.2c-4.2,0-7.7,3.4-7.7,7.6c0,4.2,3.4,7.7,7.7,7.7c4.2,0,7.6-3.5,7.6-7.6
					C182.2,258.6,178.8,255.2,174.6,255.2z M174.6,268.3c-3,0-5.5-2.4-5.5-5.5c0-3,2.4-5.5,5.5-5.4c3,0,5.4,2.4,5.4,5.5
					C180,265.8,177.5,268.3,174.6,268.3z"/>
			</g>
		</g>
	</g>
	<g>
		<path d="M92.8,88.1V78h-7.3v10.2H85V77.5h8.3v10.7H92.8z"/>
		<path d="M96.5,86.8v4.3H96V80.4h0.5v1.3c0.5-0.8,1.6-1.5,2.8-1.5c2.1,0,3.5,1.6,3.5,4c0,2.4-1.4,4.1-3.5,4.1
			C98.2,88.3,97.2,87.7,96.5,86.8z M102.2,84.3c0-2-1-3.6-2.9-3.6c-1.2,0-2.3,0.7-2.8,1.5v4.1c0.5,0.8,1.6,1.6,2.8,1.6
			C101.2,87.9,102.2,86.3,102.2,84.3z"/>
		<path d="M105,88.1v-7.7h0.5v7l4.8-7h0.4v7.7h-0.5v-7l-4.8,7H105z"/>
		<path d="M113.1,84.3c0-2.2,1.6-4,3.6-4c2.4,0,3.6,1.9,3.6,4v0.2h-6.7c0,1.9,1.3,3.5,3.2,3.5c1.1,0,2-0.4,2.7-1.2l0.3,0.3
			c-0.8,0.8-1.7,1.3-3,1.3C114.6,88.3,113.1,86.6,113.1,84.3z M116.7,80.7c-2,0-3,1.8-3.1,3.3h6.2C119.8,82.5,118.8,80.7,116.7,80.7
			z"/>
		<path d="M128.9,88.1V81l-2.8,7.1h-0.1l-2.8-7.1v7.1h-0.5v-7.7h0.7l2.7,6.8l2.7-6.8h0.7v7.7H128.9z"/>
		<path d="M35.9,107.3l-3.4-3.9l-1.6,1.5v2.4h-0.5v-7.7h0.5v4.7l5-4.7h0.7l-3.8,3.5l3.7,4.2H35.9z"/>
		<path d="M38.3,107.3v-7.7H42c1.2,0,2,0.7,2,2c0,0.9-0.6,1.6-1.2,1.8c0.7,0.2,1.3,1,1.3,1.9c0,1.3-0.8,2.1-2.1,2.1H38.3z
			 M43.5,101.6c0-0.9-0.6-1.6-1.6-1.6h-3.1v3.1H42C43,103.1,43.5,102.5,43.5,101.6z M43.7,105.3c0-0.9-0.6-1.7-1.7-1.7h-3.2v3.3H42
			C43,106.9,43.7,106.3,43.7,105.3z"/>
		<path d="M51.8,107.3v-0.9c-0.7,0.8-1.6,1.1-2.7,1.1c-1.4,0-2.7-0.9-2.7-2.6s1.3-2.6,2.7-2.6c1.1,0,2,0.4,2.7,1.1v-1.7
			c0-1.2-1-1.9-2.2-1.9c-1,0-1.8,0.4-2.5,1.2l-0.4-0.3c0.8-0.9,1.6-1.3,2.8-1.3c1.5,0,2.7,0.8,2.7,2.3v5.6H51.8z M51.8,105.9V104
			c-0.6-0.8-1.5-1.2-2.5-1.2c-1.4,0-2.3,0.9-2.3,2.1c0,1.2,0.9,2.1,2.3,2.1C50.2,107.1,51.2,106.7,51.8,105.9z"/>
		<path d="M53.9,107.1c0.8,0,1.4-0.9,1.8-3.6l0.5-3.9h4.5v7.7h-0.5V100h-3.6l-0.5,3.5c-0.4,3-1.1,4-2.2,4V107.1z"/>
		<path d="M63.4,107.3v-7.7h0.5v7l4.8-7h0.4v7.7h-0.5v-7l-4.8,7H63.4z"/>
		<path d="M76.2,100.9v-4.3h0.5v4.2c0.4-0.8,1.2-1.5,2.1-1.5c1.6,0,2.6,1.6,2.6,4c0,2.4-1.1,4.1-2.6,4.1c-0.9,0-1.6-0.6-2.1-1.5v4.3
			h-0.5v-4.2c-0.4,0.8-1.2,1.5-2.1,1.5c-1.6,0-2.6-1.6-2.6-4c0-2.4,1.1-4.1,2.6-4.1C75,99.4,75.8,100,76.2,100.9z M72,103.5
			c0,2,0.8,3.6,2.2,3.6c0.9,0,1.7-0.7,2.1-1.5v-4.1c-0.4-0.8-1.2-1.6-2.1-1.6C72.7,99.9,72,101.5,72,103.5z M81,103.5
			c0-2-0.8-3.6-2.2-3.6c-0.9,0-1.7,0.7-2.1,1.5v4.1c0.4,0.8,1.2,1.6,2.1,1.6C80.2,107.1,81,105.5,81,103.5z"/>
		<path d="M83.8,107.3v-7.7h0.5v7l4.8-7h0.4v7.7H89v-7l-4.8,7H83.8z"/>
		<path d="M98.5,107.3h-6.2v-7.7h0.5v7.3h4.7v-7.3H98v7.3h1v2.4h-0.5V107.3z"/>
		<path d="M100.6,103.5c0-2.3,1.4-4,3.6-4c2.2,0,3.6,1.8,3.6,4c0,2.3-1.4,4.1-3.6,4.1C102,107.5,100.6,105.7,100.6,103.5z
			 M107.3,103.5c0-1.9-1.1-3.6-3.1-3.6c-2,0-3.1,1.7-3.1,3.6c0,1.9,1.1,3.6,3.1,3.6C106.2,107.1,107.3,105.4,107.3,103.5z"/>
		<path d="M110.6,106v4.3h-0.5V99.6h0.5v1.3c0.5-0.8,1.6-1.5,2.8-1.5c2.1,0,3.5,1.6,3.5,4c0,2.4-1.4,4.1-3.5,4.1
			C112.2,107.5,111.2,106.9,110.6,106z M116.3,103.5c0-2-1-3.6-2.9-3.6c-1.2,0-2.3,0.7-2.8,1.5v4.1c0.5,0.8,1.6,1.6,2.8,1.6
			C115.3,107.1,116.3,105.5,116.3,103.5z"/>
		<path d="M118.7,103.5c0-2.3,1.4-4,3.6-4c2.2,0,3.6,1.8,3.6,4c0,2.3-1.4,4.1-3.6,4.1C120.1,107.5,118.7,105.7,118.7,103.5z
			 M125.4,103.5c0-1.9-1.1-3.6-3.1-3.6c-2,0-3.1,1.7-3.1,3.6c0,1.9,1.1,3.6,3.1,3.6C124.3,107.1,125.4,105.4,125.4,103.5z"/>
		<path d="M128.2,107.3v-7.7h3.7c1.2,0,2,0.7,2,2c0,0.9-0.6,1.6-1.2,1.8c0.7,0.2,1.3,1,1.3,1.9c0,1.3-0.8,2.1-2.1,2.1H128.2z
			 M133.4,101.6c0-0.9-0.6-1.6-1.6-1.6h-3.1v3.1h3.1C132.9,103.1,133.4,102.5,133.4,101.6z M133.6,105.3c0-0.9-0.6-1.7-1.7-1.7h-3.2
			v3.3h3.2C132.9,106.9,133.6,106.3,133.6,105.3z"/>
		<path d="M141.7,107.3v-0.9c-0.7,0.8-1.6,1.1-2.7,1.1c-1.4,0-2.7-0.9-2.7-2.6s1.3-2.6,2.7-2.6c1.1,0,2,0.4,2.7,1.1v-1.7
			c0-1.2-1-1.9-2.2-1.9c-1,0-1.8,0.4-2.5,1.2l-0.4-0.3c0.8-0.9,1.6-1.3,2.8-1.3c1.5,0,2.7,0.8,2.7,2.3v5.6H141.7z M141.7,105.9V104
			c-0.6-0.8-1.5-1.2-2.5-1.2c-1.4,0-2.3,0.9-2.3,2.1c0,1.2,0.9,2.1,2.3,2.1C140.1,107.1,141.1,106.7,141.7,105.9z"/>
		<path d="M144.9,107.3v-7.7h0.5v3.5h4.7v-3.5h0.5v7.7h-0.5v-3.8h-4.7v3.8H144.9z"/>
		<path d="M153.3,107.3v-7.7h0.5v3.5h4.7v-3.5h0.5v7.7h-0.5v-3.8h-4.7v3.8H153.3z"/>
		<path d="M161.4,103.5c0-2.3,1.4-4,3.6-4c2.2,0,3.6,1.8,3.6,4c0,2.3-1.4,4.1-3.6,4.1C162.8,107.5,161.4,105.7,161.4,103.5z
			 M168,103.5c0-1.9-1.1-3.6-3.1-3.6c-2,0-3.1,1.7-3.1,3.6c0,1.9,1.1,3.6,3.1,3.6C166.9,107.1,168,105.4,168,103.5z"/>
		<path d="M175.6,100h-4.3v7.3h-0.5v-7.7h4.7V100z"/>
		<path d="M177.1,103.5c0-2.3,1.4-4,3.6-4c2.2,0,3.6,1.8,3.6,4c0,2.3-1.4,4.1-3.6,4.1C178.5,107.5,177.1,105.7,177.1,103.5z
			 M183.8,103.5c0-1.9-1.1-3.6-3.1-3.6c-2,0-3.1,1.7-3.1,3.6c0,1.9,1.1,3.6,3.1,3.6C182.7,107.1,183.8,105.4,183.8,103.5z"/>
		<path d="M63.1,122.7c0-2.2,1.4-4,3.6-4c1.3,0,2,0.5,2.6,1.3l-0.4,0.3c-0.6-0.8-1.4-1.2-2.3-1.2c-2,0-3.2,1.6-3.2,3.6
			c0,2,1.2,3.6,3.2,3.6c0.9,0,1.6-0.3,2.3-1.2l0.4,0.3c-0.7,0.8-1.4,1.3-2.6,1.3C64.5,126.7,63.1,124.9,63.1,122.7z"/>
		<path d="M76.7,126.5v-7.3h-4.7v7.3h-0.5v-7.7h5.7v7.7H76.7z"/>
		<path d="M79.5,122.7c0-2.2,1.6-4,3.6-4c2.4,0,3.6,1.9,3.6,4v0.2H80c0,1.9,1.3,3.5,3.2,3.5c1.1,0,2-0.4,2.7-1.2l0.3,0.3
			c-0.8,0.8-1.7,1.3-3,1.3C81,126.7,79.5,125,79.5,122.7z M83.1,119.1c-2,0-3,1.8-3.1,3.3h6.2C86.2,120.9,85.2,119.1,83.1,119.1z"/>
		<path d="M95.2,126.5H89v-7.7h0.5v7.3h4.7v-7.3h0.5v7.3h1v2.4h-0.5V126.5z"/>
		<path d="M97.7,126.5v-7.7h0.5v7l4.8-7h0.4v7.7H103v-7l-4.8,7H97.7z"/>
		<path d="M111.2,126.5v-0.9c-0.7,0.8-1.6,1.1-2.7,1.1c-1.4,0-2.7-0.9-2.7-2.6s1.3-2.6,2.7-2.6c1.1,0,2,0.4,2.7,1.1V121
			c0-1.2-1-1.9-2.2-1.9c-1,0-1.8,0.4-2.5,1.2l-0.4-0.3c0.8-0.9,1.6-1.3,2.8-1.3c1.5,0,2.7,0.8,2.7,2.3v5.6H111.2z M111.2,125.1v-1.9
			c-0.6-0.8-1.5-1.2-2.5-1.2c-1.4,0-2.3,0.9-2.3,2.1s0.9,2.1,2.3,2.1C109.6,126.3,110.6,125.9,111.2,125.1z"/>
		<path d="M113.3,126.3c0.8,0,1.4-0.9,1.8-3.6l0.5-3.9h4.5v7.7h-0.5v-7.3H116l-0.5,3.5c-0.4,3-1.1,4-2.2,4V126.3z"/>
		<path d="M122.9,126.5v-7.7h0.5v7l4.8-7h0.4v7.7h-0.5v-7l-4.8,7H122.9z"/>
		<path d="M130.9,122.7c0-2.2,1.4-4,3.6-4c1.3,0,2,0.5,2.6,1.3l-0.4,0.3c-0.6-0.8-1.4-1.2-2.3-1.2c-2,0-3.2,1.6-3.2,3.6
			c0,2,1.2,3.6,3.2,3.6c0.9,0,1.6-0.3,2.3-1.2l0.4,0.3c-0.7,0.8-1.4,1.3-2.6,1.3C132.3,126.7,130.9,124.9,130.9,122.7z"/>
		<path d="M140.6,126.5v-7.3h-2.3v-0.4h5.1v0.4h-2.3v7.3H140.6z"/>
		<path d="M150.3,126.5v-0.9c-0.7,0.8-1.6,1.1-2.7,1.1c-1.4,0-2.7-0.9-2.7-2.6s1.3-2.6,2.7-2.6c1.1,0,2,0.4,2.7,1.1V121
			c0-1.2-1-1.9-2.2-1.9c-1,0-1.8,0.4-2.5,1.2l-0.4-0.3c0.8-0.9,1.6-1.3,2.8-1.3c1.5,0,2.7,0.8,2.7,2.3v5.6H150.3z M150.3,125.1v-1.9
			c-0.6-0.8-1.5-1.2-2.5-1.2c-1.4,0-2.3,0.9-2.3,2.1s0.9,2.1,2.3,2.1C148.7,126.3,149.7,125.9,150.3,125.1z"/>
	</g>
	<g>
		<path d="M364.1,236.8c0-3.1,2-5.5,5.1-5.5c3.1,0,5.1,2.4,5.1,5.5s-2,5.5-5.1,5.5C366.1,242.3,364.1,239.9,364.1,236.8z
			 M373.7,236.8c0-2.9-1.8-5-4.5-5c-2.8,0-4.5,2.1-4.5,5c0,2.9,1.7,5,4.5,5C371.9,241.8,373.7,239.7,373.7,236.8z"/>
		<path d="M376.3,238.2c0-2.2,1.4-4,3.6-4c1.3,0,2,0.5,2.6,1.3l-0.4,0.3c-0.6-0.8-1.4-1.2-2.3-1.2c-2,0-3.2,1.6-3.2,3.6
			c0,2,1.2,3.6,3.2,3.6c0.9,0,1.6-0.3,2.3-1.2l0.4,0.3c-0.7,0.8-1.4,1.3-2.6,1.3C377.7,242.3,376.3,240.5,376.3,238.2z"/>
		<path d="M390.8,242.1V235l-2.8,7.1h-0.1L385,235v7.1h-0.5v-7.7h0.7l2.7,6.8l2.7-6.8h0.7v7.7H390.8z"/>
		<path d="M393.6,238.2c0-2.3,1.4-4,3.6-4c2.2,0,3.6,1.8,3.6,4c0,2.3-1.4,4.1-3.6,4.1C395,242.3,393.6,240.5,393.6,238.2z
			 M400.3,238.2c0-1.9-1.1-3.6-3.1-3.6c-2,0-3.1,1.7-3.1,3.6c0,1.9,1.1,3.6,3.1,3.6C399.2,241.9,400.3,240.1,400.3,238.2z"/>
		<path d="M404.6,242.1v-7.3h-2.3v-0.4h5.1v0.4H405v7.3H404.6z"/>
		<path d="M409.7,240.8v4.3h-0.5v-10.7h0.5v1.3c0.5-0.8,1.6-1.5,2.8-1.5c2.1,0,3.5,1.6,3.5,4c0,2.4-1.4,4.1-3.5,4.1
			C411.3,242.3,410.3,241.7,409.7,240.8z M415.4,238.2c0-2-1-3.6-2.9-3.6c-1.2,0-2.3,0.7-2.8,1.5v4.1c0.5,0.8,1.6,1.6,2.8,1.6
			C414.4,241.9,415.4,240.3,415.4,238.2z"/>
		<path d="M332.1,261.3v-7.7h0.5v3.5h4.7v-3.5h0.5v7.7h-0.5v-3.8h-4.7v3.8H332.1z"/>
		<path d="M345.5,261.3v-0.9c-0.7,0.8-1.6,1.1-2.7,1.1c-1.4,0-2.7-0.9-2.7-2.6s1.3-2.6,2.7-2.6c1.1,0,2,0.4,2.7,1.1v-1.7
			c0-1.2-1-1.9-2.2-1.9c-1,0-1.8,0.4-2.5,1.2l-0.4-0.3c0.8-0.9,1.6-1.3,2.8-1.3c1.5,0,2.7,0.8,2.7,2.3v5.6H345.5z M345.5,259.9V258
			c-0.6-0.8-1.5-1.2-2.5-1.2c-1.4,0-2.3,0.9-2.3,2.1c0,1.2,0.9,2.1,2.3,2.1C344,261.1,344.9,260.7,345.5,259.9z"/>
		<path d="M352.5,257.4c0-2.2,1.4-4,3.6-4c1.3,0,2,0.5,2.6,1.3l-0.4,0.3c-0.6-0.8-1.4-1.2-2.3-1.2c-2,0-3.2,1.6-3.2,3.6
			c0,2,1.2,3.6,3.2,3.6c0.9,0,1.6-0.3,2.3-1.2l0.4,0.3c-0.7,0.8-1.4,1.3-2.6,1.3C353.9,261.5,352.5,259.7,352.5,257.4z"/>
		<path d="M360.4,257.4c0-2.3,1.4-4,3.6-4c2.2,0,3.6,1.8,3.6,4c0,2.3-1.4,4.1-3.6,4.1C361.8,261.5,360.4,259.7,360.4,257.4z
			 M367.1,257.4c0-1.9-1.1-3.6-3.1-3.6c-2,0-3.1,1.7-3.1,3.6c0,1.9,1.1,3.6,3.1,3.6C366,261.1,367.1,259.3,367.1,257.4z"/>
		<path d="M369.9,261.3v-7.7h3.7c1.2,0,2,0.7,2,2c0,0.9-0.6,1.6-1.2,1.8c0.7,0.2,1.3,1,1.3,1.9c0,1.3-0.8,2.1-2.1,2.1H369.9z
			 M375.1,255.6c0-0.9-0.6-1.6-1.6-1.6h-3.1v3.1h3.1C374.6,257.1,375.1,256.4,375.1,255.6z M375.2,259.2c0-0.9-0.6-1.7-1.7-1.7h-3.2
			v3.3h3.2C374.6,260.9,375.2,260.3,375.2,259.2z"/>
		<path d="M378.8,260v4.3h-0.5v-10.7h0.5v1.3c0.5-0.8,1.6-1.5,2.8-1.5c2.1,0,3.5,1.6,3.5,4c0,2.4-1.4,4.1-3.5,4.1
			C380.5,261.5,379.5,260.9,378.8,260z M384.5,257.4c0-2-1-3.6-2.9-3.6c-1.2,0-2.3,0.7-2.8,1.5v4.1c0.5,0.8,1.6,1.6,2.8,1.6
			C383.5,261.1,384.5,259.5,384.5,257.4z"/>
		<path d="M386.9,257.4c0-2.2,1.6-4,3.6-4c2.4,0,3.6,1.9,3.6,4v0.2h-6.7c0,1.9,1.3,3.5,3.2,3.5c1.1,0,2-0.4,2.7-1.2l0.3,0.3
			c-0.8,0.8-1.7,1.3-3,1.3C388.5,261.5,386.9,259.8,386.9,257.4z M390.5,253.8c-2,0-3,1.8-3.1,3.3h6.2
			C393.6,255.7,392.7,253.8,390.5,253.8z"/>
		<path d="M402.7,261.3v-7.1l-2.8,7.1h-0.1l-2.8-7.1v7.1h-0.5v-7.7h0.7l2.7,6.8l2.7-6.8h0.7v7.7H402.7z"/>
		<path d="M405.5,257.4c0-2.2,1.6-4,3.6-4c2.4,0,3.6,1.9,3.6,4v0.2h-6.7c0,1.9,1.3,3.5,3.2,3.5c1.1,0,2-0.4,2.7-1.2l0.3,0.3
			c-0.8,0.8-1.7,1.3-3,1.3C407.1,261.5,405.5,259.8,405.5,257.4z M409.1,253.8c-2,0-3,1.8-3.1,3.3h6.2
			C412.2,255.7,411.3,253.8,409.1,253.8z"/>
		<path d="M415.1,261.3v-7.7h0.5v3.5h4.7v-3.5h0.5v7.7h-0.5v-3.8h-4.7v3.8H415.1z"/>
		<path d="M423.5,261.3v-7.7h0.5v3.5h4.7v-3.5h0.5v7.7h-0.5v-3.8H424v3.8H423.5z"/>
		<path d="M431.6,257.4c0-2.3,1.4-4,3.6-4c2.2,0,3.6,1.8,3.6,4c0,2.3-1.4,4.1-3.6,4.1C433,261.5,431.6,259.7,431.6,257.4z
			 M438.2,257.4c0-1.9-1.1-3.6-3.1-3.6c-2,0-3.1,1.7-3.1,3.6c0,1.9,1.1,3.6,3.1,3.6C437.2,261.1,438.2,259.3,438.2,257.4z"/>
		<path d="M447.3,261.3v-7.1l-2.8,7.1h-0.1l-2.8-7.1v7.1h-0.5v-7.7h0.7l2.7,6.8l2.7-6.8h0.7v7.7H447.3z"/>
		<path d="M339,276.6c0-2.3,1.4-4,3.6-4c2.2,0,3.6,1.8,3.6,4c0,2.3-1.4,4.1-3.6,4.1C340.4,280.7,339,278.9,339,276.6z M345.7,276.6
			c0-1.9-1.1-3.6-3.1-3.6c-2,0-3.1,1.7-3.1,3.6c0,1.9,1.1,3.6,3.1,3.6C344.6,280.3,345.7,278.5,345.7,276.6z"/>
		<path d="M348.1,276.3c0-3.8,1.4-5.2,4.3-5.6c1.8-0.3,2.3-0.5,2.3-0.9h0.4c0,0.9-1.3,1.1-2.6,1.4c-2.9,0.5-3.5,1.6-3.8,3.5
			c0.5-1,1.4-2.1,3.1-2.1c2.2,0,3.6,1.8,3.6,4c0,2.3-1.4,4.1-3.6,4.1C349.5,280.7,348.1,278.9,348.1,276.3z M354.8,276.6
			c0-1.9-1.1-3.6-3.1-3.6c-2,0-3.1,1.7-3.1,3.6c0,1.9,1.1,3.6,3.1,3.6C353.7,280.3,354.8,278.5,354.8,276.6z"/>
		<path d="M357.3,276.6c0-2.3,1.4-4,3.6-4c2.2,0,3.6,1.8,3.6,4c0,2.3-1.4,4.1-3.6,4.1C358.8,280.7,357.3,278.9,357.3,276.6z
			 M364,276.6c0-1.9-1.1-3.6-3.1-3.6c-2,0-3.1,1.7-3.1,3.6c0,1.9,1.1,3.6,3.1,3.6C362.9,280.3,364,278.5,364,276.6z"/>
		<path d="M367.4,279.2v4.3h-0.5v-10.7h0.5v1.3c0.5-0.8,1.6-1.5,2.8-1.5c2.1,0,3.5,1.6,3.5,4c0,2.4-1.4,4.1-3.5,4.1
			C369,280.7,368,280.1,367.4,279.2z M373.1,276.6c0-2-1-3.6-2.9-3.6c-1.2,0-2.3,0.7-2.8,1.5v4.1c0.5,0.8,1.6,1.6,2.8,1.6
			C372,280.3,373.1,278.7,373.1,276.6z"/>
		<path d="M375.4,283.1c0.2,0.1,0.5,0.1,0.7,0.1c0.5,0,0.9-0.2,1.2-1.1l0.7-1.6l-3.3-7.8h0.6l3,7.2l3-7.2h0.6l-4.1,9.6
			c-0.4,0.8-0.9,1.3-1.7,1.3c-0.3,0-0.6,0-0.8-0.1L375.4,283.1z"/>
		<path d="M382.3,280.1c0.8-0.1,1.4-0.8,1.8-3.5l0.5-3.9h4.5v7.3h1v2.4h-0.5v-2h-6.8v2h-0.5V280.1z M384.5,276.7
			c-0.3,2-0.7,3-1.3,3.3h5.3v-6.9H385L384.5,276.7z"/>
		<path d="M391.7,276.6c0-2.3,1.4-4,3.6-4c2.2,0,3.6,1.8,3.6,4c0,2.3-1.4,4.1-3.6,4.1C393.1,280.7,391.7,278.9,391.7,276.6z
			 M398.4,276.6c0-1.9-1.1-3.6-3.1-3.6c-2,0-3.1,1.7-3.1,3.6c0,1.9,1.1,3.6,3.1,3.6C397.3,280.3,398.4,278.5,398.4,276.6z"/>
		<path d="M401.2,280.5v-7.7h3.7c1.2,0,2,0.7,2,2c0,0.9-0.6,1.6-1.2,1.8c0.7,0.2,1.3,1,1.3,1.9c0,1.3-0.8,2.1-2.1,2.1H401.2z
			 M406.4,274.8c0-0.9-0.6-1.6-1.6-1.6h-3.1v3.1h3.1C405.9,276.3,406.4,275.6,406.4,274.8z M406.6,278.4c0-0.9-0.6-1.7-1.7-1.7h-3.2
			v3.3h3.2C406,280.1,406.6,279.5,406.6,278.4z"/>
		<path d="M414.7,280.5v-0.9c-0.7,0.8-1.6,1.1-2.7,1.1c-1.4,0-2.7-0.9-2.7-2.6s1.3-2.6,2.7-2.6c1.1,0,2,0.4,2.7,1.1V275
			c0-1.2-1-1.9-2.2-1.9c-1,0-1.8,0.4-2.5,1.2l-0.4-0.3c0.8-0.9,1.6-1.3,2.8-1.3c1.5,0,2.7,0.8,2.7,2.3v5.6H414.7z M414.7,279.1v-1.9
			c-0.6-0.8-1.5-1.2-2.5-1.2c-1.4,0-2.3,0.9-2.3,2.1s0.9,2.1,2.3,2.1C413.1,280.3,414.1,279.9,414.7,279.1z"/>
		<path d="M417.9,280.5v-7.7h0.5v3.5h4.7v-3.5h0.5v7.7h-0.5v-3.8h-4.7v3.8H417.9z"/>
		<path d="M426.3,280.5v-7.7h0.5v7l4.8-7h0.4v7.7h-0.5v-7l-4.8,7H426.3z"/>
		<path d="M434.8,280.5v-7.7h0.5v7l4.8-7h0.4v7.7H440v-7l-4.8,7H434.8z"/>
	</g>
	<g>
		<circle class="st1" cx="254.6" cy="408.4" r="15.7"/>
		<circle class="st2" cx="254.6" cy="408.4" r="6"/>
		<g>
			<circle class="st2" cx="347.8" cy="408.4" r="51.3"/>
			<polygon class="st2" points="275.5,408.4 317.5,432.6 317.5,384.1 			"/>
			<circle class="st3" cx="347.8" cy="408.4" r="43"/>
			<g>
				<path class="st4" d="M376.9,413.9c-0.7-1.2-1.8-2.3-2.8-3.4c-0.3-0.3-0.7-0.5-1.1-0.2c-0.2,0.2-0.4,0.6-0.4,0.9
					c0,0.2,0.2,0.4,0.4,0.6c3.2,3.1,4.6,6.9,3.9,11.3c-1,7.2-8.2,12.2-15.3,10.5c-6.7-1.5-10.9-7.7-9.9-14.5
					c0.9-6,6.2-10.7,12.3-10.8c2,0,3.9,0.3,5.8,1.2c0.6,0.3,1,0.2,1.3-0.2c0.3-0.5,0.1-1-0.6-1.3c-4.9-2.2-9.7-1.8-14.2,1.1
					c-0.2,0.1-0.3,0.2-0.5,0.3c0-0.1,0-0.2,0-0.2c0-2.8,0-5.6,0-8.4c0-0.2,0.1-0.4,0.2-0.6c0.7-1.2,0.8-2.5,0.2-3.8
					c-0.3-0.5-0.3-1-0.2-1.6c0.2-2,0.4-3.9-0.1-5.9c-2.4-11.1-14.6-14.3-22.2-8.2c-1.2,1-2.2,2.1-3,3.4c-0.3,0.5-0.2,0.9,0.2,1.2
					c0.4,0.3,0.9,0.2,1.2-0.2c0.1-0.1,0.2-0.2,0.3-0.4c4.3-6.5,13.6-7.2,18.9-1.4c2.9,3.2,3.7,7,3.1,11.1c-0.6-0.1-1-0.3-1.3-0.9
					c-0.2-0.3-0.7-0.6-1.1-0.7c-0.5-0.2-1.1-0.2-1.7-0.3c-4-0.4-7.4-1.9-10-4.9c-0.6-0.7-1.6-0.7-2.1,0.1c-0.4,0.6-0.9,1.2-1.3,1.9
					c-1,1.6-2.4,2.7-4.2,3.4c-0.3,0.1-0.7,0.3-0.8,0.6c-0.2,0.6-0.7,0.6-1.2,0.8c0-0.1-0.1-0.1-0.1-0.2c0-0.1,0-0.3-0.1-0.4
					c-0.2-1.8-0.2-3.6,0.3-5.4c0.2-0.6-0.1-1.1-0.6-1.2c-0.5-0.1-0.9,0.1-1.1,0.7c-0.2,0.7-0.4,1.4-0.4,2c0,1.7,0.1,3.5,0.1,5.2
					c0,0.3-0.1,0.6-0.2,0.8c-0.8,1.5-0.7,2.9,0.1,4.3c0.2,0.3,0.3,0.6,0.3,0.9c0,1.9,0,3.8,0,5.7c0,2.1,0,4.2,0,6.3
					c0,0.6,0.3,1,0.8,1c0.5,0,0.8-0.4,0.9-1c0-0.2,0-0.3,0-0.5c0-3.4,0-6.8,0-10.1c0-0.2,0-0.4,0-0.7c0.3,0.1,0.6,0.2,0.8,0.2
					c0,0.4,0,0.7,0,1.1c-0.1,4.2,1.6,7.6,5.1,10c0.2,0.1,0.3,0.4,0.3,0.5c0,0.7-0.1,1.3,0,2c0.1,0.9-0.2,1.4-1.1,1.7
					c-1.7,0.6-3.3,1.4-5.1,2.2c0-0.9,0-1.7,0-2.5c0-0.7-0.3-1-0.9-1c-0.5,0-0.8,0.3-0.8,1c0,1,0,2,0,2.9c0,0.4-0.1,0.7-0.5,0.9
					c-2.1,1.6-3.6,3.7-4.5,6.2c-0.9,2.5-0.9,5-0.8,7.5c0,0.5,0.4,0.8,0.9,0.8c0.5,0,0.8-0.3,0.8-0.8c0-0.9,0-1.7,0-2.6
					c0-3.1,1-5.9,3.1-8.3c1-1.1,2.1-2,3.4-2.6c1,1.3,1.9,2.5,2.8,3.8c0.2,0.3,0.3,0.6,0.3,1c0,0.6,0.2,1,0.6,1.5
					c2.1,2.4,4.3,4.9,6.4,7.3c0.7,0.8,1.1,0.8,1.8,0c2.1-2.5,4.3-4.9,6.4-7.4c0.4-0.4,0.6-0.9,0.5-1.4c0-0.3,0.1-0.6,0.1-0.9
					c0.1,0.1,0.2,0.1,0.2,0.1c0.1,0.1,0.1,0.3,0.2,0.4c1.9,5.3,5.5,8.5,11,9.8c0.5,0.1,1,0.2,1.5,0.3c0.9,0,1.7,0,2.6,0
					c0.2,0,0.5-0.1,0.7-0.1C376.6,434.1,382.1,422.7,376.9,413.9z M331.3,400.3c-1-0.2-1.7-1.1-1.7-2.2c0-1.1,0.7-2,1.7-2.1
					C331.3,397.4,331.3,398.9,331.3,400.3z M353.2,396c0.8,0.1,1.5,0.9,1.6,1.9c0.1,1-0.5,2-1.6,2.5
					C353.2,398.9,353.2,397.4,353.2,396z M336.2,411c-2.1-1.9-3.1-4.3-3.2-7.1c0-3,0-6,0-8.9c0-0.2,0.2-0.5,0.3-0.5
					c2-0.8,3.5-2.2,4.7-4c0.3-0.5,0.6-0.9,1-1.4c3.4,3.7,7.7,5.1,12.5,5.4c0,0.7,0,1.3,0,1.9c0,2.9,0.1,5.7-0.1,8.6
					c-0.3,4.4-4.2,8.4-8.7,8.6C340.2,413.7,338.1,412.6,336.2,411z M346,416.9c0,0.1-0.2,0.3-0.3,0.4c-1,0.7-2,1.3-2.9,2
					c-0.4,0.3-0.7,0.3-1.1,0c-1-0.7-2-1.3-2.9-2c-0.2-0.1-0.3-0.3-0.3-0.5c0-0.8,0-1.5,0-2.4c2.9,0.9,3.7,1.3,7.6,0.1
					C346,415.3,346,416.1,346,416.9z M339.6,430.2c-1.1-1.3-2.3-2.6-3.4-3.9c-0.1-0.1-0.2-0.4-0.1-0.6c0-0.6-0.1-1-0.5-1.5
					c-0.9-1.2-1.8-2.4-2.8-3.7c1-0.4,2-0.9,3-1.3c1.3,3.7,2.6,7.3,3.9,10.9C339.7,430.2,339.7,430.2,339.6,430.2z M342.3,432
					c-1.6-4.5-3.2-8.9-4.8-13.4c0,0,0.1-0.1,0.1-0.1c1,0.7,2.1,1.4,3.1,2.1c1.1,0.7,1.9,0.7,3,0c0.9-0.6,1.9-1.3,2.8-1.9
					c0.1-0.1,0.3-0.2,0.5-0.2C345.5,423.1,343.9,427.5,342.3,432z M349.9,422.6c0,0.2-0.1,0.4-0.2,0.5c-0.3,0.4-0.5,0.7-0.8,1.1
					c-0.4,0.5-0.6,1-0.6,1.7c0,0.2,0,0.4-0.1,0.5c-1.1,1.3-2.3,2.7-3.5,3.9c1.3-3.6,2.6-7.3,3.9-11c0.5,0.2,0.9,0.4,1.3,0.6
					C349.9,420.8,349.9,421.7,349.9,422.6z M350.3,417.8c0,0.1-0.1,0.1-0.1,0.2c-0.8-0.3-1.5-0.7-2.3-1c-0.1,0-0.2-0.3-0.2-0.4
					c0-0.9,0-1.8,0-2.7c0-0.2,0.1-0.4,0.3-0.5c3.7-2.5,5.3-6,5.2-10.4c0-0.1,0-0.1,0-0.2c0-0.7,0-0.7,0.8-0.9c0,0.8,0,1.5,0,2.3
					c0,2.1,0,4.2,0,6.3c0,0.2-0.1,0.5-0.2,0.7C352.1,413.2,350.9,415.3,350.3,417.8z"/>
				<path class="st4" d="M360.4,413.9c-3,1.5-5.3,3.8-7.3,6.5c-0.4,0.6-0.3,1.2,0.1,1.8c1.3,1.8,2.8,3.4,4.6,4.7
					c1.9,1.5,4,2.5,6.6,2.7c1-0.2,2.1-0.3,3.1-0.7c3.5-1.3,6-3.9,8.2-6.8c0.4-0.5,0.3-1.2-0.1-1.7c-1.7-2.3-3.7-4.3-6.2-5.8
					C366.5,412.7,363.5,412.4,360.4,413.9z M356.3,423.2c-0.5-0.7-1.1-1.3-1.7-2c0.6-0.7,1.1-1.4,1.7-2
					C356.3,420.5,356.3,421.9,356.3,423.2z M372.5,419.2c0.5,0.6,1.1,1.3,1.7,2c-0.6,0.7-1.2,1.4-1.7,2
					C372.5,421.9,372.5,420.5,372.5,419.2z M364.4,427.7c-3.6,0-6.5-2.9-6.5-6.5c0-3.6,3-6.6,6.6-6.5c3.6,0,6.5,3,6.5,6.6
					C370.9,424.8,367.9,427.7,364.4,427.7z"/>
				<path class="st4" d="M335.3,430.7c-2.4,0-4.7,0-7.1,0c-0.8,0-1.4,0.6-1.4,1.4c0,0.5,0,1.1,0,1.6c0,1.1,0.5,1.7,1.7,1.7
					c1.1,0,2.2,0,3.3,0c0,0,0,0,0,0c1.2,0,2.3,0,3.5,0c0.9,0,1.5-0.6,1.5-1.5c0-0.6,0-1.2,0-1.8
					C336.7,431.3,336.1,430.7,335.3,430.7z M335,433.4c0,0.1,0,0.2,0,0.3c-2.1,0-4.3,0-6.4,0c0-0.4,0-0.8,0-1.2c2.1,0,4.2,0,6.4,0
					C335,432.8,335,433.1,335,433.4z"/>
				<path class="st4" d="M364.4,417.2c-2.2,0-4,1.8-4,4c0,2.2,1.8,4,4,4c2.2,0,4-1.8,4-4C368.4,419,366.6,417.2,364.4,417.2z
					 M364.4,423.5c-1.3,0-2.3-1-2.3-2.3c0-1.3,1-2.3,2.3-2.3c1.3,0,2.3,1,2.3,2.3C366.7,422.4,365.7,423.5,364.4,423.5z"/>
			</g>
		</g>
	</g>
	<g>
		<circle class="st1" cx="254.1" cy="562.4" r="15.7"/>
		<circle class="st2" cx="254.1" cy="562.4" r="6"/>
		<g>
			<circle class="st2" cx="161.9" cy="562.4" r="51.3"/>
			<polygon class="st2" points="234.2,562.4 192.2,538.1 192.2,586.6 			"/>
			<ellipse class="st3" cx="161.9" cy="562.4" rx="43" ry="41.5"/>
			<g>
				<path class="st4" d="M183.6,566.3c-0.4-0.1-0.8-0.2-1.1-0.3c0-0.2,0-0.5,0-0.7c0-8.1,0-16.2,0-24.3c0-2.4-1.4-3.7-3.8-3.7
					c-2.4,0-4.8,0-7.3,0c-0.3,0-0.5-0.1-0.7-0.4c-0.6-1.2-1.7-1.8-3.1-1.9c-0.4,0-0.8,0-1.2,0c-1.1-3-2.9-4.5-5.5-4.5
					c-2.7,0-4.4,1.3-5.7,4.5c-1.9-0.2-3.6,0.2-4.4,2.2c-0.1,0-0.1,0-0.1,0c-2.5,0-5,0-7.5,0c-2.5,0-3.9,1.3-3.9,3.8
					c0,14.5,0,29,0,43.6c0,0.2,0,0.3,0,0.5c0,1.4,0.9,2.7,2.3,3.1c0.2,0.1,0.4,0.1,0.5,0.2c13,0,26.1,0,39.1,0
					c0.1,0,0.2-0.1,0.3-0.1c5.3-0.7,9.4-5,9.9-10.4C192,572.7,188.7,567.9,183.6,566.3z M153.1,538.2c0.1-0.6,0.5-1,1.2-1
					c0.7,0,1.4,0,2.1,0c0.8,0,1.2-0.4,1.2-1.2c0.1-2,1.5-3.3,3.4-3.4c1.9,0,3.3,1.4,3.4,3.4c0.1,0.8,0.5,1.2,1.2,1.2
					c0.7,0,1.3,0,2,0c0.9,0,1.3,0.4,1.3,1.3c0,0.3,0,0.6,0,1c-5.3,0-10.6,0-15.9,0C153,539,153,538.6,153.1,538.2z M172.8,586.1
					c-9.9,0-19.8,0-29.6,0c-1.1,0-1.5-0.4-1.5-1.5c0-14.6,0-29.2,0-43.7c0-1.1,0.4-1.5,1.5-1.5c2.5,0,5,0,7.6,0c0,0.3,0,0.6,0,0.9
					c0,0.9,0.4,1.3,1.4,1.3c3.6,0,7.1,0,10.7,0c2.2,0,4.5,0,6.7,0c1.3,0,1.6-0.3,1.6-1.6c0-0.2,0-0.4,0-0.7c0.2,0,0.3,0,0.5,0
					c2.4,0,4.9,0,7.3,0c0.9,0,1.3,0.4,1.3,1.3c0,8.2,0,16.5,0,24.7c0,0.1,0,0.1,0,0.3c-1.7,0.1-3.3,0.4-4.8,1.1
					c-1.5,0.7-2.9,1.7-3.9,3.1c-0.2,0.3-0.5,0.4-0.8,0.4c-6.1,0-12.2,0-18.3,0c-0.2,0-0.4,0-0.6,0c-0.6,0.1-1,0.5-1,1.1
					c0,0.6,0.4,1,1,1.1c0.2,0,0.4,0,0.6,0c5.6,0,11.1,0,16.7,0c0.2,0,0.4,0,0.6,0c-0.3,1.5-0.6,3-0.9,4.5c-0.1,0-0.3,0-0.6,0
					c-5.3,0-10.5,0-15.8,0c-0.2,0-0.4,0-0.6,0c-0.6,0.1-1,0.5-1,1.1c0,0.6,0.4,1.1,1,1.1c0.2,0,0.4,0,0.6,0c5.3,0,10.7,0,16,0
					c0.2,0,0.5,0,0.7,0c0.6,2.7,2,5,4.2,6.8C173.1,586.1,172.9,586.1,172.8,586.1z M180.2,586.1c-5,0-9-4.1-9-9c0-5,4.1-9.1,9.1-9.1
					c5,0,9,4.1,9,9.1C189.3,582.1,185.2,586.1,180.2,586.1z"/>
				<path class="st4" d="M152,552.1c0.1,0,0.2,0,0.3,0c7.3,0,14.6,0,21.8,0c0.2,0,0.4,0,0.6,0c0.5-0.1,1-0.6,1-1.1
					c0-0.6-0.4-1.1-1-1.1c-0.2,0-0.4,0-0.6,0c-3.6,0-7.3,0-10.9,0c-2.7,0-5.5,0-8.2,0c-1,0-2,0-3,0c-0.7,0-1.2,0.5-1.2,1.1
					C150.8,551.6,151.3,552.1,152,552.1z"/>
				<path class="st4" d="M151.7,558.9c0.2,0,0.4,0,0.6,0c7.3,0,14.6,0,21.8,0c0.2,0,0.3,0,0.5,0c0.6-0.1,1-0.6,1-1.1
					c0-0.6-0.4-1-1-1.1c-0.2,0-0.4,0-0.6,0c-3.6,0-7.2,0-10.9,0c-3.6,0-7.3,0-10.9,0c-0.2,0-0.4,0-0.6,0c-0.6,0.1-1,0.5-1,1.1
					C150.8,558.3,151.2,558.8,151.7,558.9z"/>
				<path class="st4" d="M151.8,565.7c0.2,0,0.4,0,0.6,0c3.6,0,7.2,0,10.9,0c3.6,0,7.3,0,10.9,0c0.2,0,0.4,0,0.6,0
					c0.6-0.1,1-0.6,1-1.1c0-0.5-0.4-1-1-1.1c-0.2,0-0.4,0-0.6,0c-7.3,0-14.6,0-21.8,0c-0.2,0-0.3,0-0.5,0c-0.6,0.1-1,0.5-1,1.1
					C150.8,565.1,151.2,565.6,151.8,565.7z"/>
				<path class="st4" d="M147.4,549.9c-0.6,0-1.1,0.5-1.1,1.1c0,0.6,0.5,1.2,1.1,1.1c0.6,0,1.1-0.5,1.1-1.2
					C148.5,550.4,148,549.9,147.4,549.9z"/>
				<path class="st4" d="M147.4,558.9c0.6,0,1.1-0.5,1.1-1.1c0-0.6-0.5-1.1-1.1-1.1c-0.6,0-1.1,0.5-1.1,1.1
					C146.3,558.4,146.8,558.9,147.4,558.9z"/>
				<path class="st4" d="M147.4,563.5c-0.6,0-1.1,0.5-1.1,1.2c0,0.6,0.5,1.1,1.1,1.1c0.6,0,1.1-0.5,1.1-1.2
					C148.5,564,148,563.5,147.4,563.5z"/>
				<path class="st4" d="M147.4,570.3c-0.6,0-1.1,0.5-1.1,1.1c0,0.6,0.5,1.2,1.1,1.1c0.6,0,1.1-0.5,1.1-1.2
					C148.5,570.7,148,570.3,147.4,570.3z"/>
				<path class="st4" d="M147.4,577.1c-0.6,0-1.1,0.5-1.1,1.1c0,0.6,0.5,1.2,1.1,1.2c0.6,0,1.2-0.5,1.1-1.1
					C148.5,577.6,148,577.1,147.4,577.1z"/>
				<path class="st4" d="M183,573.9c-0.2,0.1-0.3,0.3-0.5,0.5c-1.1,1.1-2.2,2.2-3.4,3.4c-0.1-0.1-0.1-0.1-0.1-0.1
					c-0.4-0.4-0.8-0.8-1.2-1.2c-0.6-0.6-1.3-0.6-1.7-0.1c-0.5,0.5-0.4,1.1,0.1,1.7c0.6,0.6,1.2,1.2,1.8,1.8c0.9,0.9,1.4,0.9,2.2,0
					c1.3-1.3,2.7-2.7,4-4c0.1-0.1,0.3-0.3,0.4-0.4c0.3-0.5,0.3-1-0.1-1.4C184.1,573.6,183.5,573.5,183,573.9z"/>
				<path class="st4" d="M160.9,537.2c0.6,0,1.2-0.5,1.2-1.1c0-0.6-0.5-1.1-1.1-1.2c-0.6,0-1.2,0.5-1.2,1.1
					C159.8,536.6,160.3,537.1,160.9,537.2z"/>
			</g>
		</g>
	</g>
	<g>
		<path d="M65.9,374.6l-4.8-5.2l-1.3,1.4v3.9h-0.5v-10.7h0.5v6.2l5.6-6.2h0.7l-4.6,5.1l5.1,5.6H65.9z"/>
		<path d="M68,370.7c0-2.3,1.4-4,3.6-4c2.2,0,3.6,1.8,3.6,4c0,2.3-1.4,4.1-3.6,4.1C69.5,374.8,68,373,68,370.7z M74.7,370.7
			c0-1.9-1.1-3.6-3.1-3.6c-2,0-3.1,1.7-3.1,3.6c0,1.9,1.1,3.6,3.1,3.6C73.6,374.3,74.7,372.6,74.7,370.7z"/>
		<path d="M77.6,374.6v-7.7h0.5v3.5h4.7v-3.5h0.5v7.7h-0.5v-3.8h-4.7v3.8H77.6z"/>
		<path d="M85.6,370.7c0-2.2,1.4-4,3.6-4c1.3,0,2,0.5,2.6,1.3l-0.4,0.3c-0.6-0.8-1.4-1.2-2.3-1.2c-2,0-3.2,1.6-3.2,3.6
			c0,2,1.2,3.6,3.2,3.6c0.9,0,1.6-0.3,2.3-1.2l0.4,0.3c-0.7,0.8-1.4,1.3-2.6,1.3C87,374.8,85.6,372.9,85.6,370.7z"/>
		<path d="M93.4,377.1c0.2,0.1,0.5,0.1,0.7,0.1c0.5,0,0.9-0.2,1.2-1.1l0.7-1.6l-3.3-7.8h0.6l3,7.2l3-7.2h0.6l-4.1,9.6
			c-0.4,0.8-0.9,1.3-1.7,1.3c-0.3,0-0.6,0-0.8-0.1L93.4,377.1z"/>
		<path d="M100.4,374.3c0.8,0,1.4-0.9,1.8-3.6l0.5-3.9h4.5v7.7h-0.5v-7.3h-3.6l-0.5,3.5c-0.4,3-1.1,4-2.2,4V374.3z"/>
		<path d="M110.4,366.8v3.3h3.1c1.5,0,2.3,1,2.3,2.2c0,1.2-0.8,2.2-2.3,2.2h-3.6v-7.7H110.4z M110.4,370.6v3.6h3.1
			c1.2,0,1.7-0.7,1.7-1.8s-0.6-1.8-1.7-1.8H110.4z"/>
		<path d="M119.2,374.6v-7.3h-2.3v-0.4h5.1v0.4h-2.3v7.3H119.2z"/>
		<path d="M128.9,374.6v-0.9c-0.7,0.8-1.6,1.1-2.7,1.1c-1.4,0-2.7-0.9-2.7-2.6s1.3-2.6,2.7-2.6c1.1,0,2,0.4,2.7,1.1V369
			c0-1.2-1-1.9-2.2-1.9c-1,0-1.8,0.4-2.5,1.2l-0.4-0.3c0.8-0.9,1.6-1.3,2.8-1.3c1.5,0,2.7,0.8,2.7,2.3v5.6H128.9z M128.9,373.1v-1.9
			c-0.6-0.8-1.5-1.2-2.5-1.2c-1.4,0-2.3,0.9-2.3,2.1s0.9,2.1,2.3,2.1C127.3,374.3,128.3,373.9,128.9,373.1z"/>
		<path d="M138.3,374.6h-6.2v-7.7h0.5v7.3h4.7v-7.3h0.5v7.3h1v2.4h-0.5V374.6z"/>
		<path d="M140.8,374.6v-7.7h0.5v7l4.8-7h0.4v7.7h-0.5v-7l-4.8,7H140.8z"/>
		<path d="M149.1,374.6l2.3-3.3c-1.4,0-2.2-0.9-2.2-2.2c0-1.3,0.9-2.2,2.3-2.2h3.6v7.7h-0.5v-3.3h-2.6l-2.2,3.3H149.1z M154.5,370.8
			v-3.6h-3.1c-1.1,0-1.8,0.7-1.8,1.8s0.6,1.8,1.8,1.8H154.5z"/>
		<path d="M23.9,389.9c0-2.2,1.4-4,3.6-4c1.3,0,2,0.5,2.6,1.3l-0.4,0.3c-0.6-0.8-1.4-1.2-2.3-1.2c-2,0-3.2,1.6-3.2,3.6
			c0,2,1.2,3.6,3.2,3.6c0.9,0,1.6-0.3,2.3-1.2l0.4,0.3c-0.7,0.8-1.4,1.3-2.6,1.3C25.3,394,23.9,392.1,23.9,389.9z"/>
		<path d="M37.5,393.8v-7.3h-4.7v7.3h-0.5V386h5.7v7.7H37.5z"/>
		<path d="M40.3,389.9c0-2.2,1.6-4,3.6-4c2.4,0,3.6,1.9,3.6,4v0.2h-6.7c0,1.9,1.3,3.5,3.2,3.5c1.1,0,2-0.4,2.7-1.2l0.3,0.3
			c-0.8,0.8-1.7,1.3-3,1.3C41.8,394,40.3,392.2,40.3,389.9z M43.9,386.3c-2,0-3,1.8-3.1,3.3H47C47,388.1,46,386.3,43.9,386.3z"/>
		<path d="M56,393.8h-6.2V386h0.5v7.3H55V386h0.5v7.3h1v2.4H56V393.8z"/>
		<path d="M58.5,393.8V386H59v7l4.8-7h0.4v7.7h-0.5v-7l-4.8,7H58.5z"/>
		<path d="M72,393.8v-0.9c-0.7,0.8-1.6,1.1-2.7,1.1c-1.4,0-2.7-0.9-2.7-2.6s1.3-2.6,2.7-2.6c1.1,0,2,0.4,2.7,1.1v-1.7
			c0-1.2-1-1.9-2.2-1.9c-1,0-1.8,0.4-2.5,1.2l-0.4-0.3c0.8-0.9,1.6-1.3,2.8-1.3c1.5,0,2.7,0.8,2.7,2.3v5.6H72z M72,392.3v-1.9
			c-0.6-0.8-1.5-1.2-2.5-1.2c-1.4,0-2.3,0.9-2.3,2.1c0,1.2,0.9,2.1,2.3,2.1C70.5,393.5,71.4,393.1,72,392.3z"/>
		<path d="M74.1,393.5c0.8,0,1.4-0.9,1.8-3.6l0.5-3.9h4.5v7.7h-0.5v-7.3h-3.6l-0.5,3.5c-0.4,3-1.1,4-2.2,4V393.5z"/>
		<path d="M83.7,393.8V386h0.5v7l4.8-7h0.4v7.7h-0.5v-7l-4.8,7H83.7z"/>
		<path d="M91.7,389.9c0-2.2,1.4-4,3.6-4c1.3,0,2,0.5,2.6,1.3l-0.4,0.3c-0.6-0.8-1.4-1.2-2.3-1.2c-2,0-3.2,1.6-3.2,3.6
			c0,2,1.2,3.6,3.2,3.6c0.9,0,1.6-0.3,2.3-1.2l0.4,0.3c-0.7,0.8-1.4,1.3-2.6,1.3C93.1,394,91.7,392.1,91.7,389.9z"/>
		<path d="M101.4,393.8v-7.3h-2.3V386h5.1v0.4h-2.3v7.3H101.4z"/>
		<path d="M111.1,393.8v-0.9c-0.7,0.8-1.6,1.1-2.7,1.1c-1.4,0-2.7-0.9-2.7-2.6s1.3-2.6,2.7-2.6c1.1,0,2,0.4,2.7,1.1v-1.7
			c0-1.2-1-1.9-2.2-1.9c-1,0-1.8,0.4-2.5,1.2l-0.4-0.3c0.8-0.9,1.6-1.3,2.8-1.3c1.5,0,2.7,0.8,2.7,2.3v5.6H111.1z M111.1,392.3v-1.9
			c-0.6-0.8-1.5-1.2-2.5-1.2c-1.4,0-2.3,0.9-2.3,2.1c0,1.2,0.9,2.1,2.3,2.1C109.5,393.5,110.5,393.1,111.1,392.3z"/>
		<path d="M123.7,393.8v-7.3h-4.7v7.3h-0.5V386h5.7v7.7H123.7z"/>
		<path d="M126.5,389.9c0-2.3,1.4-4,3.6-4c2.2,0,3.6,1.8,3.6,4c0,2.3-1.4,4.1-3.6,4.1C127.9,394,126.5,392.2,126.5,389.9z
			 M133.2,389.9c0-1.9-1.1-3.6-3.1-3.6c-2,0-3.1,1.7-3.1,3.6c0,1.9,1.1,3.6,3.1,3.6C132.1,393.5,133.2,391.8,133.2,389.9z"/>
		<path d="M139.8,389.9c0-2.3,1.4-4,3.6-4c2.2,0,3.6,1.8,3.6,4c0,2.3-1.4,4.1-3.6,4.1C141.2,394,139.8,392.2,139.8,389.9z
			 M146.4,389.9c0-1.9-1.1-3.6-3.1-3.6c-2,0-3.1,1.7-3.1,3.6c0,1.9,1.1,3.6,3.1,3.6C145.3,393.5,146.4,391.8,146.4,389.9z"/>
		<path d="M155.5,393.8h-6.2V386h0.5v7.3h4.7V386h0.5v7.3h1v2.4h-0.5V393.8z"/>
		<path d="M157.6,389.9c0-2.2,1.6-4,3.6-4c2.4,0,3.6,1.9,3.6,4v0.2h-6.7c0,1.9,1.3,3.5,3.2,3.5c1.1,0,2-0.4,2.7-1.2l0.3,0.3
			c-0.8,0.8-1.7,1.3-3,1.3C159.2,394,157.6,392.2,157.6,389.9z M161.2,386.3c-2,0-3,1.8-3.1,3.3h6.2
			C164.3,388.1,163.3,386.3,161.2,386.3z"/>
		<path d="M167.2,393.8V386h0.5v3.5h4.7V386h0.5v7.7h-0.5V390h-4.7v3.8H167.2z"/>
		<path d="M181.1,393.8l-3.4-3.9l-1.6,1.5v2.4h-0.5V386h0.5v4.7l5-4.7h0.7l-3.8,3.5l3.7,4.2H181.1z"/>
		<path d="M183.1,389.9c0-2.2,1.6-4,3.6-4c2.4,0,3.6,1.9,3.6,4v0.2h-6.7c0,1.9,1.3,3.5,3.2,3.5c1.1,0,2-0.4,2.7-1.2l0.3,0.3
			c-0.8,0.8-1.7,1.3-3,1.3C184.7,394,183.1,392.2,183.1,389.9z M186.7,386.3c-2,0-3,1.8-3.1,3.3h6.2
			C189.8,388.1,188.9,386.3,186.7,386.3z"/>
		<path d="M47.5,411.6v4.3H47v-10.7h0.5v1.3c0.5-0.8,1.6-1.5,2.8-1.5c2.1,0,3.5,1.6,3.5,4c0,2.4-1.4,4.1-3.5,4.1
			C49.1,413.2,48.1,412.5,47.5,411.6z M53.2,409.1c0-2-1-3.6-2.9-3.6c-1.2,0-2.3,0.7-2.8,1.5v4.1c0.5,0.8,1.6,1.6,2.8,1.6
			C52.2,412.7,53.2,411.1,53.2,409.1z"/>
		<path d="M56,413v-7.7h0.5v7l4.8-7h0.4v7.7h-0.5v-7l-4.8,7H56z"/>
		<path d="M64,409.1c0-2.2,1.4-4,3.6-4c1.3,0,2,0.5,2.6,1.3l-0.4,0.3c-0.6-0.8-1.4-1.2-2.3-1.2c-2,0-3.2,1.6-3.2,3.6
			c0,2,1.2,3.6,3.2,3.6c0.9,0,1.6-0.3,2.3-1.2l0.4,0.3c-0.7,0.8-1.4,1.3-2.6,1.3C65.5,413.2,64,411.3,64,409.1z"/>
		<path d="M77.8,413l-3.4-3.9l-1.6,1.5v2.4h-0.5v-7.7h0.5v4.7l5-4.7h0.7l-3.8,3.5l3.7,4.2H77.8z"/>
		<path d="M85.3,413V412c-0.7,0.8-1.6,1.1-2.7,1.1c-1.4,0-2.7-0.9-2.7-2.6s1.3-2.6,2.7-2.6c1.1,0,2,0.4,2.7,1.1v-1.7
			c0-1.2-1-1.9-2.2-1.9c-1,0-1.8,0.4-2.5,1.2l-0.4-0.3c0.8-0.9,1.6-1.3,2.8-1.3c1.5,0,2.7,0.8,2.7,2.3v5.6H85.3z M85.3,411.5v-1.9
			c-0.6-0.8-1.5-1.2-2.5-1.2c-1.4,0-2.3,0.9-2.3,2.1s0.9,2.1,2.3,2.1C83.7,412.7,84.7,412.3,85.3,411.5z"/>
		<path d="M97.9,413v-7.3h-4.7v7.3h-0.5v-7.7h5.7v7.7H97.9z"/>
		<path d="M100.7,409.1c0-2.3,1.4-4,3.6-4c2.2,0,3.6,1.8,3.6,4c0,2.3-1.4,4.1-3.6,4.1C102.1,413.2,100.7,411.4,100.7,409.1z
			 M107.4,409.1c0-1.9-1.1-3.6-3.1-3.6c-2,0-3.1,1.7-3.1,3.6c0,1.9,1.1,3.6,3.1,3.6C106.3,412.7,107.4,411,107.4,409.1z"/>
		<path d="M110,413l2.3-3.3c-1.4,0-2.2-0.9-2.2-2.2c0-1.3,0.9-2.2,2.3-2.2h3.6v7.7h-0.5v-3.3h-2.6l-2.2,3.3H110z M115.4,409.2v-3.6
			h-3.1c-1.1,0-1.8,0.7-1.8,1.8s0.6,1.8,1.8,1.8H115.4z"/>
		<path d="M118.7,413v-7.7h3.7c1.2,0,2,0.7,2,2c0,0.9-0.6,1.6-1.2,1.8c0.7,0.2,1.3,1,1.3,1.9c0,1.3-0.8,2.1-2.1,2.1H118.7z
			 M123.9,407.2c0-0.9-0.6-1.6-1.6-1.6h-3.1v3.1h3.1C123.3,408.8,123.9,408.1,123.9,407.2z M124,410.9c0-0.9-0.6-1.7-1.7-1.7h-3.2
			v3.3h3.2C123.4,412.5,124,411.9,124,410.9z"/>
		<path d="M126,412.7c0.8,0,1.4-0.9,1.8-3.6l0.5-3.9h4.5v7.7h-0.5v-7.3h-3.6l-0.5,3.5c-0.4,3-1.1,4-2.2,4V412.7z"/>
		<path d="M135.1,409.1c0-2.2,1.6-4,3.6-4c2.4,0,3.6,1.9,3.6,4v0.2h-6.7c0,1.9,1.3,3.5,3.2,3.5c1.1,0,2-0.4,2.7-1.2l0.3,0.3
			c-0.8,0.8-1.7,1.3-3,1.3C136.7,413.2,135.1,411.4,135.1,409.1z M138.7,405.5c-2,0-3,1.8-3.1,3.3h6.2
			C141.8,407.3,140.9,405.5,138.7,405.5z"/>
		<path d="M144.7,413v-7.7h0.5v3.5h4.7v-3.5h0.5v7.7h-0.5v-3.8h-4.7v3.8H144.7z"/>
		<path d="M153.1,413v-7.7h0.5v7l4.8-7h0.4v7.7h-0.5v-7l-4.8,7H153.1z"/>
		<path d="M161.4,413l2.3-3.3c-1.4,0-2.2-0.9-2.2-2.2c0-1.3,0.9-2.2,2.3-2.2h3.6v7.7h-0.5v-3.3h-2.6L162,413H161.4z M166.8,409.2
			v-3.6h-3.1c-1.1,0-1.8,0.7-1.8,1.8s0.6,1.8,1.8,1.8H166.8z"/>
		<path d="M34.4,432.2v-7.7h0.5v7l4.8-7h0.4v7.7h-0.5v-7l-4.8,7H34.4z"/>
		<path d="M52.2,432.2v-7.3h-4.7v7.3H47v-7.7h5.7v7.7H52.2z"/>
		<path d="M55.9,430.8v4.3h-0.5v-10.7h0.5v1.3c0.5-0.8,1.6-1.5,2.8-1.5c2.1,0,3.5,1.6,3.5,4c0,2.4-1.4,4.1-3.5,4.1
			C57.6,432.4,56.6,431.7,55.9,430.8z M61.7,428.3c0-2-1-3.6-2.9-3.6c-1.2,0-2.3,0.7-2.8,1.5v4.1c0.5,0.8,1.6,1.6,2.8,1.6
			C60.6,431.9,61.7,430.3,61.7,428.3z"/>
		<path d="M64,428.3c0-2.3,1.4-4,3.6-4c2.2,0,3.6,1.8,3.6,4c0,2.3-1.4,4.1-3.6,4.1C65.5,432.4,64,430.6,64,428.3z M70.7,428.3
			c0-1.9-1.1-3.6-3.1-3.6c-2,0-3.1,1.7-3.1,3.6c0,1.9,1.1,3.6,3.1,3.6C69.6,431.9,70.7,430.2,70.7,428.3z"/>
		<path d="M78.3,424.9h-4.3v7.3h-0.5v-7.7h4.7V424.9z"/>
		<path d="M80.7,430.8v4.3h-0.5v-10.7h0.5v1.3c0.5-0.8,1.6-1.5,2.8-1.5c2.1,0,3.5,1.6,3.5,4c0,2.4-1.4,4.1-3.5,4.1
			C82.3,432.4,81.3,431.7,80.7,430.8z M86.4,428.3c0-2-1-3.6-2.9-3.6c-1.2,0-2.3,0.7-2.8,1.5v4.1c0.5,0.8,1.6,1.6,2.8,1.6
			C85.3,431.9,86.4,430.3,86.4,428.3z"/>
		<path d="M88.8,428.3c0-2.2,1.6-4,3.6-4c2.4,0,3.6,1.9,3.6,4v0.2h-6.7c0,1.9,1.3,3.5,3.2,3.5c1.1,0,2-0.4,2.7-1.2l0.3,0.3
			c-0.8,0.8-1.7,1.3-3,1.3C90.3,432.4,88.8,430.6,88.8,428.3z M92.4,424.7c-2,0-3,1.8-3.1,3.3h6.2C95.5,426.5,94.5,424.7,92.4,424.7
			z"/>
		<path d="M97.9,428.3c0-2.2,1.4-4,3.6-4c1.3,0,2,0.5,2.6,1.3l-0.4,0.3c-0.6-0.8-1.4-1.2-2.3-1.2c-2,0-3.2,1.6-3.2,3.6
			c0,2,1.2,3.6,3.2,3.6c0.9,0,1.6-0.3,2.3-1.2l0.4,0.3c-0.7,0.8-1.4,1.3-2.6,1.3C99.3,432.4,97.9,430.5,97.9,428.3z"/>
		<path d="M105.8,428.3c0-2.2,1.4-4,3.6-4c1.3,0,2,0.5,2.6,1.3l-0.4,0.3c-0.6-0.8-1.4-1.2-2.3-1.2c-2,0-3.2,1.6-3.2,3.6
			c0,2,1.2,3.6,3.2,3.6c0.9,0,1.6-0.3,2.3-1.2l0.4,0.3c-0.7,0.8-1.4,1.3-2.6,1.3C107.2,432.4,105.8,430.5,105.8,428.3z"/>
		<path d="M114.1,432.2v-7.7h0.5v7l4.8-7h0.4v7.7h-0.5v-7l-4.8,7H114.1z"/>
		<path d="M123,430.8v4.3h-0.5v-10.7h0.5v1.3c0.5-0.8,1.6-1.5,2.8-1.5c2.1,0,3.5,1.6,3.5,4c0,2.4-1.4,4.1-3.5,4.1
			C124.6,432.4,123.6,431.7,123,430.8z M128.7,428.3c0-2-1-3.6-2.9-3.6c-1.2,0-2.3,0.7-2.8,1.5v4.1c0.5,0.8,1.6,1.6,2.8,1.6
			C127.7,431.9,128.7,430.3,128.7,428.3z"/>
		<path d="M131.1,428.3c0-2.3,1.4-4,3.6-4c2.2,0,3.6,1.8,3.6,4c0,2.3-1.4,4.1-3.6,4.1C132.5,432.4,131.1,430.6,131.1,428.3z
			 M137.8,428.3c0-1.9-1.1-3.6-3.1-3.6c-2,0-3.1,1.7-3.1,3.6c0,1.9,1.1,3.6,3.1,3.6C136.7,431.9,137.8,430.2,137.8,428.3z"/>
		<path d="M140.6,432.2v-7.7h3.7c1.2,0,2,0.7,2,2c0,0.9-0.6,1.6-1.2,1.8c0.7,0.2,1.3,1,1.3,1.9c0,1.3-0.8,2.1-2.1,2.1H140.6z
			 M145.8,426.4c0-0.9-0.6-1.6-1.6-1.6h-3.1v3.1h3.1C145.3,428,145.8,427.3,145.8,426.4z M146,430.1c0-0.9-0.6-1.7-1.7-1.7h-3.2v3.3
			h3.2C145.3,431.7,146,431.1,146,430.1z"/>
		<path d="M154.1,432.2v-0.9c-0.7,0.8-1.6,1.1-2.7,1.1c-1.4,0-2.7-0.9-2.7-2.6s1.3-2.6,2.7-2.6c1.1,0,2,0.4,2.7,1.1v-1.7
			c0-1.2-1-1.9-2.2-1.9c-1,0-1.8,0.4-2.5,1.2l-0.4-0.3c0.8-0.9,1.6-1.3,2.8-1.3c1.5,0,2.7,0.8,2.7,2.3v5.6H154.1z M154.1,430.7v-1.9
			c-0.6-0.8-1.5-1.2-2.5-1.2c-1.4,0-2.3,0.9-2.3,2.1s0.9,2.1,2.3,2.1C152.5,431.9,153.5,431.5,154.1,430.7z"/>
		<path d="M157.3,432.2v-7.7h0.5v3.5h4.7v-3.5h0.5v7.7h-0.5v-3.8h-4.7v3.8H157.3z"/>
		<path d="M165.7,432.2v-7.7h0.5v7l4.8-7h0.4v7.7H171v-7l-4.8,7H165.7z"/>
		<path d="M174,432.2l2.3-3.3c-1.4,0-2.2-0.9-2.2-2.2c0-1.3,0.9-2.2,2.3-2.2h3.6v7.7h-0.5v-3.3h-2.6l-2.2,3.3H174z M179.4,428.4
			v-3.6h-3.1c-1.1,0-1.8,0.7-1.8,1.8s0.6,1.8,1.8,1.8H179.4z"/>
		<path d="M88.6,451.4v-7.1l-2.8,7.1h-0.1l-2.8-7.1v7.1h-0.5v-7.7H83l2.7,6.8l2.7-6.8H89v7.7H88.6z"/>
		<path d="M91.8,451.4v-7.7h0.5v7l4.8-7h0.4v7.7H97v-7l-4.8,7H91.8z"/>
		<path d="M99.8,447.5c0-2.3,1.4-4,3.6-4c2.2,0,3.6,1.8,3.6,4c0,2.3-1.4,4.1-3.6,4.1C101.3,451.6,99.8,449.8,99.8,447.5z
			 M106.5,447.5c0-1.9-1.1-3.6-3.1-3.6c-2,0-3.1,1.7-3.1,3.6c0,1.9,1.1,3.6,3.1,3.6C105.4,451.1,106.5,449.4,106.5,447.5z"/>
		<path d="M114.6,451.4v-7.3h-4.7v7.3h-0.5v-7.7h5.7v7.7H114.6z"/>
		<path d="M117.8,451.4v-7.7h0.5v7l4.8-7h0.4v7.7H123v-7l-4.8,7H117.8z"/>
		<path d="M126.3,451.4v-7.7h0.5v7l4.8-7h0.4v7.7h-0.5v-7l-4.8,7H126.3z"/>
	</g>
	<g>
		<circle class="st1" cx="255.7" cy="714" r="15.7"/>
		<circle class="st2" cx="255.7" cy="714" r="6"/>
		<g>
			<circle class="st2" cx="348.9" cy="714" r="51.3"/>
			<polygon class="st2" points="276.6,714 318.6,738.2 318.6,689.7 			"/>
			<circle class="st3" cx="348.9" cy="714" r="43"/>
			<g>
				<path class="st4" d="M367.2,707.5c0-2.4-1.9-4.3-4.3-4.3h-7.1v-2.8h11.4v-2.8h-14.2v14.2h9.9
					C365.3,711.8,367.2,709.8,367.2,707.5z M355.9,706.1h7.1c0.8,0,1.4,0.6,1.4,1.4c0,0.8-0.6,1.4-1.4,1.4h-7.1V706.1z"/>
				<polygon class="st4" points="346,697.6 343.1,697.6 343.1,708.9 340.3,708.9 340.3,697.6 337.4,697.6 337.4,708.9 334.6,708.9 
					334.6,697.6 331.8,697.6 331.8,711.8 346,711.8 				"/>
				<polygon class="st4" points="333.2,719.6 334.6,723.1 336,723.1 337.4,719.6 337.4,723.1 338.9,723.1 338.9,716 337.4,716 
					335.3,721.3 333.2,716 331.8,716 331.8,723.1 333.2,723.1 				"/>
				<path class="st4" d="M367.2,716h-1.4c0,0,0,1.1-0.4,1.8c-0.4,0.7-1.4,1.1-1.4,1.1h-2.5V716h-1.4v7.1h1.4v-2.8h2.5
					c0.4,0,1.1,0.4,1.4,1.1c0.4,0.7,0.4,1.8,0.4,1.8h1.4c0,0,0-1.4-0.4-2.1c-0.4-0.7-1.1-1.4-1.1-1.4s0.7-0.7,1.1-1.4
					C367.2,717.4,367.2,716,367.2,716z"/>
				<polygon class="st4" points="346,716 346,723.1 347.4,723.1 347.4,720.3 351.6,720.3 351.6,723.1 353.1,723.1 353.1,716 
					351.6,716 351.6,718.8 347.4,718.8 347.4,716 				"/>
				<rect x="335.5" y="727.4" class="st4" width="0.9" height="4.7"/>
				<path class="st4" d="M335.1,730.7c0-0.8-0.6-1.4-1.4-1.4h-0.9v-1.9h-0.9v4.7h1.9C334.4,732.1,335.1,731.5,335.1,730.7z
					 M332.7,730.2h0.9c0.3,0,0.5,0.2,0.5,0.5s-0.2,0.5-0.5,0.5h-0.9V730.2z"/>
				<polygon class="st4" points="344.4,730.9 343,727.4 342,727.4 342,732.1 343,732.1 343,729.7 343.9,732.1 344.9,732.1 
					345.8,729.7 345.8,732.1 346.7,732.1 346.7,727.4 345.8,727.4 				"/>
				<path class="st4" d="M352.3,732.1h3.3c0.8,0,1.4-0.6,1.4-1.4c0-0.8-0.6-1.4-1.4-1.4h-2.4v-0.9h3.8v-0.9h-4.7V732.1z
					 M353.2,730.2h2.4c0.3,0,0.5,0.2,0.5,0.5s-0.2,0.5-0.5,0.5h-2.4V730.2z"/>
				<polygon class="st4" points="366.3,731.2 365.4,731.2 365.4,727.4 364.4,727.4 364.4,731.2 363.5,731.2 363.5,727.4 
					362.5,727.4 362.5,732.1 367.2,732.1 367.2,727.4 366.3,727.4 				"/>
				<path class="st4" d="M374.7,692.4c0-1.7-1.4-3.1-3.1-3.1h-44.2c-1.7,0-3.1,1.4-3.1,3.1c0,1.5,1,2.7,2.4,3c0,0,0,0,0,0v38
					c0,2.1,1.7,3.8,3.8,3.8h18.9v6.4c0,0.6,0.4,1,1,1s1-0.4,1-1v-6.4h17.2c2.1,0,3.8-1.7,3.8-3.8v-38c0,0,0,0,0,0
					C373.7,695.1,374.7,693.9,374.7,692.4z M370.4,733.5c0,1-0.8,1.8-1.8,1.8h-38c-1,0-1.8-0.8-1.8-1.8v-38h41.7V733.5z
					 M371.6,693.5h-44.2c-0.6,0-1.1-0.5-1.1-1.1s0.5-1.1,1.1-1.1h44.2c0.6,0,1.1,0.5,1.1,1.1S372.2,693.5,371.6,693.5z"/>
			</g>
		</g>
	</g>
	<g>
		<path d="M19.1,699.4v-10.7h3.7c2,0,3.1,1.4,3.1,3s-1.2,3-3.1,3h-3.2v4.6H19.1z M25.4,691.7c0-1.5-1-2.5-2.6-2.5h-3.2v5.1h3.2
			C24.4,694.3,25.4,693.2,25.4,691.7z"/>
		<path d="M27.5,695.5c0-2.2,1.6-4,3.6-4c2.4,0,3.6,1.9,3.6,4v0.2h-6.7c0,1.9,1.3,3.5,3.2,3.5c1.1,0,2-0.4,2.7-1.2l0.3,0.3
			c-0.8,0.8-1.7,1.3-3,1.3C29.1,699.6,27.5,697.9,27.5,695.5z M31.2,691.9c-2,0-3,1.8-3.1,3.3h6.2C34.3,693.7,33.3,691.9,31.2,691.9
			z"/>
		<path d="M41.8,692.1h-4.3v7.3h-0.5v-7.7h4.7V692.1z"/>
		<path d="M43.2,702c0.2,0.1,0.5,0.1,0.7,0.1c0.5,0,0.9-0.2,1.2-1.1l0.7-1.6l-3.3-7.8h0.6l3,7.2l3-7.2h0.6l-4.1,9.6
			c-0.4,0.8-0.9,1.3-1.7,1.3c-0.3,0-0.6,0-0.8-0.1L43.2,702z"/>
		<path d="M50.2,699.1c0.8,0,1.4-0.9,1.8-3.6l0.5-3.9h4.5v7.7h-0.5v-7.3h-3.6l-0.5,3.5c-0.4,3-1.1,4-2.2,4V699.1z"/>
		<path d="M59.5,699.4l2.3-3.3c-1.4,0-2.2-0.9-2.2-2.2c0-1.3,0.9-2.2,2.3-2.2h3.6v7.7h-0.5v-3.3h-2.6l-2.2,3.3H59.5z M64.9,695.7
			v-3.6h-3.1c-1.1,0-1.8,0.7-1.8,1.8s0.6,1.8,1.8,1.8H64.9z"/>
		<path d="M68.6,698.1v4.3h-0.5v-10.7h0.5v1.3c0.5-0.8,1.6-1.5,2.8-1.5c2.1,0,3.5,1.6,3.5,4c0,2.4-1.4,4.1-3.5,4.1
			C70.2,699.6,69.2,699,68.6,698.1z M74.3,695.5c0-2-1-3.6-2.9-3.6c-1.2,0-2.3,0.7-2.8,1.5v4.1c0.5,0.8,1.6,1.6,2.8,1.6
			C73.3,699.1,74.3,697.5,74.3,695.5z"/>
		<path d="M77.1,699.4v-7.7h0.5v3.5h4.7v-3.5h0.5v7.7h-0.5v-3.8h-4.7v3.8H77.1z"/>
		<path d="M85.1,695.5c0-2.3,1.4-4,3.6-4c2.2,0,3.6,1.8,3.6,4c0,2.3-1.4,4.1-3.6,4.1C86.6,699.6,85.1,697.8,85.1,695.5z M91.8,695.5
			c0-1.9-1.1-3.6-3.1-3.6c-2,0-3.1,1.7-3.1,3.6c0,1.9,1.1,3.6,3.1,3.6C90.7,699.1,91.8,697.4,91.8,695.5z"/>
		<path d="M94.3,695.5c0-2.2,1.6-4,3.6-4c2.4,0,3.6,1.9,3.6,4v0.2h-6.7c0,1.9,1.3,3.5,3.2,3.5c1.1,0,2-0.4,2.7-1.2l0.3,0.3
			c-0.8,0.8-1.7,1.3-3,1.3C95.8,699.6,94.3,697.9,94.3,695.5z M97.9,691.9c-2,0-3,1.8-3.1,3.3h6.2C101,693.7,100,691.9,97.9,691.9z"
			/>
		<path d="M108,699.4v-7.7h0.5v3.5h4.7v-3.5h0.5v7.7h-0.5v-3.8h-4.7v3.8H108z"/>
		<path d="M121.4,699.4v-0.9c-0.7,0.8-1.6,1.1-2.7,1.1c-1.4,0-2.7-0.9-2.7-2.6s1.3-2.6,2.7-2.6c1.1,0,2,0.4,2.7,1.1v-1.7
			c0-1.2-1-1.9-2.2-1.9c-1,0-1.8,0.4-2.5,1.2l-0.4-0.3c0.8-0.9,1.6-1.3,2.8-1.3c1.5,0,2.7,0.8,2.7,2.3v5.6H121.4z M121.4,698V696
			c-0.6-0.8-1.5-1.2-2.5-1.2c-1.4,0-2.3,0.9-2.3,2.1s0.9,2.1,2.3,2.1C119.9,699.1,120.8,698.7,121.4,698z"/>
		<path d="M124.2,695.2c0-3.8,1.4-5.2,4.3-5.6c1.8-0.3,2.3-0.5,2.3-0.9h0.4c0,0.9-1.3,1.1-2.6,1.4c-2.9,0.5-3.5,1.6-3.8,3.5
			c0.5-1,1.4-2.1,3.1-2.1c2.2,0,3.6,1.8,3.6,4c0,2.3-1.4,4.1-3.6,4.1C125.7,699.6,124.2,697.8,124.2,695.2z M130.9,695.5
			c0-1.9-1.1-3.6-3.1-3.6c-2,0-3.1,1.7-3.1,3.6c0,1.9,1.1,3.6,3.1,3.6C129.8,699.1,130.9,697.4,130.9,695.5z"/>
		<path d="M132.8,699.1c0.8,0,1.4-0.9,1.8-3.6l0.5-3.9h4.5v7.7h-0.5v-7.3h-3.6l-0.5,3.5c-0.4,3-1.1,4-2.2,4V699.1z"/>
		<path d="M144.5,695.6h-1.7v3.8h-0.5v-7.7h0.5v3.5h1.7c0.1-2.1,1.5-3.7,3.6-3.7c2.2,0,3.6,1.8,3.6,4c0,2.3-1.4,4.1-3.6,4.1
			C146,699.6,144.5,697.8,144.5,695.6z M151.2,695.5c0-1.9-1.1-3.6-3.1-3.6c-2,0-3.1,1.7-3.1,3.6c0,1.9,1.1,3.6,3.1,3.6
			C150.1,699.1,151.2,697.4,151.2,695.5z"/>
		<path d="M153,699c0.8-0.1,1.4-0.8,1.8-3.5l0.5-3.9h4.5v7.3h1v2.4h-0.5v-2h-6.8v2H153V699z M155.2,695.6c-0.3,2-0.7,3-1.3,3.3h5.3
			v-6.9h-3.6L155.2,695.6z"/>
		<path d="M162.4,695.5c0-2.2,1.6-4,3.6-4c2.4,0,3.6,1.9,3.6,4v0.2h-6.7c0,1.9,1.3,3.5,3.2,3.5c1.1,0,2-0.4,2.7-1.2l0.3,0.3
			c-0.8,0.8-1.7,1.3-3,1.3C163.9,699.6,162.4,697.9,162.4,695.5z M166,691.9c-2,0-3,1.8-3.1,3.3h6.2
			C169.1,693.7,168.1,691.9,166,691.9z"/>
		<path d="M171.9,699.4v-7.7h0.5v3.5h4.7v-3.5h0.5v7.7h-0.5v-3.8h-4.7v3.8H171.9z"/>
		<path d="M180.4,699.4v-7.7h0.5v7l4.8-7h0.4v7.7h-0.5v-7l-4.8,7H180.4z"/>
		<path d="M188.4,695.5c0-2.2,1.6-4,3.6-4c2.4,0,3.6,1.9,3.6,4v0.2h-6.7c0,1.9,1.3,3.5,3.2,3.5c1.1,0,2-0.4,2.7-1.2l0.3,0.3
			c-0.8,0.8-1.7,1.3-3,1.3C189.9,699.6,188.4,697.9,188.4,695.5z M192,691.9c-2,0-3,1.8-3.1,3.3h6.2
			C195.1,693.7,194.1,691.9,192,691.9z"/>
		<path d="M24.4,721.2c0.2,0.1,0.5,0.1,0.7,0.1c0.5,0,0.9-0.2,1.2-1.1l0.7-1.6l-3.3-7.8h0.6l3,7.2l3-7.2h0.6l-4.1,9.6
			c-0.4,0.8-0.9,1.3-1.7,1.3c-0.3,0-0.6,0-0.8-0.1L24.4,721.2z"/>
		<path d="M42.1,718.6l-3.4-3.9l-1.6,1.5v2.4h-0.5v-7.7h0.5v4.7l5-4.7h0.7l-3.8,3.5l3.7,4.2H42.1z"/>
		<path d="M44.5,718.6v-7.7h3.7c1.2,0,2,0.7,2,2c0,0.9-0.6,1.6-1.2,1.8c0.7,0.2,1.3,1,1.3,1.9c0,1.3-0.8,2.1-2.1,2.1H44.5z
			 M49.7,712.8c0-0.9-0.6-1.6-1.6-1.6H45v3.1h3.1C49.2,714.4,49.7,713.7,49.7,712.8z M49.9,716.5c0-0.9-0.6-1.7-1.7-1.7H45v3.3h3.2
			C49.2,718.1,49.9,717.5,49.9,716.5z"/>
		<path d="M57.9,718.6v-0.9c-0.7,0.8-1.6,1.1-2.7,1.1c-1.4,0-2.7-0.9-2.7-2.6s1.3-2.6,2.7-2.6c1.1,0,2,0.4,2.7,1.1V713
			c0-1.2-1-1.9-2.2-1.9c-1,0-1.8,0.4-2.5,1.2l-0.4-0.3c0.8-0.9,1.6-1.3,2.8-1.3c1.5,0,2.7,0.8,2.7,2.3v5.6H57.9z M57.9,717.2v-1.9
			c-0.6-0.8-1.5-1.2-2.5-1.2c-1.4,0-2.3,0.9-2.3,2.1c0,1.2,0.9,2.1,2.3,2.1C56.4,718.3,57.4,717.9,57.9,717.2z"/>
		<path d="M60.1,718.3c0.8,0,1.4-0.9,1.8-3.6l0.5-3.9h4.5v7.7h-0.5v-7.3h-3.6l-0.5,3.5c-0.4,3-1.1,4-2.2,4V718.3z"/>
		<path d="M69.6,718.6v-7.7h0.5v7l4.8-7h0.4v7.7h-0.5v-7l-4.8,7H69.6z"/>
		<path d="M82.4,712.2v-4.3h0.5v4.2c0.4-0.8,1.2-1.5,2.1-1.5c1.6,0,2.6,1.6,2.6,4c0,2.4-1.1,4.1-2.6,4.1c-0.9,0-1.6-0.6-2.1-1.5v4.3
			h-0.5v-4.2c-0.4,0.8-1.2,1.5-2.1,1.5c-1.6,0-2.6-1.6-2.6-4c0-2.4,1.1-4.1,2.6-4.1C81.2,710.7,81.9,711.3,82.4,712.2z M78.1,714.7
			c0,2,0.8,3.6,2.2,3.6c0.9,0,1.7-0.7,2.1-1.5v-4.1c-0.4-0.8-1.2-1.6-2.1-1.6C78.9,711.1,78.1,712.7,78.1,714.7z M87.2,714.7
			c0-2-0.8-3.6-2.2-3.6c-0.9,0-1.7,0.7-2.1,1.5v4.1c0.4,0.8,1.2,1.6,2.1,1.6C86.4,718.3,87.2,716.7,87.2,714.7z"/>
		<path d="M90,718.6v-7.7h0.5v7l4.8-7h0.4v7.7h-0.5v-7l-4.8,7H90z"/>
		<path d="M104.6,718.6h-6.2v-7.7h0.5v7.3h4.7v-7.3h0.5v7.3h1v2.4h-0.5V718.6z"/>
		<path d="M107.2,718.6v-7.7h0.5v7l4.8-7h0.4v7.7h-0.5v-7l-4.8,7H107.2z"/>
		<path d="M116.1,717.3v4.3h-0.5v-10.7h0.5v1.3c0.5-0.8,1.6-1.5,2.8-1.5c2.1,0,3.5,1.6,3.5,4c0,2.4-1.4,4.1-3.5,4.1
			C117.7,718.8,116.7,718.2,116.1,717.3z M121.8,714.7c0-2-1-3.6-2.9-3.6c-1.2,0-2.3,0.7-2.8,1.5v4.1c0.5,0.8,1.6,1.6,2.8,1.6
			C120.8,718.3,121.8,716.7,121.8,714.7z"/>
		<path d="M124.2,714.7c0-2.3,1.4-4,3.6-4c2.2,0,3.6,1.8,3.6,4c0,2.3-1.4,4.1-3.6,4.1C125.6,718.8,124.2,717,124.2,714.7z
			 M130.9,714.7c0-1.9-1.1-3.6-3.1-3.6c-2,0-3.1,1.7-3.1,3.6c0,1.9,1.1,3.6,3.1,3.6C129.8,718.3,130.9,716.6,130.9,714.7z"/>
		<path d="M133.7,718.6v-7.7h3.7c1.2,0,2,0.7,2,2c0,0.9-0.6,1.6-1.2,1.8c0.7,0.2,1.3,1,1.3,1.9c0,1.3-0.8,2.1-2.1,2.1H133.7z
			 M138.9,712.8c0-0.9-0.6-1.6-1.6-1.6h-3.1v3.1h3.1C138.4,714.4,138.9,713.7,138.9,712.8z M139.1,716.5c0-0.9-0.6-1.7-1.7-1.7h-3.2
			v3.3h3.2C138.4,718.1,139.1,717.5,139.1,716.5z"/>
		<path d="M147.2,718.6v-0.9c-0.7,0.8-1.6,1.1-2.7,1.1c-1.4,0-2.7-0.9-2.7-2.6s1.3-2.6,2.7-2.6c1.1,0,2,0.4,2.7,1.1V713
			c0-1.2-1-1.9-2.2-1.9c-1,0-1.8,0.4-2.5,1.2l-0.4-0.3c0.8-0.9,1.6-1.3,2.8-1.3c1.5,0,2.7,0.8,2.7,2.3v5.6H147.2z M147.2,717.2v-1.9
			c-0.6-0.8-1.5-1.2-2.5-1.2c-1.4,0-2.3,0.9-2.3,2.1c0,1.2,0.9,2.1,2.3,2.1C145.6,718.3,146.6,717.9,147.2,717.2z"/>
		<path d="M150.4,718.6v-7.7h0.5v3.5h4.7v-3.5h0.5v7.7h-0.5v-3.8h-4.7v3.8H150.4z"/>
		<path d="M158.8,718.6v-7.7h0.5v3.5h4.7v-3.5h0.5v7.7h-0.5v-3.8h-4.7v3.8H158.8z"/>
		<path d="M166.9,714.7c0-2.3,1.4-4,3.6-4c2.2,0,3.6,1.8,3.6,4c0,2.3-1.4,4.1-3.6,4.1C168.3,718.8,166.9,717,166.9,714.7z
			 M173.5,714.7c0-1.9-1.1-3.6-3.1-3.6c-2,0-3.1,1.7-3.1,3.6c0,1.9,1.1,3.6,3.1,3.6C172.5,718.3,173.5,716.6,173.5,714.7z"/>
		<path d="M181.1,711.3h-4.3v7.3h-0.5v-7.7h4.7V711.3z"/>
		<path d="M182.6,714.7c0-2.3,1.4-4,3.6-4c2.2,0,3.6,1.8,3.6,4c0,2.3-1.4,4.1-3.6,4.1C184,718.8,182.6,717,182.6,714.7z
			 M189.3,714.7c0-1.9-1.1-3.6-3.1-3.6c-2,0-3.1,1.7-3.1,3.6c0,1.9,1.1,3.6,3.1,3.6C188.2,718.3,189.3,716.6,189.3,714.7z"/>
		<path d="M63.1,733.9c0-2.2,1.4-4,3.6-4c1.3,0,2,0.5,2.6,1.3l-0.4,0.3c-0.6-0.8-1.4-1.2-2.3-1.2c-2,0-3.2,1.6-3.2,3.6
			c0,2,1.2,3.6,3.2,3.6c0.9,0,1.6-0.3,2.3-1.2l0.4,0.3c-0.7,0.8-1.4,1.3-2.6,1.3C64.5,738,63.1,736.1,63.1,733.9z"/>
		<path d="M76.7,737.8v-7.3h-4.7v7.3h-0.5v-7.7h5.7v7.7H76.7z"/>
		<path d="M79.5,733.9c0-2.2,1.6-4,3.6-4c2.4,0,3.6,1.9,3.6,4v0.2H80c0,1.9,1.3,3.5,3.2,3.5c1.1,0,2-0.4,2.7-1.2l0.3,0.3
			c-0.8,0.8-1.7,1.3-3,1.3C81,738,79.5,736.3,79.5,733.9z M83.1,730.3c-2,0-3,1.8-3.1,3.3h6.2C86.2,732.1,85.2,730.3,83.1,730.3z"/>
		<path d="M95.2,737.8H89v-7.7h0.5v7.3h4.7v-7.3h0.5v7.3h1v2.4h-0.5V737.8z"/>
		<path d="M97.7,737.8v-7.7h0.5v7l4.8-7h0.4v7.7H103v-7l-4.8,7H97.7z"/>
		<path d="M111.2,737.8v-0.9c-0.7,0.8-1.6,1.1-2.7,1.1c-1.4,0-2.7-0.9-2.7-2.6s1.3-2.6,2.7-2.6c1.1,0,2,0.4,2.7,1.1v-1.7
			c0-1.2-1-1.9-2.2-1.9c-1,0-1.8,0.4-2.5,1.2l-0.4-0.3c0.8-0.9,1.6-1.3,2.8-1.3c1.5,0,2.7,0.8,2.7,2.3v5.6H111.2z M111.2,736.4v-1.9
			c-0.6-0.8-1.5-1.2-2.5-1.2c-1.4,0-2.3,0.9-2.3,2.1s0.9,2.1,2.3,2.1C109.6,737.5,110.6,737.1,111.2,736.4z"/>
		<path d="M113.3,737.5c0.8,0,1.4-0.9,1.8-3.6l0.5-3.9h4.5v7.7h-0.5v-7.3H116l-0.5,3.5c-0.4,3-1.1,4-2.2,4V737.5z"/>
		<path d="M122.9,737.8v-7.7h0.5v7l4.8-7h0.4v7.7h-0.5v-7l-4.8,7H122.9z"/>
		<path d="M130.9,733.9c0-2.2,1.4-4,3.6-4c1.3,0,2,0.5,2.6,1.3l-0.4,0.3c-0.6-0.8-1.4-1.2-2.3-1.2c-2,0-3.2,1.6-3.2,3.6
			c0,2,1.2,3.6,3.2,3.6c0.9,0,1.6-0.3,2.3-1.2l0.4,0.3c-0.7,0.8-1.4,1.3-2.6,1.3C132.3,738,130.9,736.1,130.9,733.9z"/>
		<path d="M140.6,737.8v-7.3h-2.3v-0.4h5.1v0.4h-2.3v7.3H140.6z"/>
		<path d="M150.3,737.8v-0.9c-0.7,0.8-1.6,1.1-2.7,1.1c-1.4,0-2.7-0.9-2.7-2.6s1.3-2.6,2.7-2.6c1.1,0,2,0.4,2.7,1.1v-1.7
			c0-1.2-1-1.9-2.2-1.9c-1,0-1.8,0.4-2.5,1.2l-0.4-0.3c0.8-0.9,1.6-1.3,2.8-1.3c1.5,0,2.7,0.8,2.7,2.3v5.6H150.3z M150.3,736.4v-1.9
			c-0.6-0.8-1.5-1.2-2.5-1.2c-1.4,0-2.3,0.9-2.3,2.1s0.9,2.1,2.3,2.1C148.7,737.5,149.7,737.1,150.3,736.4z"/>
	</g>
	<g>
		<path d="M311.6,538.1v-10.7h3.7c2,0,3.1,1.4,3.1,3s-1.2,3-3.1,3h-3.2v4.6H311.6z M317.8,530.5c0-1.5-1-2.5-2.6-2.5h-3.2v5.1h3.2
			C316.8,533,317.8,532,317.8,530.5z"/>
		<path d="M320,534.3c0-2.2,1.6-4,3.6-4c2.4,0,3.6,1.9,3.6,4v0.2h-6.7c0,1.9,1.3,3.5,3.2,3.5c1.1,0,2-0.4,2.7-1.2l0.3,0.3
			c-0.8,0.8-1.7,1.3-3,1.3C321.6,538.3,320,536.6,320,534.3z M323.6,530.6c-2,0-3,1.8-3.1,3.3h6.2
			C326.7,532.5,325.7,530.6,323.6,530.6z"/>
		<path d="M335,538.1l-3.4-3.9l-1.6,1.5v2.4h-0.5v-7.7h0.5v4.7l5-4.7h0.7l-3.8,3.5l3.7,4.2H335z"/>
		<path d="M337.1,534.3c0-2.3,1.4-4,3.6-4c2.2,0,3.6,1.8,3.6,4c0,2.3-1.4,4.1-3.6,4.1C338.5,538.3,337.1,536.5,337.1,534.3z
			 M343.8,534.3c0-1.9-1.1-3.6-3.1-3.6c-2,0-3.1,1.7-3.1,3.6c0,1.9,1.1,3.6,3.1,3.6C342.7,537.9,343.8,536.2,343.8,534.3z"/>
		<path d="M352.9,538.1V531l-2.8,7.1h-0.1l-2.8-7.1v7.1h-0.5v-7.7h0.7l2.7,6.8l2.7-6.8h0.7v7.7H352.9z"/>
		<path d="M355.7,534.3c0-2.2,1.6-4,3.6-4c2.4,0,3.6,1.9,3.6,4v0.2h-6.7c0,1.9,1.3,3.5,3.2,3.5c1.1,0,2-0.4,2.7-1.2l0.3,0.3
			c-0.8,0.8-1.7,1.3-3,1.3C357.2,538.3,355.7,536.6,355.7,534.3z M359.3,530.6c-2,0-3,1.8-3.1,3.3h6.2
			C362.4,532.5,361.4,530.6,359.3,530.6z"/>
		<path d="M365.2,538.1v-7.7h0.5v3.5h4.7v-3.5h0.5v7.7h-0.5v-3.8h-4.7v3.8H365.2z"/>
		<path d="M372.6,537.8c0.8-0.1,1.4-0.8,1.8-3.5l0.5-3.9h4.5v7.3h1v2.4h-0.5v-2h-6.8v2h-0.5V537.8z M374.8,534.4
			c-0.3,2-0.7,3-1.3,3.3h5.3v-6.9h-3.6L374.8,534.4z"/>
		<path d="M387.4,538.1v-0.9c-0.7,0.8-1.6,1.1-2.7,1.1c-1.4,0-2.7-0.9-2.7-2.6s1.3-2.6,2.7-2.6c1.1,0,2,0.4,2.7,1.1v-1.7
			c0-1.2-1-1.9-2.2-1.9c-1,0-1.8,0.4-2.5,1.2l-0.4-0.3c0.8-0.9,1.6-1.3,2.8-1.3c1.5,0,2.7,0.8,2.7,2.3v5.6H387.4z M387.4,536.7v-1.9
			c-0.6-0.8-1.5-1.2-2.5-1.2c-1.4,0-2.3,0.9-2.3,2.1s0.9,2.1,2.3,2.1C385.8,537.9,386.8,537.5,387.4,536.7z"/>
		<path d="M396.8,538.1h-6.2v-7.7h0.5v7.3h4.7v-7.3h0.5v7.3h1v2.4h-0.5V538.1z"/>
		<path d="M399.3,538.1v-7.7h0.5v7l4.8-7h0.4v7.7h-0.5v-7l-4.8,7H399.3z"/>
		<path d="M407.6,538.1l2.3-3.3c-1.4,0-2.2-0.9-2.2-2.2c0-1.3,0.9-2.2,2.3-2.2h3.6v7.7H413v-3.3h-2.6l-2.2,3.3H407.6z M413,534.4
			v-3.6h-3.1c-1.1,0-1.8,0.7-1.8,1.8s0.6,1.8,1.8,1.8H413z"/>
		<path d="M426.6,538.1V531l-2.8,7.1h-0.1l-2.8-7.1v7.1h-0.5v-7.7h0.7l2.7,6.8l2.7-6.8h0.7v7.7H426.6z"/>
		<path d="M429.4,534.3c0-2.2,1.6-4,3.6-4c2.4,0,3.6,1.9,3.6,4v0.2H430c0,1.9,1.3,3.5,3.2,3.5c1.1,0,2-0.4,2.7-1.2l0.3,0.3
			c-0.8,0.8-1.7,1.3-3,1.3C431,538.3,429.4,536.6,429.4,534.3z M433,530.6c-2,0-3,1.8-3.1,3.3h6.2
			C436.1,532.5,435.2,530.6,433,530.6z"/>
		<path d="M440.4,538.1v-7.3h-2.3v-0.4h5.1v0.4h-2.3v7.3H440.4z"/>
		<path d="M444.6,534.3c0-2.3,1.4-4,3.6-4c2.2,0,3.6,1.8,3.6,4c0,2.3-1.4,4.1-3.6,4.1C446.1,538.3,444.6,536.5,444.6,534.3z
			 M451.3,534.3c0-1.9-1.1-3.6-3.1-3.6c-2,0-3.1,1.7-3.1,3.6c0,1.9,1.1,3.6,3.1,3.6C450.2,537.9,451.3,536.2,451.3,534.3z"/>
		<path d="M453.1,537.8c0.8-0.1,1.4-0.8,1.8-3.5l0.5-3.9h4.5v7.3h1v2.4h-0.5v-2h-6.8v2h-0.5V537.8z M455.3,534.4
			c-0.3,2-0.7,3-1.3,3.3h5.3v-6.9h-3.6L455.3,534.4z"/>
		<path d="M467.9,538.1v-0.9c-0.7,0.8-1.6,1.1-2.7,1.1c-1.4,0-2.7-0.9-2.7-2.6s1.3-2.6,2.7-2.6c1.1,0,2,0.4,2.7,1.1v-1.7
			c0-1.2-1-1.9-2.2-1.9c-1,0-1.8,0.4-2.5,1.2l-0.4-0.3c0.8-0.9,1.6-1.3,2.8-1.3c1.5,0,2.7,0.8,2.7,2.3v5.6H467.9z M467.9,536.7v-1.9
			c-0.6-0.8-1.5-1.2-2.5-1.2c-1.4,0-2.3,0.9-2.3,2.1s0.9,2.1,2.3,2.1C466.3,537.9,467.3,537.5,467.9,536.7z"/>
		<path d="M347.2,556.2l0.3-0.3c0.7,0.8,1.8,1.2,3.1,1.2c1.7,0,2.8-0.7,2.8-1.8c0-1.3-1.4-1.7-3-1.7h-1.9v-0.4h1.9
			c1.5,0,2.9-0.5,2.9-1.7c0-1-1.3-1.6-2.9-1.6c-1.2,0-2.1,0.3-2.8,1.1l-0.3-0.3c0.7-0.7,1.7-1.2,3.1-1.2c1.8,0,3.4,0.7,3.4,2
			c0,1.3-1.3,1.8-2.1,1.9c0.9,0.1,2.3,0.6,2.3,1.9c0,1.3-1.2,2.2-3.4,2.2C349,557.5,348,557.1,347.2,556.2z"/>
		<path d="M361.3,557.3v-0.9c-0.7,0.8-1.6,1.1-2.7,1.1c-1.4,0-2.7-0.9-2.7-2.6s1.3-2.6,2.7-2.6c1.1,0,2,0.4,2.7,1.1v-1.7
			c0-1.2-1-1.9-2.2-1.9c-1,0-1.8,0.4-2.5,1.2l-0.4-0.3c0.8-0.9,1.6-1.3,2.8-1.3c1.5,0,2.7,0.8,2.7,2.3v5.6H361.3z M361.3,555.9V554
			c-0.6-0.8-1.5-1.2-2.5-1.2c-1.4,0-2.3,0.9-2.3,2.1c0,1.2,0.9,2.1,2.3,2.1C359.7,557.1,360.7,556.7,361.3,555.9z"/>
		<path d="M370.7,557.3v-7.1l-2.8,7.1h-0.1l-2.8-7.1v7.1h-0.5v-7.7h0.7l2.7,6.8l2.7-6.8h0.7v7.7H370.7z"/>
		<path d="M373.6,553.5c0-2.2,1.6-4,3.6-4c2.4,0,3.6,1.9,3.6,4v0.2h-6.7c0,1.9,1.3,3.5,3.2,3.5c1.1,0,2-0.4,2.7-1.2l0.3,0.3
			c-0.8,0.8-1.7,1.3-3,1.3C375.1,557.5,373.6,555.8,373.6,553.5z M377.2,549.8c-2,0-3,1.8-3.1,3.3h6.2
			C380.3,551.7,379.3,549.8,377.2,549.8z"/>
		<path d="M382,557c0.8-0.1,1.4-0.8,1.8-3.5l0.5-3.9h4.5v7.3h1v2.4h-0.5v-2h-6.8v2H382V557z M384.2,553.6c-0.3,2-0.7,3-1.3,3.3h5.3
			V550h-3.6L384.2,553.6z"/>
		<path d="M390.7,557.1c0.8,0,1.4-0.9,1.8-3.6l0.5-3.9h4.5v7.7H397V550h-3.6l-0.5,3.5c-0.4,3-1.1,4-2.2,4V557.1z"/>
		<path d="M399.9,553.5c0-2.2,1.6-4,3.6-4c2.4,0,3.6,1.9,3.6,4v0.2h-6.7c0,1.9,1.3,3.5,3.2,3.5c1.1,0,2-0.4,2.7-1.2l0.3,0.3
			c-0.8,0.8-1.7,1.3-3,1.3C401.4,557.5,399.9,555.8,399.9,553.5z M403.5,549.8c-2,0-3,1.8-3.1,3.3h6.2
			C406.6,551.7,405.6,549.8,403.5,549.8z"/>
		<path d="M409.4,557.3v-7.7h0.5v3.5h4.7v-3.5h0.5v7.7h-0.5v-3.8h-4.7v3.8H409.4z"/>
		<path d="M417.9,557.3v-7.7h0.5v7l4.8-7h0.4v7.7h-0.5v-7l-4.8,7H417.9z"/>
		<path d="M426.1,557.3l2.3-3.3c-1.4,0-2.2-0.9-2.2-2.2c0-1.3,0.9-2.2,2.3-2.2h3.6v7.7h-0.5V554h-2.6l-2.2,3.3H426.1z M431.5,553.6
			V550h-3.1c-1.1,0-1.8,0.7-1.8,1.8s0.6,1.8,1.8,1.8H431.5z"/>
		<path d="M328.7,576.5v-7.3H324v7.3h-0.5v-7.7h5.7v7.7H328.7z"/>
		<path d="M332.4,575.2v4.3H332v-10.7h0.5v1.3c0.5-0.8,1.6-1.5,2.8-1.5c2.1,0,3.5,1.6,3.5,4c0,2.4-1.4,4.1-3.5,4.1
			C334.1,576.7,333.1,576.1,332.4,575.2z M338.2,572.7c0-2-1-3.6-2.9-3.6c-1.2,0-2.3,0.7-2.8,1.5v4.1c0.5,0.8,1.6,1.6,2.8,1.6
			C337.1,576.3,338.2,574.7,338.2,572.7z"/>
		<path d="M340.5,572.7c0-2.3,1.4-4,3.6-4c2.2,0,3.6,1.8,3.6,4c0,2.3-1.4,4.1-3.6,4.1C342,576.7,340.5,574.9,340.5,572.7z
			 M347.2,572.7c0-1.9-1.1-3.6-3.1-3.6c-2,0-3.1,1.7-3.1,3.6c0,1.9,1.1,3.6,3.1,3.6C346.1,576.3,347.2,574.6,347.2,572.7z"/>
		<path d="M354.8,569.2h-4.3v7.3h-0.5v-7.7h4.7V569.2z"/>
		<path d="M357.2,575.2v4.3h-0.5v-10.7h0.5v1.3c0.5-0.8,1.6-1.5,2.8-1.5c2.1,0,3.5,1.6,3.5,4c0,2.4-1.4,4.1-3.5,4.1
			C358.8,576.7,357.8,576.1,357.2,575.2z M362.9,572.7c0-2-1-3.6-2.9-3.6c-1.2,0-2.3,0.7-2.8,1.5v4.1c0.5,0.8,1.6,1.6,2.8,1.6
			C361.8,576.3,362.9,574.7,362.9,572.7z"/>
		<path d="M365.3,572.7c0-2.2,1.6-4,3.6-4c2.4,0,3.6,1.9,3.6,4v0.2h-6.7c0,1.9,1.3,3.5,3.2,3.5c1.1,0,2-0.4,2.7-1.2l0.3,0.3
			c-0.8,0.8-1.7,1.3-3,1.3C366.8,576.7,365.3,575,365.3,572.7z M368.9,569c-2,0-3,1.8-3.1,3.3h6.2C372,570.9,371,569,368.9,569z"/>
		<path d="M374.4,572.7c0-2.2,1.4-4,3.6-4c1.3,0,2,0.5,2.6,1.3l-0.4,0.3c-0.6-0.8-1.4-1.2-2.3-1.2c-2,0-3.2,1.6-3.2,3.6
			c0,2,1.2,3.6,3.2,3.6c0.9,0,1.6-0.3,2.3-1.2l0.4,0.3c-0.7,0.8-1.4,1.3-2.6,1.3C375.8,576.7,374.4,574.9,374.4,572.7z"/>
		<path d="M382.3,572.7c0-2.2,1.4-4,3.6-4c1.3,0,2,0.5,2.6,1.3l-0.4,0.3c-0.6-0.8-1.4-1.2-2.3-1.2c-2,0-3.2,1.6-3.2,3.6
			c0,2,1.2,3.6,3.2,3.6c0.9,0,1.6-0.3,2.3-1.2l0.4,0.3c-0.7,0.8-1.4,1.3-2.6,1.3C383.7,576.7,382.3,574.9,382.3,572.7z"/>
		<path d="M390.6,576.5v-7.7h0.5v7l4.8-7h0.4v7.7h-0.5v-7l-4.8,7H390.6z"/>
		<path d="M399.5,575.2v4.3H399v-10.7h0.5v1.3c0.5-0.8,1.6-1.5,2.8-1.5c2.1,0,3.5,1.6,3.5,4c0,2.4-1.4,4.1-3.5,4.1
			C401.1,576.7,400.1,576.1,399.5,575.2z M405.2,572.7c0-2-1-3.6-2.9-3.6c-1.2,0-2.3,0.7-2.8,1.5v4.1c0.5,0.8,1.6,1.6,2.8,1.6
			C404.2,576.3,405.2,574.7,405.2,572.7z"/>
		<path d="M407.6,572.7c0-2.3,1.4-4,3.6-4c2.2,0,3.6,1.8,3.6,4c0,2.3-1.4,4.1-3.6,4.1C409,576.7,407.6,574.9,407.6,572.7z
			 M414.3,572.7c0-1.9-1.1-3.6-3.1-3.6c-2,0-3.1,1.7-3.1,3.6c0,1.9,1.1,3.6,3.1,3.6C413.2,576.3,414.3,574.6,414.3,572.7z"/>
		<path d="M417.1,576.5v-7.7h3.7c1.2,0,2,0.7,2,2c0,0.9-0.6,1.6-1.2,1.8c0.7,0.2,1.3,1,1.3,1.9c0,1.3-0.8,2.1-2.1,2.1H417.1z
			 M422.4,570.8c0-0.9-0.6-1.6-1.6-1.6h-3.1v3.1h3.1C421.8,572.3,422.4,571.7,422.4,570.8z M422.5,574.5c0-0.9-0.6-1.7-1.7-1.7h-3.2
			v3.3h3.2C421.9,576.1,422.5,575.5,422.5,574.5z"/>
		<path d="M430.6,576.5v-0.9c-0.7,0.8-1.6,1.1-2.7,1.1c-1.4,0-2.7-0.9-2.7-2.6s1.3-2.6,2.7-2.6c1.1,0,2,0.4,2.7,1.1V571
			c0-1.2-1-1.9-2.2-1.9c-1,0-1.8,0.4-2.5,1.2l-0.4-0.3c0.8-0.9,1.6-1.3,2.8-1.3c1.5,0,2.7,0.8,2.7,2.3v5.6H430.6z M430.6,575.1v-1.9
			c-0.6-0.8-1.5-1.2-2.5-1.2c-1.4,0-2.3,0.9-2.3,2.1s0.9,2.1,2.3,2.1C429,576.3,430,575.9,430.6,575.1z"/>
		<path d="M433.8,576.5v-7.7h0.5v3.5h4.7v-3.5h0.5v7.7H439v-3.8h-4.7v3.8H433.8z"/>
		<path d="M442.3,576.5v-7.7h0.5v7l4.8-7h0.4v7.7h-0.5v-7l-4.8,7H442.3z"/>
		<path d="M450.5,576.5l2.3-3.3c-1.4,0-2.2-0.9-2.2-2.2c0-1.3,0.9-2.2,2.3-2.2h3.6v7.7h-0.5v-3.3h-2.6l-2.2,3.3H450.5z M455.9,572.8
			v-3.6h-3.1c-1.1,0-1.8,0.7-1.8,1.8s0.6,1.8,1.8,1.8H455.9z"/>
		<path d="M371.4,595.7v-7.1l-2.8,7.1h-0.1l-2.8-7.1v7.1h-0.5V588h0.7l2.7,6.8l2.7-6.8h0.7v7.7H371.4z"/>
		<path d="M374.6,595.7V588h0.5v7l4.8-7h0.4v7.7h-0.5v-7l-4.8,7H374.6z"/>
		<path d="M382.6,591.9c0-2.3,1.4-4,3.6-4c2.2,0,3.6,1.8,3.6,4c0,2.3-1.4,4.1-3.6,4.1C384.1,595.9,382.6,594.1,382.6,591.9z
			 M389.3,591.9c0-1.9-1.1-3.6-3.1-3.6c-2,0-3.1,1.7-3.1,3.6c0,1.9,1.1,3.6,3.1,3.6C388.2,595.5,389.3,593.8,389.3,591.9z"/>
		<path d="M397.4,595.7v-7.3h-4.7v7.3h-0.5V588h5.7v7.7H397.4z"/>
		<path d="M400.6,595.7V588h0.5v7l4.8-7h0.4v7.7h-0.5v-7l-4.8,7H400.6z"/>
		<path d="M409.1,595.7V588h0.5v7l4.8-7h0.4v7.7h-0.5v-7l-4.8,7H409.1z"/>
	</g>
	<path class="st1" d="M264.3,22h-20.8c-3.8,0-6.2,4.1-4.3,7.5l10.4,18c1.9,3.3,6.7,3.3,8.6,0l10.4-18C270.5,26.1,268.1,22,264.3,22z
		"/>
	<line class="st5" x1="269.6" y1="255.2" x2="299.9" y2="255.2"/>
	<circle class="st2" cx="299.9" cy="255.2" r="2.5"/>
	<line class="st5" x1="269.5" y1="562.4" x2="299.8" y2="562.4"/>
	<circle class="st2" cx="299.8" cy="562.4" r="2.5"/>
	<line class="st5" x1="238.4" y1="408.8" x2="208.1" y2="408.8"/>
	<circle class="st2" cx="208.1" cy="408.8" r="2.5"/>
	<line class="st5" x1="240" y1="714.6" x2="209.7" y2="714.6"/>
	<circle class="st2" cx="209.7" cy="714.6" r="2.5"/>
	<line class="st5" x1="238.4" y1="102.6" x2="208.1" y2="102.6"/>
	<circle class="st2" cx="208.1" cy="102.6" r="2.5"/>
</g>
<g id="Слой_2">
</g>
</svg>
