<?xml version="1.0" encoding="utf-8"?>
<!-- Generator: Adobe Illustrator 26.5.0, SVG Export Plug-In . SVG Version: 6.00 Build 0)  -->
<svg version="1.1" xmlns="http://www.w3.org/2000/svg" xmlns:xlink="http://www.w3.org/1999/xlink" x="0px" y="0px"
	 viewBox="0 0 813.8 326.9" style="enable-background:new 0 0 813.8 326.9;" xml:space="preserve">
<style type="text/css">
	.st0{fill:url(#SVGID_1_);}
	.st1{fill:#FFFFFF;stroke:#47CFA7;stroke-width:3;stroke-miterlimit:10;}
	.st2{fill:#47CFA7;}
	.st3{fill:#47CFA7;stroke:#FFFFFF;stroke-width:3;stroke-miterlimit:10;}
	.st4{fill:#FFFFFF;}
	.st5{fill:none;stroke:#47CFA7;stroke-miterlimit:10;}
	.st6{fill:url(#SVGID_00000043430428821071679350000002892176128450267835_);}
	.st7{fill:none;stroke:#000000;stroke-miterlimit:10;}
	.st8{fill:#F5DC2F;}
	.st9{fill:#F39100;}
	.st10{fill:#CD116B;}
	.st11{fill:#FFFFFF;stroke:#E6E6E6;stroke-width:6;stroke-miterlimit:10;}
	.st12{fill:#B5668F;stroke:#513041;stroke-width:6;stroke-miterlimit:10;}
	.st13{fill:none;stroke:#513041;stroke-width:6;stroke-miterlimit:10;}
	.st14{fill:#F2F2F2;}
	.st15{fill:#B5668F;}
</style>
<g id="Слой_1">
	<linearGradient id="SVGID_1_" gradientUnits="userSpaceOnUse" x1="30.9531" y1="163.7169" x2="711.9911" y2="163.7169">
		<stop  offset="4.748603e-02" style="stop-color:#47CFA7"/>
		<stop  offset="1" style="stop-color:#00666B"/>
	</linearGradient>
	<rect x="31" y="152.2" class="st0" width="681" height="23"/>
	<g>
		<circle class="st1" cx="100.8" cy="163.7" r="15.7"/>
		<circle class="st2" cx="100.8" cy="163.7" r="6"/>
		<g>
			<circle class="st2" cx="100.8" cy="70.5" r="51.3"/>
			<polygon class="st2" points="100.8,142.8 125,100.8 76.5,100.8 			"/>
			<circle class="st3" cx="100.8" cy="70.5" r="43"/>
			<g>
				<path class="st4" d="M120.2,65.5c0-2.7-1.9-4.9-4.4-5.6c-0.2-0.1-0.4-0.1-0.6-0.2c0-1.3,0-2.5,0-3.7c-0.1-4.9-3-9.1-7.6-10.8
					c-1-0.4-2.1-0.5-3.1-0.8c-2.4,0-4.9,0-7.3,0c-0.1,0-0.2,0.1-0.3,0.1C91,45.2,86.6,50.1,86.5,56c0,2.9,0,5.7,0,8.6
					c0,1.6,0.9,2.9,2.4,3.4c0.3,0.1,0.4,0.3,0.4,0.6c0.5,4,2.6,7,6.2,8.9c0.3,0.1,0.4,0.3,0.3,0.6c-0.1,1.6-1.3,3.1-2.9,3.4
					c-0.7,0.1-1.3,0.1-2,0.2c-3.9,0.5-7.2,3.8-7.6,7.7c-0.2,2-0.1,4-0.1,6c0,0.7,0.3,1.1,0.9,1.1c0.5,0,0.9-0.4,0.9-1.1
					c0-1.6,0-3.2,0-4.8c0-1.9,0.6-3.5,1.9-4.9c1.3-1.4,2.8-2.2,4.7-2.3c0,1.1,0,2.1,0,3.2c0,0.4-0.1,0.6-0.5,0.7
					c-1.4,0.6-2.2,2.1-1.9,3.6c0.3,1.5,1.6,2.6,3.1,2.6c1.6,0,2.9-1,3.3-2.5c0.3-1.6-0.4-3.1-1.9-3.7c-0.3-0.1-0.4-0.3-0.4-0.6
					c0-0.8,0-1.7,0-2.5c0-0.8,0-0.8,0.8-1.1c0.2-0.1,0.5-0.2,0.6-0.3c0.3-0.2,0.6-0.1,0.8,0.1c1.5,1.2,3.1,2.4,4.6,3.5
					c0.4,0.3,0.8,0.3,1.2,0c0.9-0.7,1.8-1.4,2.7-2.1c0.4-0.3,0.5-0.9,0.2-1.3c-0.3-0.4-0.8-0.4-1.3-0.1c-0.4,0.3-0.9,0.7-1.3,1
					c-1,0.7-1,0.7-1.9,0c-1.1-0.9-2.3-1.7-3.3-2.5c0.4-1,0.8-1.9,1.1-2.9c0.8,0.1,1.6,0.3,2.4,0.3c0.8,0,1.7,0,2.5-0.1
					c5-0.6,9.3-5,9.8-10c0.2-2.5,0.1-5,0.1-7.6c0-0.5-0.4-0.8-0.8-0.8c-0.2,0-0.4,0-0.6,0c-1.3,0-2.3-0.6-2.9-1.9
					c-0.2-0.5-0.3-1.2-0.4-1.8c-0.1-0.7-0.7-1-1.3-0.7c-0.1,0.1-0.2,0.1-0.3,0.2c-1.8,1.3-3.7,2.3-5.8,3.1c-1.9,0.8-3.9,1.3-6,1.6
					c-0.1,0-0.1,0-0.2,0c-0.6,0.1-0.9,0.5-0.8,1c0.1,0.5,0.5,0.8,1.1,0.7c4-0.6,7.8-1.9,11.2-4c0.2-0.1,0.3-0.2,0.6-0.3
					c0.7,2.3,2.2,3.6,4.5,3.8c0,2.2,0.2,4.3,0,6.4c-0.4,4.5-4.4,8.3-9,8.6C95.7,77.4,91,73,91,67.1c0-1.9,0-3.8,0-5.7
					c0-0.7-0.3-1.1-0.9-1.1c-0.5,0-0.8,0.4-0.8,1c0,1.5,0,2.9,0,4.4c0,0.2,0,0.3,0,0.5c-0.7-0.4-1-1-1-1.7c0-2.9,0-5.8,0-8.6
					c0.1-4.5,3.2-8.5,7.7-9.4c2.8-0.6,5.6-0.3,8.5-0.2c0.4,0,0.8,0.1,1.3,0.2c4.6,1.1,7.8,5,7.8,9.8c0,2.7,0,5.3,0,8
					c0,0.2,0,0.3,0,0.5c0.1,0.4,0.3,0.7,0.8,0.7c0.4,0,0.8-0.2,0.9-0.6c0.1-0.2,0.1-0.4,0.1-0.7c0-0.9,0-1.7,0-2.7
					c0.2,0,0.3,0.1,0.5,0.1c1.7,0.6,2.9,2.2,2.9,4.1c0,3.2,0,6.3,0,9.5c0,0.2,0,0.3,0,0.5c-2.2,0.2-4-0.4-5.4-2
					c-0.4-0.5-0.9-0.5-1.3-0.2c-0.4,0.3-0.4,0.9,0,1.3c0.9,1.1,2.1,1.8,3.5,2.3c1.4,0.4,2.8,0.3,4.2,0.3c0.5,0,0.8-0.4,0.8-1
					C120.2,72.9,120.3,69.2,120.2,65.5z M94,90.2c0,0.8-0.7,1.5-1.5,1.5c-0.8,0-1.5-0.7-1.5-1.5c0-0.8,0.7-1.5,1.5-1.5
					C93.3,88.7,94,89.4,94,90.2z"/>
				<path class="st4" d="M110.5,87.1c-0.3-0.1-0.4-0.2-0.4-0.6c0-1.3,0-2.7,0-4c0-0.7-0.2-0.9-0.9-1c-1.2-0.2-2.1-0.7-2.7-1.7
					c-0.3-0.5-0.8-0.6-1.3-0.4c-0.4,0.3-0.5,0.8-0.2,1.3c0.7,1.1,1.7,1.8,3,2.2c0.2,0.1,0.4,0.3,0.4,0.4c0,1.2,0,2.3,0,3.5
					c-0.2,0.1-0.2,0.1-0.3,0.1c-2.1,0.6-3.4,2.4-3.5,4.5c0,1.3,0,2.5,0,3.8c0,0.7,0.4,1.1,0.9,1.1c0.5,0,0.8-0.4,0.8-1.1
					c0-1.2,0-2.4,0-3.6c0-0.4,0-0.7,0.2-1.1c0.4-1.3,1.8-2.2,3.1-2c1.5,0.2,2.6,1.4,2.6,2.8c0,1.3,0,2.6,0,3.9c0,0.6,0.3,1,0.9,1
					c0.5,0,0.9-0.4,0.9-1c0-1.3,0-2.6,0-3.9C113.8,89.5,112.5,87.7,110.5,87.1z"/>
				<path class="st4" d="M117.8,87.3c-0.7-1.7-1.8-3.1-3.3-4.2c-0.4-0.3-0.8-0.3-1.1,0c-0.3,0.3-0.4,0.6-0.2,1
					c0.1,0.2,0.3,0.4,0.5,0.5c1.7,1.3,2.7,3,2.9,5.1c0.1,1.9,0.1,3.8,0.1,5.6c0,0.7,0.3,1.1,0.9,1.1c0.5,0,0.9-0.4,0.9-1.1
					c0-0.9,0-1.7,0-2.6c0-0.3,0-0.7,0-1C118.4,90.3,118.4,88.8,117.8,87.3z"/>
			</g>
		</g>
	</g>
	<g>
		<circle class="st1" cx="253.2" cy="163.7" r="15.7"/>
		<circle class="st2" cx="253.2" cy="163.7" r="6"/>
		<g>
			<circle class="st2" cx="253.2" cy="255.9" r="51.3"/>
			<polygon class="st2" points="253.2,183.5 228.9,225.5 277.4,225.5 			"/>
			<circle class="st3" cx="253.2" cy="255.9" r="43"/>
			<g>
				<path class="st4" d="M284.8,242.5c0-1.9-0.8-2.7-2.7-2.7c-7.9,0-15.9,0-23.8,0c-0.3,0-0.5,0-0.8,0c-0.1-1,0.2-2-1.1-2.2
					c0-0.6,0-1.1,0-1.7c0-0.5,0-1.1,0-1.6c-0.1-1.3-0.9-2.1-2.2-2.2c-0.6,0-1.2,0-1.9,0c-1.6,0-2.4,0.8-2.5,2.4c0,1,0,2,0,3
					c-1.3,0.2-1,1.3-1.1,2.2c-0.3,0-0.6,0-0.8,0c-7.9,0-15.8,0-23.7,0c-1.3,0-2.3,0.4-2.8,1.7c0,1.1,0,2.1,0,3.2
					c0.5,1.3,1.4,1.7,2.8,1.7c2.5-0.1,4.9,0,7.4,0c0.2,0,0.5,0,0.8,0c0,0.9,0,1.7,0,2.5c0,0.4-0.1,0.6-0.4,0.8
					c-6.1,3.8-8.9,9.2-8.1,16.3c0.8,7.9,7.9,14.1,15.8,14.2c1.1,0,1.5-0.3,1.5-1.4c0-1,0-2,0-3c4.6-0.7,8-3,9.9-7.2
					c1.9-4.3,1.2-8.4-1.5-12.1c1.6-1.4,2.2-1.7,5.1-1.3c0.7,0.1,1.4,0.8,2.1,1.2c-2.7,3.9-3.4,8-1.5,12.2c1.9,4.3,5.3,6.6,9.9,7.2
					c0,1,0,2.1,0,3.1c0,0.9,0.4,1.3,1.3,1.3c0.6,0,1.2,0,1.8-0.1c9.7-1.1,16.3-10.7,13.9-20.2c-1.1-4.5-3.8-7.9-7.7-10.3
					c-0.2-0.1-0.5-0.3-0.5-0.5c0-0.9,0-1.8,0-2.8c0.9,0,1.8,0,2.6,0c2,0,4,0,6,0c1.4,0,2.3-0.9,2.3-2.3
					C284.8,243.5,284.8,243,284.8,242.5z M232.4,244.1c-2.9,0-5.7,0-8.6,0c0-0.7,0-1.4,0-2.1c2.9,0,5.7,0,8.6,0
					C232.4,242.7,232.4,243.4,232.4,244.1z M246.7,242c0.7,0,1.4,0,2.1,0c0,0.7,0,1.4,0,2.1c-0.7,0-1.4,0-2.1,0
					C246.7,243.4,246.7,242.7,246.7,242z M238.9,278c-0.9-0.2-1.8-0.3-2.6-0.5c-5.5-1.5-9.6-6.3-10.3-11.9c-0.7-5.7,2.1-11.3,7-14.1
					c1.1-0.6,1.6-1.5,1.6-2.8c-0.1-2.2,0-4.4,0-6.7c3.3,0,6.5,0,9.8,0c0,0.2,0,0.4,0,0.7c0,2.1,0.1,4.2-0.1,6.4
					c-0.1,1-0.6,2-0.9,3.1c0,0.1-0.4,0.1-0.6,0.1c-4.4-0.9-8.3,0.1-11.5,3.4c-3.3,3.5-4.3,7.7-2.7,12.2c1.6,4.6,5,7.2,9.8,8
					c0.1,0,0.2,0,0.2,0c0,0,0,0,0.1,0.1C238.9,276.5,238.9,277.2,238.9,278z M249.9,263.8c0,5.4-4.4,9.8-9.8,9.8
					c-5.4,0-9.8-4.3-9.9-9.8c0-5.4,4.3-9.8,9.8-9.9C245.4,254,249.9,258.4,249.9,263.8z M249.9,253.2c0,0.1-0.1,0.3-0.3,0.4
					c-0.5,0.4-1,0.8-1.5,1.1c-0.9-0.6-1.7-1.2-2.6-1.7c0.4-1.1,0.9-2.1,1-3.2c0.2-1.1,0-2.2,0-3.4c0.8,0,1.5,0,2.2,0
					c0.1,0.9-0.3,2,1.1,2.2C249.9,250.1,249.9,251.7,249.9,253.2z M252.1,234.4c0.7,0,1.4,0,2.1,0c0,1.1,0,2.1,0,3.2
					c-0.7,0-1.4,0-2.1,0C252.1,236.5,252.1,235.5,252.1,234.4z M254.2,252.9c-0.7,0-1.4,0-2.1,0c0-1.4,0-2.8,0-4.3
					c0.7,0,1.4,0,2.1,0C254.2,250,254.2,251.4,254.2,252.9z M255.3,246.3c-1.5,0-2.9,0-4.3,0c0-2.2,0-4.3,0-6.5c1.4,0,2.8,0,4.3,0
					C255.3,242,255.3,244.1,255.3,246.3z M257.6,242c0.7,0,1.4,0,2.1,0c0,0.7,0,1.3,0,2.1c-0.7,0-1.4,0-2.1,0
					C257.6,243.5,257.6,242.8,257.6,242z M256.7,253.6c-0.1-0.1-0.2-0.3-0.2-0.4c0-1.5,0-3.1,0-4.6c1.4-0.2,1-1.3,1.1-2.2
					c0.7,0,1.4,0,2.2,0c0,1.2-0.1,2.3,0,3.4c0.2,1.1,0.7,2.1,1,3.2c-0.8,0.6-1.7,1.2-2.6,1.8C257.8,254.4,257.2,254,256.7,253.6z
					 M266.3,273.6c-5.4,0-9.8-4.4-9.8-9.8c0-5.4,4.4-9.8,9.8-9.8c5.4,0,9.8,4.4,9.8,9.9C276.1,269.3,271.7,273.6,266.3,273.6z
					 M280.3,261.9c1.1,7.7-4.2,14.4-11.1,15.8c-0.6,0.1-1.2,0.2-1.8,0.3c0-0.8,0-1.5,0-2.2c3.8-0.5,6.8-2.2,8.9-5.4
					c1.7-2.6,2.3-5.4,1.8-8.4c-0.6-3.5-2.4-6.3-5.4-8.3c-3-1.9-6.3-2.3-9.8-1.4c-0.5-1.4-1.1-2.7-1-4.2c0.1-2,0-4,0-6
					c3.3,0,6.5,0,9.8,0c0,0.2,0,0.4,0,0.6c0,2.1,0,4.2,0,6.4c0,1.1,0.4,1.8,1.4,2.4C277.2,253.7,279.7,257.2,280.3,261.9z
					 M282.6,244.1c-2.9,0-5.7,0-8.6,0c0-0.7,0-1.4,0-2.1c2.9,0,5.7,0,8.6,0C282.6,242.7,282.6,243.4,282.6,244.1z"/>
				<path class="st4" d="M240.1,256.2c-4.2,0-7.6,3.5-7.6,7.7c0,4.2,3.5,7.6,7.6,7.6c4.2,0,7.7-3.5,7.6-7.7
					C247.7,259.6,244.3,256.2,240.1,256.2z M240.1,269.3c-3,0-5.4-2.5-5.4-5.4c0-3,2.4-5.5,5.4-5.5c3,0,5.5,2.4,5.5,5.4
					C245.5,266.8,243.1,269.3,240.1,269.3z"/>
				<path class="st4" d="M266.3,256.2c-4.2,0-7.7,3.4-7.7,7.6c0,4.2,3.4,7.7,7.7,7.7c4.2,0,7.6-3.5,7.6-7.6
					C273.9,259.6,270.5,256.2,266.3,256.2z M266.3,269.3c-3,0-5.5-2.4-5.5-5.5c0-3,2.4-5.5,5.5-5.4c3,0,5.4,2.4,5.4,5.5
					C271.7,266.8,269.3,269.3,266.3,269.3z"/>
			</g>
		</g>
	</g>
	<g>
		<path d="M86.4,236v-10.2h-7.3V236h-0.5v-10.7h8.3V236H86.4z"/>
		<path d="M90.1,234.7v4.3h-0.5v-10.7h0.5v1.3c0.5-0.8,1.6-1.5,2.8-1.5c2.1,0,3.5,1.6,3.5,4c0,2.4-1.4,4.1-3.5,4.1
			C91.8,236.2,90.8,235.6,90.1,234.7z M95.9,232.1c0-2-1-3.6-2.9-3.6c-1.2,0-2.3,0.7-2.8,1.5v4.1c0.5,0.8,1.6,1.6,2.8,1.6
			C94.8,235.7,95.9,234.1,95.9,232.1z"/>
		<path d="M98.7,236v-7.7h0.5v7l4.8-7h0.4v7.7h-0.5v-7l-4.8,7H98.7z"/>
		<path d="M106.7,232.1c0-2.2,1.6-4,3.6-4c2.4,0,3.6,1.9,3.6,4v0.2h-6.7c0,1.9,1.3,3.5,3.2,3.5c1.1,0,2-0.4,2.7-1.2l0.3,0.3
			c-0.8,0.8-1.7,1.3-3,1.3C108.2,236.2,106.7,234.5,106.7,232.1z M110.3,228.5c-2,0-3,1.8-3.1,3.3h6.2
			C113.4,230.4,112.4,228.5,110.3,228.5z"/>
		<path d="M122.5,236v-7.1l-2.8,7.1h-0.1l-2.8-7.1v7.1h-0.5v-7.7h0.7l2.7,6.8l2.7-6.8h0.7v7.7H122.5z"/>
		<path d="M29.5,255.2l-3.4-3.9l-1.6,1.5v2.4H24v-7.7h0.5v4.7l5-4.7h0.7l-3.8,3.5l3.7,4.2H29.5z"/>
		<path d="M32,255.2v-7.7h3.7c1.2,0,2,0.7,2,2c0,0.9-0.6,1.6-1.2,1.8c0.7,0.2,1.3,1,1.3,1.9c0,1.3-0.8,2.1-2.1,2.1H32z M37.2,249.4
			c0-0.9-0.6-1.6-1.6-1.6h-3.1v3.1h3.1C36.6,251,37.2,250.3,37.2,249.4z M37.3,253.1c0-0.9-0.6-1.7-1.7-1.7h-3.2v3.3h3.2
			C36.7,254.8,37.3,254.1,37.3,253.1z"/>
		<path d="M45.4,255.2v-0.9c-0.7,0.8-1.6,1.1-2.7,1.1c-1.4,0-2.7-0.9-2.7-2.6s1.3-2.6,2.7-2.6c1.1,0,2,0.4,2.7,1.1v-1.7
			c0-1.2-1-1.9-2.2-1.9c-1,0-1.8,0.4-2.5,1.2l-0.4-0.3c0.8-0.9,1.6-1.3,2.8-1.3c1.5,0,2.7,0.8,2.7,2.3v5.6H45.4z M45.4,253.8v-1.9
			c-0.6-0.8-1.5-1.2-2.5-1.2c-1.4,0-2.3,0.9-2.3,2.1c0,1.2,0.9,2.1,2.3,2.1C43.8,254.9,44.8,254.5,45.4,253.8z"/>
		<path d="M47.5,254.9c0.8,0,1.4-0.9,1.8-3.6l0.5-3.9h4.5v7.7h-0.5v-7.3h-3.6l-0.5,3.5c-0.4,3-1.1,4-2.2,4V254.9z"/>
		<path d="M57.1,255.2v-7.7h0.5v7l4.8-7h0.4v7.7h-0.5v-7l-4.8,7H57.1z"/>
		<path d="M69.9,248.8v-4.3h0.5v4.2c0.4-0.8,1.2-1.5,2.1-1.5c1.6,0,2.6,1.6,2.6,4c0,2.4-1.1,4.1-2.6,4.1c-0.9,0-1.6-0.6-2.1-1.5v4.3
			h-0.5v-4.2c-0.4,0.8-1.2,1.5-2.1,1.5c-1.6,0-2.6-1.6-2.6-4c0-2.4,1.1-4.1,2.6-4.1C68.6,247.3,69.4,247.9,69.9,248.8z M65.6,251.3
			c0,2,0.8,3.6,2.2,3.6c0.9,0,1.7-0.7,2.1-1.5v-4.1c-0.4-0.8-1.2-1.6-2.1-1.6C66.3,247.7,65.6,249.3,65.6,251.3z M74.6,251.3
			c0-2-0.8-3.6-2.2-3.6c-0.9,0-1.7,0.7-2.1,1.5v4.1c0.4,0.8,1.2,1.6,2.1,1.6C73.9,254.9,74.6,253.3,74.6,251.3z"/>
		<path d="M77.4,255.2v-7.7h0.5v7l4.8-7h0.4v7.7h-0.5v-7l-4.8,7H77.4z"/>
		<path d="M92.1,255.2h-6.2v-7.7h0.5v7.3h4.7v-7.3h0.5v7.3h1v2.4h-0.5V255.2z"/>
		<path d="M94.2,251.3c0-2.3,1.4-4,3.6-4c2.2,0,3.6,1.8,3.6,4c0,2.3-1.4,4.1-3.6,4.1C95.6,255.4,94.2,253.6,94.2,251.3z
			 M100.9,251.3c0-1.9-1.1-3.6-3.1-3.6c-2,0-3.1,1.7-3.1,3.6c0,1.9,1.1,3.6,3.1,3.6C99.8,254.9,100.9,253.2,100.9,251.3z"/>
		<path d="M104.2,253.9v4.3h-0.5v-10.7h0.5v1.3c0.5-0.8,1.6-1.5,2.8-1.5c2.1,0,3.5,1.6,3.5,4c0,2.4-1.4,4.1-3.5,4.1
			C105.8,255.4,104.8,254.8,104.2,253.9z M109.9,251.3c0-2-1-3.6-2.9-3.6c-1.2,0-2.3,0.7-2.8,1.5v4.1c0.5,0.8,1.6,1.6,2.8,1.6
			C108.9,254.9,109.9,253.3,109.9,251.3z"/>
		<path d="M112.3,251.3c0-2.3,1.4-4,3.6-4c2.2,0,3.6,1.8,3.6,4c0,2.3-1.4,4.1-3.6,4.1C113.7,255.4,112.3,253.6,112.3,251.3z
			 M119,251.3c0-1.9-1.1-3.6-3.1-3.6c-2,0-3.1,1.7-3.1,3.6c0,1.9,1.1,3.6,3.1,3.6C117.9,254.9,119,253.2,119,251.3z"/>
		<path d="M121.8,255.2v-7.7h3.7c1.2,0,2,0.7,2,2c0,0.9-0.6,1.6-1.2,1.8c0.7,0.2,1.3,1,1.3,1.9c0,1.3-0.8,2.1-2.1,2.1H121.8z
			 M127,249.4c0-0.9-0.6-1.6-1.6-1.6h-3.1v3.1h3.1C126.5,251,127,250.3,127,249.4z M127.2,253.1c0-0.9-0.6-1.7-1.7-1.7h-3.2v3.3h3.2
			C126.6,254.8,127.2,254.1,127.2,253.1z"/>
		<path d="M135.3,255.2v-0.9c-0.7,0.8-1.6,1.1-2.7,1.1c-1.4,0-2.7-0.9-2.7-2.6s1.3-2.6,2.7-2.6c1.1,0,2,0.4,2.7,1.1v-1.7
			c0-1.2-1-1.9-2.2-1.9c-1,0-1.8,0.4-2.5,1.2l-0.4-0.3c0.8-0.9,1.6-1.3,2.8-1.3c1.5,0,2.7,0.8,2.7,2.3v5.6H135.3z M135.3,253.8v-1.9
			c-0.6-0.8-1.5-1.2-2.5-1.2c-1.4,0-2.3,0.9-2.3,2.1c0,1.2,0.9,2.1,2.3,2.1C133.7,254.9,134.7,254.5,135.3,253.8z"/>
		<path d="M138.5,255.2v-7.7h0.5v3.5h4.7v-3.5h0.5v7.7h-0.5v-3.8H139v3.8H138.5z"/>
		<path d="M146.9,255.2v-7.7h0.5v3.5h4.7v-3.5h0.5v7.7h-0.5v-3.8h-4.7v3.8H146.9z"/>
		<path d="M155,251.3c0-2.3,1.4-4,3.6-4c2.2,0,3.6,1.8,3.6,4c0,2.3-1.4,4.1-3.6,4.1C156.4,255.4,155,253.6,155,251.3z M161.7,251.3
			c0-1.9-1.1-3.6-3.1-3.6c-2,0-3.1,1.7-3.1,3.6c0,1.9,1.1,3.6,3.1,3.6C160.6,254.9,161.7,253.2,161.7,251.3z"/>
		<path d="M169.3,247.9H165v7.3h-0.5v-7.7h4.7V247.9z"/>
		<path d="M170.7,251.3c0-2.3,1.4-4,3.6-4c2.2,0,3.6,1.8,3.6,4c0,2.3-1.4,4.1-3.6,4.1C172.1,255.4,170.7,253.6,170.7,251.3z
			 M177.4,251.3c0-1.9-1.1-3.6-3.1-3.6c-2,0-3.1,1.7-3.1,3.6c0,1.9,1.1,3.6,3.1,3.6C176.3,254.9,177.4,253.2,177.4,251.3z"/>
		<path d="M56.7,270.5c0-2.2,1.4-4,3.6-4c1.3,0,2,0.5,2.6,1.3l-0.4,0.3c-0.6-0.8-1.4-1.2-2.3-1.2c-2,0-3.2,1.6-3.2,3.6
			c0,2,1.2,3.6,3.2,3.6c0.9,0,1.6-0.3,2.3-1.2l0.4,0.3c-0.7,0.8-1.4,1.3-2.6,1.3C58.2,274.6,56.7,272.7,56.7,270.5z"/>
		<path d="M70.3,274.4v-7.3h-4.7v7.3h-0.5v-7.7h5.7v7.7H70.3z"/>
		<path d="M73.1,270.5c0-2.2,1.6-4,3.6-4c2.4,0,3.6,1.9,3.6,4v0.2h-6.7c0,1.9,1.3,3.5,3.2,3.5c1.1,0,2-0.4,2.7-1.2l0.3,0.3
			c-0.8,0.8-1.7,1.3-3,1.3C74.6,274.6,73.1,272.9,73.1,270.5z M76.7,266.9c-2,0-3,1.8-3.1,3.3h6.2C79.8,268.8,78.8,266.9,76.7,266.9
			z"/>
		<path d="M88.8,274.4h-6.2v-7.7h0.5v7.3h4.7v-7.3h0.5v7.3h1v2.4h-0.5V274.4z"/>
		<path d="M91.4,274.4v-7.7h0.5v7l4.8-7h0.4v7.7h-0.5v-7l-4.8,7H91.4z"/>
		<path d="M104.8,274.4v-0.9c-0.7,0.8-1.6,1.1-2.7,1.1c-1.4,0-2.7-0.9-2.7-2.6s1.3-2.6,2.7-2.6c1.1,0,2,0.4,2.7,1.1v-1.7
			c0-1.2-1-1.9-2.2-1.9c-1,0-1.8,0.4-2.5,1.2l-0.4-0.3c0.8-0.9,1.6-1.3,2.8-1.3c1.5,0,2.7,0.8,2.7,2.3v5.6H104.8z M104.8,273V271
			c-0.6-0.8-1.5-1.2-2.5-1.2c-1.4,0-2.3,0.9-2.3,2.1s0.9,2.1,2.3,2.1C103.3,274.1,104.2,273.7,104.8,273z"/>
		<path d="M106.9,274.1c0.8,0,1.4-0.9,1.8-3.6l0.5-3.9h4.5v7.7h-0.5v-7.3h-3.6l-0.5,3.5c-0.4,3-1.1,4-2.2,4V274.1z"/>
		<path d="M116.5,274.4v-7.7h0.5v7l4.8-7h0.4v7.7h-0.5v-7l-4.8,7H116.5z"/>
		<path d="M124.5,270.5c0-2.2,1.4-4,3.6-4c1.3,0,2,0.5,2.6,1.3l-0.4,0.3c-0.6-0.8-1.4-1.2-2.3-1.2c-2,0-3.2,1.6-3.2,3.6
			c0,2,1.2,3.6,3.2,3.6c0.9,0,1.6-0.3,2.3-1.2l0.4,0.3c-0.7,0.8-1.4,1.3-2.6,1.3C125.9,274.6,124.5,272.7,124.5,270.5z"/>
		<path d="M134.2,274.4v-7.3h-2.3v-0.4h5.1v0.4h-2.3v7.3H134.2z"/>
		<path d="M143.9,274.4v-0.9c-0.7,0.8-1.6,1.1-2.7,1.1c-1.4,0-2.7-0.9-2.7-2.6s1.3-2.6,2.7-2.6c1.1,0,2,0.4,2.7,1.1v-1.7
			c0-1.2-1-1.9-2.2-1.9c-1,0-1.8,0.4-2.5,1.2l-0.4-0.3c0.8-0.9,1.6-1.3,2.8-1.3c1.5,0,2.7,0.8,2.7,2.3v5.6H143.9z M143.9,273V271
			c-0.6-0.8-1.5-1.2-2.5-1.2c-1.4,0-2.3,0.9-2.3,2.1s0.9,2.1,2.3,2.1C142.3,274.1,143.3,273.7,143.9,273z"/>
	</g>
	<g>
		<path d="M228.9,43.8c0-3.1,2-5.5,5.1-5.5c3.1,0,5.1,2.4,5.1,5.5s-2,5.5-5.1,5.5C230.9,49.3,228.9,46.9,228.9,43.8z M238.5,43.8
			c0-2.9-1.8-5-4.5-5c-2.8,0-4.5,2.1-4.5,5c0,2.9,1.7,5,4.5,5C236.7,48.8,238.5,46.7,238.5,43.8z"/>
		<path d="M241,45.3c0-2.2,1.4-4,3.6-4c1.3,0,2,0.5,2.6,1.3l-0.4,0.3c-0.6-0.8-1.4-1.2-2.3-1.2c-2,0-3.2,1.6-3.2,3.6
			c0,2,1.2,3.6,3.2,3.6c0.9,0,1.6-0.3,2.3-1.2l0.4,0.3c-0.7,0.8-1.4,1.3-2.6,1.3C242.4,49.3,241,47.5,241,45.3z"/>
		<path d="M255.6,49.1V42l-2.8,7.1h-0.1l-2.8-7.1v7.1h-0.5v-7.7h0.7l2.7,6.8l2.7-6.8h0.7v7.7H255.6z"/>
		<path d="M258.4,45.3c0-2.3,1.4-4,3.6-4c2.2,0,3.6,1.8,3.6,4c0,2.3-1.4,4.1-3.6,4.1C259.8,49.3,258.4,47.5,258.4,45.3z M265.1,45.3
			c0-1.9-1.1-3.6-3.1-3.6c-2,0-3.1,1.7-3.1,3.6c0,1.9,1.1,3.6,3.1,3.6C264,48.9,265.1,47.1,265.1,45.3z"/>
		<path d="M269.3,49.1v-7.3h-2.3v-0.4h5.1v0.4h-2.3v7.3H269.3z"/>
		<path d="M274.5,47.8v4.3H274V41.4h0.5v1.3c0.5-0.8,1.6-1.5,2.8-1.5c2.1,0,3.5,1.6,3.5,4c0,2.4-1.4,4.1-3.5,4.1
			C276.1,49.3,275.1,48.7,274.5,47.8z M280.2,45.3c0-2-1-3.6-2.9-3.6c-1.2,0-2.3,0.7-2.8,1.5v4.1c0.5,0.8,1.6,1.6,2.8,1.6
			C279.1,48.9,280.2,47.3,280.2,45.3z"/>
		<path d="M196.9,68.3v-7.7h0.5v3.5h4.7v-3.5h0.5v7.7h-0.5v-3.8h-4.7v3.8H196.9z"/>
		<path d="M210.3,68.3v-0.9c-0.7,0.8-1.6,1.1-2.7,1.1c-1.4,0-2.7-0.9-2.7-2.6s1.3-2.6,2.7-2.6c1.1,0,2,0.4,2.7,1.1v-1.7
			c0-1.2-1-1.9-2.2-1.9c-1,0-1.8,0.4-2.5,1.2l-0.4-0.3c0.8-0.9,1.6-1.3,2.8-1.3c1.5,0,2.7,0.8,2.7,2.3v5.6H210.3z M210.3,66.9V65
			c-0.6-0.8-1.5-1.2-2.5-1.2c-1.4,0-2.3,0.9-2.3,2.1c0,1.2,0.9,2.1,2.3,2.1C208.8,68.1,209.7,67.7,210.3,66.9z"/>
		<path d="M217.3,64.5c0-2.2,1.4-4,3.6-4c1.3,0,2,0.5,2.6,1.3l-0.4,0.3c-0.6-0.8-1.4-1.2-2.3-1.2c-2,0-3.2,1.6-3.2,3.6
			c0,2,1.2,3.6,3.2,3.6c0.9,0,1.6-0.3,2.3-1.2l0.4,0.3c-0.7,0.8-1.4,1.3-2.6,1.3C218.7,68.5,217.3,66.7,217.3,64.5z"/>
		<path d="M225.2,64.5c0-2.3,1.4-4,3.6-4c2.2,0,3.6,1.8,3.6,4c0,2.3-1.4,4.1-3.6,4.1C226.6,68.5,225.2,66.7,225.2,64.5z M231.8,64.5
			c0-1.9-1.1-3.6-3.1-3.6c-2,0-3.1,1.7-3.1,3.6c0,1.9,1.1,3.6,3.1,3.6C230.8,68.1,231.8,66.3,231.8,64.5z"/>
		<path d="M234.7,68.3v-7.7h3.7c1.2,0,2,0.7,2,2c0,0.9-0.6,1.6-1.2,1.8c0.7,0.2,1.3,1,1.3,1.9c0,1.3-0.8,2.1-2.1,2.1H234.7z
			 M239.9,62.6c0-0.9-0.6-1.6-1.6-1.6h-3.1v3.1h3.1C239.4,64.1,239.9,63.4,239.9,62.6z M240,66.3c0-0.9-0.6-1.7-1.7-1.7h-3.2v3.3
			h3.2C239.4,67.9,240,67.3,240,66.3z"/>
		<path d="M243.6,67v4.3h-0.5V60.6h0.5v1.3c0.5-0.8,1.6-1.5,2.8-1.5c2.1,0,3.5,1.6,3.5,4c0,2.4-1.4,4.1-3.5,4.1
			C245.2,68.5,244.2,67.9,243.6,67z M249.3,64.5c0-2-1-3.6-2.9-3.6c-1.2,0-2.3,0.7-2.8,1.5v4.1c0.5,0.8,1.6,1.6,2.8,1.6
			C248.3,68.1,249.3,66.5,249.3,64.5z"/>
		<path d="M251.7,64.5c0-2.2,1.6-4,3.6-4c2.4,0,3.6,1.9,3.6,4v0.2h-6.7c0,1.9,1.3,3.5,3.2,3.5c1.1,0,2-0.4,2.7-1.2l0.3,0.3
			c-0.8,0.8-1.7,1.3-3,1.3C253.3,68.5,251.7,66.8,251.7,64.5z M255.3,60.8c-2,0-3,1.8-3.1,3.3h6.2C258.4,62.7,257.4,60.8,255.3,60.8
			z"/>
		<path d="M267.5,68.3v-7.1l-2.8,7.1h-0.1l-2.8-7.1v7.1h-0.5v-7.7h0.7l2.7,6.8l2.7-6.8h0.7v7.7H267.5z"/>
		<path d="M270.3,64.5c0-2.2,1.6-4,3.6-4c2.4,0,3.6,1.9,3.6,4v0.2h-6.7c0,1.9,1.3,3.5,3.2,3.5c1.1,0,2-0.4,2.7-1.2l0.3,0.3
			c-0.8,0.8-1.7,1.3-3,1.3C271.9,68.5,270.3,66.8,270.3,64.5z M273.9,60.8c-2,0-3,1.8-3.1,3.3h6.2C277,62.7,276,60.8,273.9,60.8z"/>
		<path d="M279.9,68.3v-7.7h0.5v3.5h4.7v-3.5h0.5v7.7h-0.5v-3.8h-4.7v3.8H279.9z"/>
		<path d="M288.3,68.3v-7.7h0.5v3.5h4.7v-3.5h0.5v7.7h-0.5v-3.8h-4.7v3.8H288.3z"/>
		<path d="M296.3,64.5c0-2.3,1.4-4,3.6-4c2.2,0,3.6,1.8,3.6,4c0,2.3-1.4,4.1-3.6,4.1C297.8,68.5,296.3,66.7,296.3,64.5z M303,64.5
			c0-1.9-1.1-3.6-3.1-3.6c-2,0-3.1,1.7-3.1,3.6c0,1.9,1.1,3.6,3.1,3.6C301.9,68.1,303,66.3,303,64.5z"/>
		<path d="M312.1,68.3v-7.1l-2.8,7.1h-0.1l-2.8-7.1v7.1h-0.5v-7.7h0.7l2.7,6.8l2.7-6.8h0.7v7.7H312.1z"/>
		<path d="M203.8,83.7c0-2.3,1.4-4,3.6-4c2.2,0,3.6,1.8,3.6,4c0,2.3-1.4,4.1-3.6,4.1C205.2,87.7,203.8,85.9,203.8,83.7z M210.4,83.7
			c0-1.9-1.1-3.6-3.1-3.6c-2,0-3.1,1.7-3.1,3.6c0,1.9,1.1,3.6,3.1,3.6C209.4,87.3,210.4,85.5,210.4,83.7z"/>
		<path d="M212.9,83.3c0-3.8,1.4-5.2,4.3-5.6c1.8-0.3,2.3-0.5,2.3-0.9h0.4c0,0.9-1.3,1.1-2.6,1.4c-2.9,0.5-3.5,1.6-3.8,3.5
			c0.5-1,1.4-2.1,3.1-2.1c2.2,0,3.6,1.8,3.6,4c0,2.3-1.4,4.1-3.6,4.1C214.3,87.7,212.9,85.9,212.9,83.3z M219.6,83.7
			c0-1.9-1.1-3.6-3.1-3.6c-2,0-3.1,1.7-3.1,3.6c0,1.9,1.1,3.6,3.1,3.6C218.5,87.3,219.6,85.5,219.6,83.7z"/>
		<path d="M222.1,83.7c0-2.3,1.4-4,3.6-4c2.2,0,3.6,1.8,3.6,4c0,2.3-1.4,4.1-3.6,4.1C223.5,87.7,222.1,85.9,222.1,83.7z M228.8,83.7
			c0-1.9-1.1-3.6-3.1-3.6c-2,0-3.1,1.7-3.1,3.6c0,1.9,1.1,3.6,3.1,3.6C227.7,87.3,228.8,85.5,228.8,83.7z"/>
		<path d="M232.1,86.2v4.3h-0.5V79.8h0.5v1.3c0.5-0.8,1.6-1.5,2.8-1.5c2.1,0,3.5,1.6,3.5,4c0,2.4-1.4,4.1-3.5,4.1
			C233.8,87.7,232.8,87.1,232.1,86.2z M237.9,83.7c0-2-1-3.6-2.9-3.6c-1.2,0-2.3,0.7-2.8,1.5v4.1c0.5,0.8,1.6,1.6,2.8,1.6
			C236.8,87.3,237.9,85.7,237.9,83.7z"/>
		<path d="M240.2,90.1c0.2,0.1,0.5,0.1,0.7,0.1c0.5,0,0.9-0.2,1.2-1.1l0.7-1.6l-3.3-7.8h0.6l3,7.2l3-7.2h0.6l-4.1,9.6
			c-0.4,0.8-0.9,1.3-1.7,1.3c-0.3,0-0.6,0-0.8-0.1L240.2,90.1z"/>
		<path d="M247.1,87.1c0.8-0.1,1.4-0.8,1.8-3.5l0.5-3.9h4.5v7.3h1v2.4h-0.5v-2h-6.8v2h-0.5V87.1z M249.3,83.8c-0.3,2-0.7,3-1.3,3.3
			h5.3v-6.9h-3.6L249.3,83.8z"/>
		<path d="M256.5,83.7c0-2.3,1.4-4,3.6-4c2.2,0,3.6,1.8,3.6,4c0,2.3-1.4,4.1-3.6,4.1C257.9,87.7,256.5,85.9,256.5,83.7z M263.2,83.7
			c0-1.9-1.1-3.6-3.1-3.6c-2,0-3.1,1.7-3.1,3.6c0,1.9,1.1,3.6,3.1,3.6C262.1,87.3,263.2,85.5,263.2,83.7z"/>
		<path d="M266,87.5v-7.7h3.7c1.2,0,2,0.7,2,2c0,0.9-0.6,1.6-1.2,1.8c0.7,0.2,1.3,1,1.3,1.9c0,1.3-0.8,2.1-2.1,2.1H266z M271.2,81.8
			c0-0.9-0.6-1.6-1.6-1.6h-3.1v3.1h3.1C270.7,83.3,271.2,82.6,271.2,81.8z M271.4,85.5c0-0.9-0.6-1.7-1.7-1.7h-3.2v3.3h3.2
			C270.7,87.1,271.4,86.5,271.4,85.5z"/>
		<path d="M279.5,87.5v-0.9c-0.7,0.8-1.6,1.1-2.7,1.1c-1.4,0-2.7-0.9-2.7-2.6s1.3-2.6,2.7-2.6c1.1,0,2,0.4,2.7,1.1V82
			c0-1.2-1-1.9-2.2-1.9c-1,0-1.8,0.4-2.5,1.2l-0.4-0.3c0.8-0.9,1.6-1.3,2.8-1.3c1.5,0,2.7,0.8,2.7,2.3v5.6H279.5z M279.5,86.1v-1.9
			c-0.6-0.8-1.5-1.2-2.5-1.2c-1.4,0-2.3,0.9-2.3,2.1s0.9,2.1,2.3,2.1C277.9,87.3,278.9,86.9,279.5,86.1z"/>
		<path d="M282.7,87.5v-7.7h0.5v3.5h4.7v-3.5h0.5v7.7h-0.5v-3.8h-4.7v3.8H282.7z"/>
		<path d="M291.1,87.5v-7.7h0.5v7l4.8-7h0.4v7.7h-0.5v-7l-4.8,7H291.1z"/>
		<path d="M299.6,87.5v-7.7h0.5v7l4.8-7h0.4v7.7h-0.5v-7l-4.8,7H299.6z"/>
	</g>
	<g>
		<circle class="st1" cx="406.4" cy="163" r="15.7"/>
		<circle class="st2" cx="406.4" cy="163" r="6"/>
		<g>
			<circle class="st2" cx="406.4" cy="69.8" r="51.3"/>
			<polygon class="st2" points="406.4,142.1 430.6,100.1 382.1,100.1 			"/>
			<circle class="st3" cx="406.4" cy="69.8" r="43"/>
			<g>
				<path class="st4" d="M435.6,74.9c-0.7-1.2-1.8-2.3-2.8-3.4c-0.3-0.3-0.7-0.5-1.1-0.2c-0.2,0.2-0.4,0.6-0.4,0.9
					c0,0.2,0.2,0.4,0.4,0.6c3.2,3.1,4.6,6.9,3.9,11.3c-1,7.2-8.2,12.2-15.3,10.5c-6.7-1.5-10.9-7.7-9.9-14.5
					c0.9-6,6.2-10.7,12.3-10.8c2,0,3.9,0.3,5.8,1.2c0.6,0.3,1,0.2,1.3-0.2c0.3-0.5,0.1-1-0.6-1.3c-4.9-2.2-9.7-1.8-14.2,1.1
					c-0.2,0.1-0.3,0.2-0.5,0.3c0-0.1,0-0.2,0-0.2c0-2.8,0-5.6,0-8.4c0-0.2,0.1-0.4,0.2-0.6c0.7-1.2,0.8-2.5,0.2-3.8
					c-0.3-0.5-0.3-1-0.2-1.6c0.2-2,0.4-3.9-0.1-5.9c-2.4-11.1-14.6-14.3-22.2-8.2c-1.2,1-2.2,2.1-3,3.4c-0.3,0.5-0.2,0.9,0.2,1.2
					c0.4,0.3,0.9,0.2,1.2-0.2c0.1-0.1,0.2-0.2,0.3-0.4c4.3-6.5,13.6-7.2,18.9-1.4c2.9,3.2,3.7,7,3.1,11.1c-0.6-0.1-1-0.3-1.3-0.9
					c-0.2-0.3-0.7-0.6-1.1-0.7c-0.5-0.2-1.1-0.2-1.7-0.3c-4-0.4-7.4-1.9-10-4.9c-0.6-0.7-1.6-0.7-2.1,0.1c-0.4,0.6-0.9,1.2-1.3,1.9
					c-1,1.6-2.4,2.7-4.2,3.4c-0.3,0.1-0.7,0.3-0.8,0.6c-0.2,0.6-0.7,0.6-1.2,0.8c0-0.1-0.1-0.1-0.1-0.2c0-0.1,0-0.3-0.1-0.4
					c-0.2-1.8-0.2-3.6,0.3-5.4c0.2-0.6-0.1-1.1-0.6-1.2c-0.5-0.1-0.9,0.1-1.1,0.7c-0.2,0.7-0.4,1.4-0.4,2c0,1.7,0.1,3.5,0.1,5.2
					c0,0.3-0.1,0.6-0.2,0.8c-0.8,1.5-0.7,2.9,0.1,4.3c0.2,0.3,0.3,0.6,0.3,0.9c0,1.9,0,3.8,0,5.7c0,2.1,0,4.2,0,6.3
					c0,0.6,0.3,1,0.8,1c0.5,0,0.8-0.4,0.9-1c0-0.2,0-0.3,0-0.5c0-3.4,0-6.8,0-10.1c0-0.2,0-0.4,0-0.7c0.3,0.1,0.6,0.2,0.8,0.2
					c0,0.4,0,0.7,0,1.1c-0.1,4.2,1.6,7.6,5.1,10c0.2,0.1,0.3,0.4,0.3,0.5c0,0.7-0.1,1.3,0,2c0.1,0.9-0.2,1.4-1.1,1.7
					c-1.7,0.6-3.3,1.4-5.1,2.2c0-0.9,0-1.7,0-2.5c0-0.7-0.3-1-0.9-1c-0.5,0-0.8,0.3-0.8,1c0,1,0,2,0,2.9c0,0.4-0.1,0.7-0.5,0.9
					c-2.1,1.6-3.6,3.7-4.5,6.2c-0.9,2.5-0.9,5-0.8,7.5c0,0.5,0.4,0.8,0.9,0.8c0.5,0,0.8-0.3,0.8-0.8c0-0.9,0-1.7,0-2.6
					c0-3.1,1-5.9,3.1-8.3c1-1.1,2.1-2,3.4-2.6c1,1.3,1.9,2.5,2.8,3.8c0.2,0.3,0.3,0.6,0.3,1c0,0.6,0.2,1,0.6,1.5
					c2.1,2.4,4.3,4.9,6.4,7.3c0.7,0.8,1.1,0.8,1.8,0c2.1-2.5,4.3-4.9,6.4-7.4c0.4-0.4,0.6-0.9,0.5-1.4c0-0.3,0.1-0.6,0.1-0.9
					c0.1,0.1,0.2,0.1,0.2,0.1c0.1,0.1,0.1,0.3,0.2,0.4c1.9,5.3,5.5,8.5,11,9.8c0.5,0.1,1,0.2,1.5,0.3c0.9,0,1.7,0,2.6,0
					c0.2,0,0.5-0.1,0.7-0.1C435.3,95.1,440.9,83.7,435.6,74.9z M390.1,61.3c-1-0.2-1.7-1.1-1.7-2.2c0-1.1,0.7-2,1.7-2.1
					C390.1,58.4,390.1,59.9,390.1,61.3z M412,57c0.8,0.1,1.5,0.9,1.6,1.9c0.1,1-0.5,2-1.6,2.5C412,59.9,412,58.4,412,57z M395,72
					c-2.1-1.9-3.1-4.3-3.2-7.1c0-3,0-6,0-8.9c0-0.2,0.2-0.5,0.3-0.5c2-0.8,3.5-2.2,4.7-4c0.3-0.5,0.6-0.9,1-1.4
					c3.4,3.7,7.7,5.1,12.5,5.4c0,0.7,0,1.3,0,1.9c0,2.9,0.1,5.7-0.1,8.6c-0.3,4.4-4.2,8.4-8.7,8.6C398.9,74.7,396.8,73.6,395,72z
					 M404.7,77.9c0,0.1-0.2,0.3-0.3,0.4c-1,0.7-2,1.3-2.9,2c-0.4,0.3-0.7,0.3-1.1,0c-1-0.7-2-1.3-2.9-2c-0.2-0.1-0.3-0.3-0.3-0.5
					c0-0.8,0-1.5,0-2.4c2.9,0.9,3.7,1.3,7.6,0.1C404.8,76.3,404.8,77.1,404.7,77.9z M398.4,91.2c-1.1-1.3-2.3-2.6-3.4-3.9
					c-0.1-0.1-0.2-0.4-0.1-0.6c0-0.6-0.1-1-0.5-1.5c-0.9-1.2-1.8-2.4-2.8-3.7c1-0.4,2-0.9,3-1.3c1.3,3.7,2.6,7.3,3.9,10.9
					C398.5,91.2,398.5,91.2,398.4,91.2z M401,93c-1.6-4.5-3.2-8.9-4.8-13.4c0,0,0.1-0.1,0.1-0.1c1,0.7,2.1,1.4,3.1,2.1
					c1.1,0.7,1.9,0.7,3,0c0.9-0.6,1.9-1.3,2.8-1.9c0.1-0.1,0.3-0.2,0.5-0.2C404.2,84.1,402.7,88.5,401,93z M408.7,83.6
					c0,0.2-0.1,0.4-0.2,0.5c-0.3,0.4-0.5,0.7-0.8,1.1c-0.4,0.5-0.6,1-0.6,1.7c0,0.2,0,0.4-0.1,0.5c-1.1,1.3-2.3,2.7-3.5,3.9
					c1.3-3.6,2.6-7.3,3.9-11c0.5,0.2,0.9,0.4,1.3,0.6C408.7,81.8,408.7,82.7,408.7,83.6z M409,78.8c0,0.1-0.1,0.1-0.1,0.2
					c-0.8-0.3-1.5-0.7-2.3-1c-0.1,0-0.2-0.3-0.2-0.4c0-0.9,0-1.8,0-2.7c0-0.2,0.1-0.4,0.3-0.5c3.7-2.5,5.3-6,5.2-10.4
					c0-0.1,0-0.1,0-0.2c0-0.7,0-0.7,0.8-0.9c0,0.8,0,1.5,0,2.3c0,2.1,0,4.2,0,6.3c0,0.2-0.1,0.5-0.2,0.7
					C410.8,74.2,409.6,76.3,409,78.8z"/>
				<path class="st4" d="M419.1,74.9c-3,1.5-5.3,3.8-7.3,6.5c-0.4,0.6-0.3,1.2,0.1,1.8c1.3,1.8,2.8,3.4,4.6,4.7
					c1.9,1.5,4,2.5,6.6,2.7c1-0.2,2.1-0.3,3.1-0.7c3.5-1.3,6-3.9,8.2-6.8c0.4-0.5,0.3-1.2-0.1-1.7c-1.7-2.3-3.7-4.3-6.2-5.8
					C425.3,73.7,422.3,73.4,419.1,74.9z M415,84.2c-0.5-0.7-1.1-1.3-1.7-2c0.6-0.7,1.1-1.4,1.7-2C415,81.5,415,82.9,415,84.2z
					 M431.2,80.2c0.5,0.6,1.1,1.3,1.7,2c-0.6,0.7-1.2,1.4-1.7,2C431.2,82.9,431.2,81.5,431.2,80.2z M423.1,88.7
					c-3.6,0-6.5-2.9-6.5-6.5c0-3.6,3-6.6,6.6-6.5c3.6,0,6.5,3,6.5,6.6C429.6,85.8,426.7,88.7,423.1,88.7z"/>
				<path class="st4" d="M394.1,91.7c-2.4,0-4.7,0-7.1,0c-0.8,0-1.4,0.6-1.4,1.4c0,0.5,0,1.1,0,1.6c0,1.1,0.5,1.7,1.7,1.7
					c1.1,0,2.2,0,3.3,0c0,0,0,0,0,0c1.2,0,2.3,0,3.5,0c0.9,0,1.5-0.6,1.5-1.5c0-0.6,0-1.2,0-1.8C395.4,92.3,394.9,91.7,394.1,91.7z
					 M393.7,94.4c0,0.1,0,0.2,0,0.3c-2.1,0-4.3,0-6.4,0c0-0.4,0-0.8,0-1.2c2.1,0,4.2,0,6.4,0C393.8,93.8,393.8,94.1,393.7,94.4z"/>
				<path class="st4" d="M423.1,78.2c-2.2,0-4,1.8-4,4c0,2.2,1.8,4,4,4c2.2,0,4-1.8,4-4C427.1,80,425.3,78.2,423.1,78.2z
					 M423.1,84.5c-1.3,0-2.3-1-2.3-2.3c0-1.3,1-2.3,2.3-2.3c1.3,0,2.3,1,2.3,2.3C425.4,83.4,424.4,84.5,423.1,84.5z"/>
			</g>
		</g>
	</g>
	<g>
		<circle class="st1" cx="560.4" cy="163.6" r="15.7"/>
		<circle class="st2" cx="560.4" cy="163.6" r="6"/>
		<g>
			<circle class="st2" cx="560.4" cy="255.7" r="51.3"/>
			<polygon class="st2" points="560.4,183.4 536.1,225.4 584.6,225.4 			"/>
			<ellipse class="st3" cx="560.4" cy="255.7" rx="41.5" ry="43"/>
			<g>
				<path class="st4" d="M583.5,259c-0.4-0.1-0.8-0.2-1.1-0.3c0-0.2,0-0.5,0-0.7c0-8.1,0-16.2,0-24.3c0-2.4-1.4-3.7-3.8-3.7
					c-2.4,0-4.8,0-7.3,0c-0.3,0-0.5-0.1-0.7-0.4c-0.6-1.2-1.7-1.8-3.1-1.9c-0.4,0-0.8,0-1.2,0c-1.1-3-2.9-4.5-5.5-4.5
					c-2.7,0-4.4,1.3-5.7,4.5c-1.9-0.2-3.6,0.2-4.4,2.2c-0.1,0-0.1,0-0.1,0c-2.5,0-5,0-7.5,0c-2.5,0-3.9,1.3-3.9,3.8
					c0,14.5,0,29,0,43.6c0,0.2,0,0.3,0,0.5c0,1.4,0.9,2.7,2.3,3.1c0.2,0.1,0.4,0.1,0.5,0.2c13,0,26.1,0,39.1,0
					c0.1,0,0.2-0.1,0.3-0.1c5.3-0.7,9.4-5,9.9-10.4C591.9,265.5,588.6,260.6,583.5,259z M552.9,230.9c0.1-0.6,0.5-1,1.2-1
					c0.7,0,1.4,0,2.1,0c0.8,0,1.2-0.4,1.2-1.2c0.1-2,1.5-3.3,3.4-3.4c1.9,0,3.3,1.4,3.4,3.4c0.1,0.8,0.5,1.2,1.2,1.2
					c0.7,0,1.3,0,2,0c0.9,0,1.3,0.4,1.3,1.3c0,0.3,0,0.6,0,1c-5.3,0-10.6,0-15.9,0C552.9,231.7,552.9,231.3,552.9,230.9z
					 M572.7,278.9c-9.9,0-19.8,0-29.6,0c-1.1,0-1.5-0.4-1.5-1.5c0-14.6,0-29.2,0-43.7c0-1.1,0.4-1.5,1.5-1.5c2.5,0,5,0,7.6,0
					c0,0.3,0,0.6,0,0.9c0,0.9,0.4,1.3,1.4,1.3c3.6,0,7.1,0,10.7,0c2.2,0,4.5,0,6.7,0c1.3,0,1.6-0.3,1.6-1.6c0-0.2,0-0.4,0-0.7
					c0.2,0,0.3,0,0.5,0c2.4,0,4.9,0,7.3,0c0.9,0,1.3,0.4,1.3,1.3c0,8.2,0,16.5,0,24.7c0,0.1,0,0.1,0,0.3c-1.7,0.1-3.3,0.4-4.8,1.1
					c-1.5,0.7-2.9,1.7-3.9,3.1c-0.2,0.3-0.5,0.4-0.8,0.4c-6.1,0-12.2,0-18.3,0c-0.2,0-0.4,0-0.6,0c-0.6,0.1-1,0.5-1,1.1
					c0,0.6,0.4,1,1,1.1c0.2,0,0.4,0,0.6,0c5.6,0,11.1,0,16.7,0c0.2,0,0.4,0,0.6,0c-0.3,1.5-0.6,3-0.9,4.5c-0.1,0-0.3,0-0.6,0
					c-5.3,0-10.5,0-15.8,0c-0.2,0-0.4,0-0.6,0c-0.6,0.1-1,0.5-1,1.1c0,0.6,0.4,1.1,1,1.1c0.2,0,0.4,0,0.6,0c5.3,0,10.7,0,16,0
					c0.2,0,0.5,0,0.7,0c0.6,2.7,2,5,4.2,6.8C573,278.8,572.8,278.9,572.7,278.9z M580.1,278.9c-5,0-9-4.1-9-9c0-5,4.1-9.1,9.1-9.1
					c5,0,9,4.1,9,9.1C589.2,274.8,585.1,278.9,580.1,278.9z"/>
				<path class="st4" d="M551.9,244.9c0.1,0,0.2,0,0.3,0c7.3,0,14.6,0,21.8,0c0.2,0,0.4,0,0.6,0c0.5-0.1,1-0.6,1-1.1
					c0-0.6-0.4-1.1-1-1.1c-0.2,0-0.4,0-0.6,0c-3.6,0-7.3,0-10.9,0c-2.7,0-5.5,0-8.2,0c-1,0-2,0-3,0c-0.7,0-1.2,0.5-1.2,1.1
					C550.6,244.4,551.2,244.9,551.9,244.9z"/>
				<path class="st4" d="M551.6,251.7c0.2,0,0.4,0,0.6,0c7.3,0,14.6,0,21.8,0c0.2,0,0.3,0,0.5,0c0.6-0.1,1-0.6,1-1.1
					c0-0.6-0.4-1-1-1.1c-0.2,0-0.4,0-0.6,0c-3.6,0-7.2,0-10.9,0c-3.6,0-7.3,0-10.9,0c-0.2,0-0.4,0-0.6,0c-0.6,0.1-1,0.5-1,1.1
					C550.6,251.1,551.1,251.6,551.6,251.7z"/>
				<path class="st4" d="M551.7,258.5c0.2,0,0.4,0,0.6,0c3.6,0,7.2,0,10.9,0c3.6,0,7.3,0,10.9,0c0.2,0,0.4,0,0.6,0
					c0.6-0.1,1-0.6,1-1.1c0-0.5-0.4-1-1-1.1c-0.2,0-0.4,0-0.6,0c-7.3,0-14.6,0-21.8,0c-0.2,0-0.3,0-0.5,0c-0.6,0.1-1,0.5-1,1.1
					C550.6,257.9,551.1,258.4,551.7,258.5z"/>
				<path class="st4" d="M547.2,242.6c-0.6,0-1.1,0.5-1.1,1.1c0,0.6,0.5,1.2,1.1,1.1c0.6,0,1.1-0.5,1.1-1.2
					C548.4,243.1,547.8,242.6,547.2,242.6z"/>
				<path class="st4" d="M547.2,251.7c0.6,0,1.1-0.5,1.1-1.1c0-0.6-0.5-1.1-1.1-1.1c-0.6,0-1.1,0.5-1.1,1.1
					C546.1,251.2,546.6,251.7,547.2,251.7z"/>
				<path class="st4" d="M547.3,256.2c-0.6,0-1.1,0.5-1.1,1.2c0,0.6,0.5,1.1,1.1,1.1c0.6,0,1.1-0.5,1.1-1.2
					C548.4,256.7,547.9,256.2,547.3,256.2z"/>
				<path class="st4" d="M547.2,263c-0.6,0-1.1,0.5-1.1,1.1c0,0.6,0.5,1.2,1.1,1.1c0.6,0,1.1-0.5,1.1-1.2
					C548.4,263.5,547.8,263,547.2,263z"/>
				<path class="st4" d="M547.3,269.8c-0.6,0-1.1,0.5-1.1,1.1c0,0.6,0.5,1.2,1.1,1.2c0.6,0,1.2-0.5,1.1-1.1
					C548.4,270.3,547.9,269.8,547.3,269.8z"/>
				<path class="st4" d="M582.9,266.6c-0.2,0.1-0.3,0.3-0.5,0.5c-1.1,1.1-2.2,2.2-3.4,3.4c-0.1-0.1-0.1-0.1-0.1-0.1
					c-0.4-0.4-0.8-0.8-1.2-1.2c-0.6-0.6-1.3-0.6-1.7-0.1c-0.5,0.5-0.4,1.1,0.1,1.7c0.6,0.6,1.2,1.2,1.8,1.8c0.9,0.9,1.4,0.9,2.2,0
					c1.3-1.3,2.7-2.7,4-4c0.1-0.1,0.3-0.3,0.4-0.4c0.3-0.5,0.3-1-0.1-1.4C583.9,266.4,583.4,266.3,582.9,266.6z"/>
				<path class="st4" d="M560.8,229.9c0.6,0,1.2-0.5,1.2-1.1c0-0.6-0.5-1.1-1.1-1.2c-0.6,0-1.2,0.5-1.2,1.1
					C559.7,229.3,560.2,229.9,560.8,229.9z"/>
			</g>
		</g>
	</g>
	<g>
		<path d="M365.1,232.3l-4.8-5.2l-1.3,1.4v3.9h-0.5v-10.7h0.5v6.2l5.6-6.2h0.7l-4.6,5.1l5.1,5.6H365.1z"/>
		<path d="M367.3,228.4c0-2.3,1.4-4,3.6-4c2.2,0,3.6,1.8,3.6,4c0,2.3-1.4,4.1-3.6,4.1C368.7,232.5,367.3,230.7,367.3,228.4z
			 M373.9,228.4c0-1.9-1.1-3.6-3.1-3.6c-2,0-3.1,1.7-3.1,3.6c0,1.9,1.1,3.6,3.1,3.6C372.9,232.1,373.9,230.3,373.9,228.4z"/>
		<path d="M376.8,232.3v-7.7h0.5v3.5h4.7v-3.5h0.5v7.7H382v-3.8h-4.7v3.8H376.8z"/>
		<path d="M384.8,228.4c0-2.2,1.4-4,3.6-4c1.3,0,2,0.5,2.6,1.3l-0.4,0.3c-0.6-0.8-1.4-1.2-2.3-1.2c-2,0-3.2,1.6-3.2,3.6
			c0,2,1.2,3.6,3.2,3.6c0.9,0,1.6-0.3,2.3-1.2l0.4,0.3c-0.7,0.8-1.4,1.3-2.6,1.3C386.2,232.5,384.8,230.7,384.8,228.4z"/>
		<path d="M392.7,234.9c0.2,0.1,0.5,0.1,0.7,0.1c0.5,0,0.9-0.2,1.2-1.1l0.7-1.6l-3.3-7.8h0.6l3,7.2l3-7.2h0.6l-4.1,9.6
			c-0.4,0.8-0.9,1.3-1.7,1.3c-0.3,0-0.6,0-0.8-0.1L392.7,234.9z"/>
		<path d="M399.6,232.1c0.8,0,1.4-0.9,1.8-3.6l0.5-3.9h4.5v7.7h-0.5V225h-3.6l-0.5,3.5c-0.4,3-1.1,4-2.2,4V232.1z"/>
		<path d="M409.6,224.6v3.3h3.1c1.5,0,2.3,1,2.3,2.2c0,1.2-0.8,2.2-2.3,2.2h-3.6v-7.7H409.6z M409.6,228.3v3.6h3.1
			c1.2,0,1.7-0.7,1.7-1.8s-0.6-1.8-1.7-1.8H409.6z"/>
		<path d="M418.5,232.3V225h-2.3v-0.4h5.1v0.4H419v7.3H418.5z"/>
		<path d="M428.1,232.3v-0.9c-0.7,0.8-1.6,1.1-2.7,1.1c-1.4,0-2.7-0.9-2.7-2.6s1.3-2.6,2.7-2.6c1.1,0,2,0.4,2.7,1.1v-1.7
			c0-1.2-1-1.9-2.2-1.9c-1,0-1.8,0.4-2.5,1.2l-0.4-0.3c0.8-0.9,1.6-1.3,2.8-1.3c1.5,0,2.7,0.8,2.7,2.3v5.6H428.1z M428.1,230.9V229
			c-0.6-0.8-1.5-1.2-2.5-1.2c-1.4,0-2.3,0.9-2.3,2.1s0.9,2.1,2.3,2.1C426.6,232.1,427.5,231.7,428.1,230.9z"/>
		<path d="M437.5,232.3h-6.2v-7.7h0.5v7.3h4.7v-7.3h0.5v7.3h1v2.4h-0.5V232.3z"/>
		<path d="M440.1,232.3v-7.7h0.5v7l4.8-7h0.4v7.7h-0.5v-7l-4.8,7H440.1z"/>
		<path d="M448.3,232.3l2.3-3.3c-1.4,0-2.2-0.9-2.2-2.2c0-1.3,0.9-2.2,2.3-2.2h3.6v7.7h-0.5V229h-2.6l-2.2,3.3H448.3z M453.7,228.6
			V225h-3.1c-1.1,0-1.8,0.7-1.8,1.8s0.6,1.8,1.8,1.8H453.7z"/>
		<path d="M323.2,247.6c0-2.2,1.4-4,3.6-4c1.3,0,2,0.5,2.6,1.3l-0.4,0.3c-0.6-0.8-1.4-1.2-2.3-1.2c-2,0-3.2,1.6-3.2,3.6
			c0,2,1.2,3.6,3.2,3.6c0.9,0,1.6-0.3,2.3-1.2l0.4,0.3c-0.7,0.8-1.4,1.3-2.6,1.3C324.6,251.7,323.2,249.9,323.2,247.6z"/>
		<path d="M336.7,251.5v-7.3H332v7.3h-0.5v-7.7h5.7v7.7H336.7z"/>
		<path d="M339.5,247.6c0-2.2,1.6-4,3.6-4c2.4,0,3.6,1.9,3.6,4v0.2h-6.7c0,1.9,1.3,3.5,3.2,3.5c1.1,0,2-0.4,2.7-1.2l0.3,0.3
			c-0.8,0.8-1.7,1.3-3,1.3C341.1,251.7,339.5,250,339.5,247.6z M343.1,244c-2,0-3,1.8-3.1,3.3h6.2C346.2,245.9,345.2,244,343.1,244z
			"/>
		<path d="M355.2,251.5h-6.2v-7.7h0.5v7.3h4.7v-7.3h0.5v7.3h1v2.4h-0.5V251.5z"/>
		<path d="M357.8,251.5v-7.7h0.5v7l4.8-7h0.4v7.7H363v-7l-4.8,7H357.8z"/>
		<path d="M371.2,251.5v-0.9c-0.7,0.8-1.6,1.1-2.7,1.1c-1.4,0-2.7-0.9-2.7-2.6s1.3-2.6,2.7-2.6c1.1,0,2,0.4,2.7,1.1v-1.7
			c0-1.2-1-1.9-2.2-1.9c-1,0-1.8,0.4-2.5,1.2l-0.4-0.3c0.8-0.9,1.6-1.3,2.8-1.3c1.5,0,2.7,0.8,2.7,2.3v5.6H371.2z M371.2,250.1v-1.9
			c-0.6-0.8-1.5-1.2-2.5-1.2c-1.4,0-2.3,0.9-2.3,2.1c0,1.2,0.9,2.1,2.3,2.1C369.7,251.3,370.6,250.9,371.2,250.1z"/>
		<path d="M373.4,251.3c0.8,0,1.4-0.9,1.8-3.6l0.5-3.9h4.5v7.7h-0.5v-7.3h-3.6l-0.5,3.5c-0.4,3-1.1,4-2.2,4V251.3z"/>
		<path d="M382.9,251.5v-7.7h0.5v7l4.8-7h0.4v7.7h-0.5v-7l-4.8,7H382.9z"/>
		<path d="M390.9,247.6c0-2.2,1.4-4,3.6-4c1.3,0,2,0.5,2.6,1.3l-0.4,0.3c-0.6-0.8-1.4-1.2-2.3-1.2c-2,0-3.2,1.6-3.2,3.6
			c0,2,1.2,3.6,3.2,3.6c0.9,0,1.6-0.3,2.3-1.2l0.4,0.3c-0.7,0.8-1.4,1.3-2.6,1.3C392.3,251.7,390.9,249.9,390.9,247.6z"/>
		<path d="M400.6,251.5v-7.3h-2.3v-0.4h5.1v0.4h-2.3v7.3H400.6z"/>
		<path d="M410.3,251.5v-0.9c-0.7,0.8-1.6,1.1-2.7,1.1c-1.4,0-2.7-0.9-2.7-2.6s1.3-2.6,2.7-2.6c1.1,0,2,0.4,2.7,1.1v-1.7
			c0-1.2-1-1.9-2.2-1.9c-1,0-1.8,0.4-2.5,1.2l-0.4-0.3c0.8-0.9,1.6-1.3,2.8-1.3c1.5,0,2.7,0.8,2.7,2.3v5.6H410.3z M410.3,250.1v-1.9
			c-0.6-0.8-1.5-1.2-2.5-1.2c-1.4,0-2.3,0.9-2.3,2.1c0,1.2,0.9,2.1,2.3,2.1C408.8,251.3,409.7,250.9,410.3,250.1z"/>
		<path d="M422.9,251.5v-7.3h-4.7v7.3h-0.5v-7.7h5.7v7.7H422.9z"/>
		<path d="M425.7,247.6c0-2.3,1.4-4,3.6-4c2.2,0,3.6,1.8,3.6,4c0,2.3-1.4,4.1-3.6,4.1C427.1,251.7,425.7,249.9,425.7,247.6z
			 M432.4,247.6c0-1.9-1.1-3.6-3.1-3.6c-2,0-3.1,1.7-3.1,3.6c0,1.9,1.1,3.6,3.1,3.6C431.3,251.3,432.4,249.5,432.4,247.6z"/>
		<path d="M439,247.6c0-2.3,1.4-4,3.6-4c2.2,0,3.6,1.8,3.6,4c0,2.3-1.4,4.1-3.6,4.1C440.4,251.7,439,249.9,439,247.6z M445.7,247.6
			c0-1.9-1.1-3.6-3.1-3.6c-2,0-3.1,1.7-3.1,3.6c0,1.9,1.1,3.6,3.1,3.6C444.6,251.3,445.7,249.5,445.7,247.6z"/>
		<path d="M454.7,251.5h-6.2v-7.7h0.5v7.3h4.7v-7.3h0.5v7.3h1v2.4h-0.5V251.5z"/>
		<path d="M456.8,247.6c0-2.2,1.6-4,3.6-4c2.4,0,3.6,1.9,3.6,4v0.2h-6.7c0,1.9,1.3,3.5,3.2,3.5c1.1,0,2-0.4,2.7-1.2l0.3,0.3
			c-0.8,0.8-1.7,1.3-3,1.3C458.4,251.7,456.8,250,456.8,247.6z M460.5,244c-2,0-3,1.8-3.1,3.3h6.2C463.5,245.9,462.6,244,460.5,244z
			"/>
		<path d="M466.4,251.5v-7.7h0.5v3.5h4.7v-3.5h0.5v7.7h-0.5v-3.8h-4.7v3.8H466.4z"/>
		<path d="M480.3,251.5l-3.4-3.9l-1.6,1.5v2.4h-0.5v-7.7h0.5v4.7l5-4.7h0.7l-3.8,3.5l3.7,4.2H480.3z"/>
		<path d="M482.4,247.6c0-2.2,1.6-4,3.6-4c2.4,0,3.6,1.9,3.6,4v0.2h-6.7c0,1.9,1.3,3.5,3.2,3.5c1.1,0,2-0.4,2.7-1.2l0.3,0.3
			c-0.8,0.8-1.7,1.3-3,1.3C483.9,251.7,482.4,250,482.4,247.6z M486,244c-2,0-3,1.8-3.1,3.3h6.2C489.1,245.9,488.1,244,486,244z"/>
		<path d="M346.7,269.4v4.3h-0.5V263h0.5v1.3c0.5-0.8,1.6-1.5,2.8-1.5c2.1,0,3.5,1.6,3.5,4c0,2.4-1.4,4.1-3.5,4.1
			C348.4,270.9,347.4,270.3,346.7,269.4z M352.4,266.8c0-2-1-3.6-2.9-3.6c-1.2,0-2.3,0.7-2.8,1.5v4.1c0.5,0.8,1.6,1.6,2.8,1.6
			C351.4,270.5,352.4,268.9,352.4,266.8z"/>
		<path d="M355.2,270.7V263h0.5v7l4.8-7h0.4v7.7h-0.5v-7l-4.8,7H355.2z"/>
		<path d="M363.3,266.8c0-2.2,1.4-4,3.6-4c1.3,0,2,0.5,2.6,1.3l-0.4,0.3c-0.6-0.8-1.4-1.2-2.3-1.2c-2,0-3.2,1.6-3.2,3.6
			c0,2,1.2,3.6,3.2,3.6c0.9,0,1.6-0.3,2.3-1.2l0.4,0.3c-0.7,0.8-1.4,1.3-2.6,1.3C364.7,270.9,363.3,269.1,363.3,266.8z"/>
		<path d="M377.1,270.7l-3.4-3.9l-1.6,1.5v2.4h-0.5V263h0.5v4.7l5-4.7h0.7l-3.8,3.5l3.7,4.2H377.1z"/>
		<path d="M384.5,270.7v-0.9c-0.7,0.8-1.6,1.1-2.7,1.1c-1.4,0-2.7-0.9-2.7-2.6s1.3-2.6,2.7-2.6c1.1,0,2,0.4,2.7,1.1v-1.7
			c0-1.2-1-1.9-2.2-1.9c-1,0-1.8,0.4-2.5,1.2l-0.4-0.3c0.8-0.9,1.6-1.3,2.8-1.3c1.5,0,2.7,0.8,2.7,2.3v5.6H384.5z M384.5,269.3v-1.9
			c-0.6-0.8-1.5-1.2-2.5-1.2c-1.4,0-2.3,0.9-2.3,2.1s0.9,2.1,2.3,2.1C383,270.5,383.9,270.1,384.5,269.3z"/>
		<path d="M397.1,270.7v-7.3h-4.7v7.3h-0.5V263h5.7v7.7H397.1z"/>
		<path d="M399.9,266.8c0-2.3,1.4-4,3.6-4c2.2,0,3.6,1.8,3.6,4c0,2.3-1.4,4.1-3.6,4.1C401.4,270.9,399.9,269.1,399.9,266.8z
			 M406.6,266.8c0-1.9-1.1-3.6-3.1-3.6c-2,0-3.1,1.7-3.1,3.6c0,1.9,1.1,3.6,3.1,3.6C405.5,270.5,406.6,268.7,406.6,266.8z"/>
		<path d="M409.2,270.7l2.3-3.3c-1.4,0-2.2-0.9-2.2-2.2c0-1.3,0.9-2.2,2.3-2.2h3.6v7.7h-0.5v-3.3h-2.6l-2.2,3.3H409.2z M414.7,267
			v-3.6h-3.1c-1.1,0-1.8,0.7-1.8,1.8s0.6,1.8,1.8,1.8H414.7z"/>
		<path d="M417.9,270.7V263h3.7c1.2,0,2,0.7,2,2c0,0.9-0.6,1.6-1.2,1.8c0.7,0.2,1.3,1,1.3,1.9c0,1.3-0.8,2.1-2.1,2.1H417.9z
			 M423.1,265c0-0.9-0.6-1.6-1.6-1.6h-3.1v3.1h3.1C422.6,266.5,423.1,265.8,423.1,265z M423.2,268.6c0-0.9-0.6-1.7-1.7-1.7h-3.2v3.3
			h3.2C422.6,270.3,423.2,269.7,423.2,268.6z"/>
		<path d="M425.2,270.5c0.8,0,1.4-0.9,1.8-3.6l0.5-3.9h4.5v7.7h-0.5v-7.3H428l-0.5,3.5c-0.4,3-1.1,4-2.2,4V270.5z"/>
		<path d="M434.4,266.8c0-2.2,1.6-4,3.6-4c2.4,0,3.6,1.9,3.6,4v0.2h-6.7c0,1.9,1.3,3.5,3.2,3.5c1.1,0,2-0.4,2.7-1.2l0.3,0.3
			c-0.8,0.8-1.7,1.3-3,1.3C435.9,270.9,434.4,269.2,434.4,266.8z M438,263.2c-2,0-3,1.8-3.1,3.3h6.2
			C441.1,265.1,440.1,263.2,438,263.2z"/>
		<path d="M443.9,270.7V263h0.5v3.5h4.7V263h0.5v7.7h-0.5v-3.8h-4.7v3.8H443.9z"/>
		<path d="M452.4,270.7V263h0.5v7l4.8-7h0.4v7.7h-0.5v-7l-4.8,7H452.4z"/>
		<path d="M460.6,270.7l2.3-3.3c-1.4,0-2.2-0.9-2.2-2.2c0-1.3,0.9-2.2,2.3-2.2h3.6v7.7H466v-3.3h-2.6l-2.2,3.3H460.6z M466,267v-3.6
			h-3.1c-1.1,0-1.8,0.7-1.8,1.8s0.6,1.8,1.8,1.8H466z"/>
		<path d="M333.6,289.9v-7.7h0.5v7l4.8-7h0.4v7.7h-0.5v-7l-4.8,7H333.6z"/>
		<path d="M351.5,289.9v-7.3h-4.7v7.3h-0.5v-7.7h5.7v7.7H351.5z"/>
		<path d="M355.2,288.6v4.3h-0.5v-10.7h0.5v1.3c0.5-0.8,1.6-1.5,2.8-1.5c2.1,0,3.5,1.6,3.5,4c0,2.4-1.4,4.1-3.5,4.1
			C356.8,290.1,355.8,289.5,355.2,288.6z M360.9,286c0-2-1-3.6-2.9-3.6c-1.2,0-2.3,0.7-2.8,1.5v4.1c0.5,0.8,1.6,1.6,2.8,1.6
			C359.8,289.7,360.9,288.1,360.9,286z"/>
		<path d="M363.3,286c0-2.3,1.4-4,3.6-4c2.2,0,3.6,1.8,3.6,4c0,2.3-1.4,4.1-3.6,4.1C364.7,290.1,363.3,288.3,363.3,286z M369.9,286
			c0-1.9-1.1-3.6-3.1-3.6c-2,0-3.1,1.7-3.1,3.6c0,1.9,1.1,3.6,3.1,3.6C368.9,289.7,369.9,287.9,369.9,286z"/>
		<path d="M377.5,282.6h-4.3v7.3h-0.5v-7.7h4.7V282.6z"/>
		<path d="M379.9,288.6v4.3h-0.5v-10.7h0.5v1.3c0.5-0.8,1.6-1.5,2.8-1.5c2.1,0,3.5,1.6,3.5,4c0,2.4-1.4,4.1-3.5,4.1
			C381.5,290.1,380.5,289.5,379.9,288.6z M385.6,286c0-2-1-3.6-2.9-3.6c-1.2,0-2.3,0.7-2.8,1.5v4.1c0.5,0.8,1.6,1.6,2.8,1.6
			C384.6,289.7,385.6,288.1,385.6,286z"/>
		<path d="M388,286c0-2.2,1.6-4,3.6-4c2.4,0,3.6,1.9,3.6,4v0.2h-6.7c0,1.9,1.3,3.5,3.2,3.5c1.1,0,2-0.4,2.7-1.2l0.3,0.3
			c-0.8,0.8-1.7,1.3-3,1.3C389.5,290.1,388,288.4,388,286z M391.6,282.4c-2,0-3,1.8-3.1,3.3h6.2
			C394.7,284.3,393.7,282.4,391.6,282.4z"/>
		<path d="M397.1,286c0-2.2,1.4-4,3.6-4c1.3,0,2,0.5,2.6,1.3l-0.4,0.3c-0.6-0.8-1.4-1.2-2.3-1.2c-2,0-3.2,1.6-3.2,3.6
			c0,2,1.2,3.6,3.2,3.6c0.9,0,1.6-0.3,2.3-1.2l0.4,0.3c-0.7,0.8-1.4,1.3-2.6,1.3C398.5,290.1,397.1,288.3,397.1,286z"/>
		<path d="M405,286c0-2.2,1.4-4,3.6-4c1.3,0,2,0.5,2.6,1.3l-0.4,0.3c-0.6-0.8-1.4-1.2-2.3-1.2c-2,0-3.2,1.6-3.2,3.6
			c0,2,1.2,3.6,3.2,3.6c0.9,0,1.6-0.3,2.3-1.2l0.4,0.3c-0.7,0.8-1.4,1.3-2.6,1.3C406.4,290.1,405,288.3,405,286z"/>
		<path d="M413.3,289.9v-7.7h0.5v7l4.8-7h0.4v7.7h-0.5v-7l-4.8,7H413.3z"/>
		<path d="M422.2,288.6v4.3h-0.5v-10.7h0.5v1.3c0.5-0.8,1.6-1.5,2.8-1.5c2.1,0,3.5,1.6,3.5,4c0,2.4-1.4,4.1-3.5,4.1
			C423.9,290.1,422.9,289.5,422.2,288.6z M428,286c0-2-1-3.6-2.9-3.6c-1.2,0-2.3,0.7-2.8,1.5v4.1c0.5,0.8,1.6,1.6,2.8,1.6
			C426.9,289.7,428,288.1,428,286z"/>
		<path d="M430.3,286c0-2.3,1.4-4,3.6-4c2.2,0,3.6,1.8,3.6,4c0,2.3-1.4,4.1-3.6,4.1C431.8,290.1,430.3,288.3,430.3,286z M437,286
			c0-1.9-1.1-3.6-3.1-3.6c-2,0-3.1,1.7-3.1,3.6c0,1.9,1.1,3.6,3.1,3.6C435.9,289.7,437,287.9,437,286z"/>
		<path d="M439.9,289.9v-7.7h3.7c1.2,0,2,0.7,2,2c0,0.9-0.6,1.6-1.2,1.8c0.7,0.2,1.3,1,1.3,1.9c0,1.3-0.8,2.1-2.1,2.1H439.9z
			 M445.1,284.2c0-0.9-0.6-1.6-1.6-1.6h-3.1v3.1h3.1C444.5,285.7,445.1,285,445.1,284.2z M445.2,287.8c0-0.9-0.6-1.7-1.7-1.7h-3.2
			v3.3h3.2C444.6,289.5,445.2,288.9,445.2,287.8z"/>
		<path d="M453.3,289.9V289c-0.7,0.8-1.6,1.1-2.7,1.1c-1.4,0-2.7-0.9-2.7-2.6s1.3-2.6,2.7-2.6c1.1,0,2,0.4,2.7,1.1v-1.7
			c0-1.2-1-1.9-2.2-1.9c-1,0-1.8,0.4-2.5,1.2l-0.4-0.3c0.8-0.9,1.6-1.3,2.8-1.3c1.5,0,2.7,0.8,2.7,2.3v5.6H453.3z M453.3,288.5v-1.9
			c-0.6-0.8-1.5-1.2-2.5-1.2c-1.4,0-2.3,0.9-2.3,2.1s0.9,2.1,2.3,2.1C451.8,289.7,452.7,289.3,453.3,288.5z"/>
		<path d="M456.5,289.9v-7.7h0.5v3.5h4.7v-3.5h0.5v7.7h-0.5v-3.8H457v3.8H456.5z"/>
		<path d="M465,289.9v-7.7h0.5v7l4.8-7h0.4v7.7h-0.5v-7l-4.8,7H465z"/>
		<path d="M473.2,289.9l2.3-3.3c-1.4,0-2.2-0.9-2.2-2.2c0-1.3,0.9-2.2,2.3-2.2h3.6v7.7h-0.5v-3.3H476l-2.2,3.3H473.2z M478.6,286.2
			v-3.6h-3.1c-1.1,0-1.8,0.7-1.8,1.8s0.6,1.8,1.8,1.8H478.6z"/>
		<path d="M387.8,309.1V302l-2.8,7.1h-0.1L382,302v7.1h-0.5v-7.7h0.7l2.7,6.8l2.7-6.8h0.7v7.7H387.8z"/>
		<path d="M391,309.1v-7.7h0.5v7l4.8-7h0.4v7.7h-0.5v-7l-4.8,7H391z"/>
		<path d="M399.1,305.2c0-2.3,1.4-4,3.6-4c2.2,0,3.6,1.8,3.6,4c0,2.3-1.4,4.1-3.6,4.1C400.5,309.3,399.1,307.5,399.1,305.2z
			 M405.7,305.2c0-1.9-1.1-3.6-3.1-3.6c-2,0-3.1,1.7-3.1,3.6c0,1.9,1.1,3.6,3.1,3.6C404.6,308.9,405.7,307.1,405.7,305.2z"/>
		<path d="M413.8,309.1v-7.3h-4.7v7.3h-0.5v-7.7h5.7v7.7H413.8z"/>
		<path d="M417,309.1v-7.7h0.5v7l4.8-7h0.4v7.7h-0.5v-7l-4.8,7H417z"/>
		<path d="M425.5,309.1v-7.7h0.5v7l4.8-7h0.4v7.7h-0.5v-7l-4.8,7H425.5z"/>
	</g>
	<g>
		<circle class="st1" cx="712" cy="161.9" r="15.7"/>
		<circle class="st2" cx="712" cy="161.9" r="6"/>
		<g>
			<circle class="st2" cx="712" cy="68.7" r="51.3"/>
			<polygon class="st2" points="712,141 736.2,99 687.7,99 			"/>
			<circle class="st3" cx="712" cy="68.7" r="43"/>
			<g>
				<path class="st4" d="M729.7,60.6c0-2.4-1.9-4.3-4.3-4.3h-7.1v-2.8h11.4v-2.8h-14.2v14.2h9.9C727.8,64.9,729.7,63,729.7,60.6z
					 M718.4,59.2h7.1c0.8,0,1.4,0.6,1.4,1.4c0,0.8-0.6,1.4-1.4,1.4h-7.1V59.2z"/>
				<polygon class="st4" points="708.4,50.7 705.6,50.7 705.6,62.1 702.8,62.1 702.8,50.7 699.9,50.7 699.9,62.1 697.1,62.1 
					697.1,50.7 694.2,50.7 694.2,64.9 708.4,64.9 				"/>
				<polygon class="st4" points="695.7,72.7 697.1,76.3 698.5,76.3 699.9,72.7 699.9,76.3 701.3,76.3 701.3,69.2 699.9,69.2 
					697.8,74.5 695.7,69.2 694.2,69.2 694.2,76.3 695.7,76.3 				"/>
				<path class="st4" d="M729.7,69.2h-1.4c0,0,0,1.1-0.4,1.8c-0.4,0.7-1.4,1.1-1.4,1.1h-2.5v-2.8h-1.4v7.1h1.4v-2.8h2.5
					c0.4,0,1.1,0.4,1.4,1.1c0.4,0.7,0.4,1.8,0.4,1.8h1.4c0,0,0-1.4-0.4-2.1c-0.4-0.7-1.1-1.4-1.1-1.4s0.7-0.7,1.1-1.4
					C729.7,70.6,729.7,69.2,729.7,69.2z"/>
				<polygon class="st4" points="708.4,69.2 708.4,76.3 709.9,76.3 709.9,73.4 714.1,73.4 714.1,76.3 715.5,76.3 715.5,69.2 
					714.1,69.2 714.1,72 709.9,72 709.9,69.2 				"/>
				<rect x="698" y="80.5" class="st4" width="0.9" height="4.7"/>
				<path class="st4" d="M697.6,83.8c0-0.8-0.6-1.4-1.4-1.4h-0.9v-1.9h-0.9v4.7h1.9C696.9,85.2,697.6,84.6,697.6,83.8z M695.2,83.4
					h0.9c0.3,0,0.5,0.2,0.5,0.5s-0.2,0.5-0.5,0.5h-0.9V83.4z"/>
				<polygon class="st4" points="706.9,84.1 705.4,80.5 704.5,80.5 704.5,85.2 705.4,85.2 705.4,82.9 706.4,85.2 707.3,85.2 
					708.3,82.9 708.3,85.2 709.2,85.2 709.2,80.5 708.3,80.5 				"/>
				<path class="st4" d="M714.8,85.2h3.3c0.8,0,1.4-0.6,1.4-1.4c0-0.8-0.6-1.4-1.4-1.4h-2.4v-0.9h3.8v-0.9h-4.7V85.2z M715.7,83.4
					h2.4c0.3,0,0.5,0.2,0.5,0.5s-0.2,0.5-0.5,0.5h-2.4V83.4z"/>
				<polygon class="st4" points="728.8,84.3 727.8,84.3 727.8,80.5 726.9,80.5 726.9,84.3 725.9,84.3 725.9,80.5 725,80.5 725,85.2 
					729.7,85.2 729.7,80.5 728.8,80.5 				"/>
				<path class="st4" d="M737.2,45.5c0-1.7-1.4-3.1-3.1-3.1h-44.2c-1.7,0-3.1,1.4-3.1,3.1c0,1.5,1,2.7,2.4,3c0,0,0,0,0,0v38
					c0,2.1,1.7,3.8,3.8,3.8h18.9v6.4c0,0.6,0.4,1,1,1s1-0.4,1-1v-6.4H731c2.1,0,3.8-1.7,3.8-3.8v-38c0,0,0,0,0,0
					C736.2,48.2,737.2,47,737.2,45.5z M732.8,86.6c0,1-0.8,1.8-1.8,1.8h-38c-1,0-1.8-0.8-1.8-1.8v-38h41.7V86.6z M734.1,46.7h-44.2
					c-0.6,0-1.1-0.5-1.1-1.1s0.5-1.1,1.1-1.1h44.2c0.6,0,1.1,0.5,1.1,1.1S734.7,46.7,734.1,46.7z"/>
			</g>
		</g>
	</g>
	<g>
		<path d="M624,230.2v-10.7h3.7c2,0,3.1,1.4,3.1,3s-1.2,3-3.1,3h-3.2v4.6H624z M630.2,222.6c0-1.5-1-2.5-2.6-2.5h-3.2v5.1h3.2
			C629.2,225.1,630.2,224,630.2,222.6z"/>
		<path d="M632.4,226.3c0-2.2,1.6-4,3.6-4c2.4,0,3.6,1.9,3.6,4v0.2h-6.7c0,1.9,1.3,3.5,3.2,3.5c1.1,0,2-0.4,2.7-1.2l0.3,0.3
			c-0.8,0.8-1.7,1.3-3,1.3C634,230.4,632.4,228.7,632.4,226.3z M636,222.7c-2,0-3,1.8-3.1,3.3h6.2
			C639.1,224.6,638.1,222.7,636,222.7z"/>
		<path d="M646.7,222.9h-4.3v7.3H642v-7.7h4.7V222.9z"/>
		<path d="M648.1,232.8c0.2,0.1,0.5,0.1,0.7,0.1c0.5,0,0.9-0.2,1.2-1.1l0.7-1.6l-3.3-7.8h0.6l3,7.2l3-7.2h0.6l-4.1,9.6
			c-0.4,0.8-0.9,1.3-1.7,1.3c-0.3,0-0.6,0-0.8-0.1L648.1,232.8z"/>
		<path d="M655,230c0.8,0,1.4-0.9,1.8-3.6l0.5-3.9h4.5v7.7h-0.5v-7.3h-3.6l-0.5,3.5c-0.4,3-1.1,4-2.2,4V230z"/>
		<path d="M664.3,230.2l2.3-3.3c-1.4,0-2.2-0.9-2.2-2.2c0-1.3,0.9-2.2,2.3-2.2h3.6v7.7h-0.5v-3.3h-2.6l-2.2,3.3H664.3z M669.7,226.5
			v-3.6h-3.1c-1.1,0-1.8,0.7-1.8,1.8s0.6,1.8,1.8,1.8H669.7z"/>
		<path d="M673.5,228.9v4.3H673v-10.7h0.5v1.3c0.5-0.8,1.6-1.5,2.8-1.5c2.1,0,3.5,1.6,3.5,4c0,2.4-1.4,4.1-3.5,4.1
			C675.1,230.4,674.1,229.8,673.5,228.9z M679.2,226.3c0-2-1-3.6-2.9-3.6c-1.2,0-2.3,0.7-2.8,1.5v4.1c0.5,0.8,1.6,1.6,2.8,1.6
			C678.1,230,679.2,228.4,679.2,226.3z"/>
		<path d="M682,230.2v-7.7h0.5v3.5h4.7v-3.5h0.5v7.7h-0.5v-3.8h-4.7v3.8H682z"/>
		<path d="M690,226.3c0-2.3,1.4-4,3.6-4c2.2,0,3.6,1.8,3.6,4c0,2.3-1.4,4.1-3.6,4.1C691.4,230.4,690,228.6,690,226.3z M696.7,226.3
			c0-1.9-1.1-3.6-3.1-3.6c-2,0-3.1,1.7-3.1,3.6c0,1.9,1.1,3.6,3.1,3.6C695.6,230,696.7,228.2,696.7,226.3z"/>
		<path d="M699.1,226.3c0-2.2,1.6-4,3.6-4c2.4,0,3.6,1.9,3.6,4v0.2h-6.7c0,1.9,1.3,3.5,3.2,3.5c1.1,0,2-0.4,2.7-1.2l0.3,0.3
			c-0.8,0.8-1.7,1.3-3,1.3C700.7,230.4,699.1,228.7,699.1,226.3z M702.7,222.7c-2,0-3,1.8-3.1,3.3h6.2
			C705.8,224.6,704.9,222.7,702.7,222.7z"/>
		<path d="M712.8,230.2v-7.7h0.5v3.5h4.7v-3.5h0.5v7.7h-0.5v-3.8h-4.7v3.8H712.8z"/>
		<path d="M726.3,230.2v-0.9c-0.7,0.8-1.6,1.1-2.7,1.1c-1.4,0-2.7-0.9-2.7-2.6s1.3-2.6,2.7-2.6c1.1,0,2,0.4,2.7,1.1v-1.7
			c0-1.2-1-1.9-2.2-1.9c-1,0-1.8,0.4-2.5,1.2l-0.4-0.3c0.8-0.9,1.6-1.3,2.8-1.3c1.5,0,2.7,0.8,2.7,2.3v5.6H726.3z M726.3,228.8v-1.9
			c-0.6-0.8-1.5-1.2-2.5-1.2c-1.4,0-2.3,0.9-2.3,2.1s0.9,2.1,2.3,2.1C724.7,230,725.7,229.6,726.3,228.8z"/>
		<path d="M729.1,226c0-3.8,1.4-5.2,4.3-5.6c1.8-0.3,2.3-0.5,2.3-0.9h0.4c0,0.9-1.3,1.1-2.6,1.4c-2.9,0.5-3.5,1.6-3.8,3.5
			c0.5-1,1.4-2.1,3.1-2.1c2.2,0,3.6,1.8,3.6,4c0,2.3-1.4,4.1-3.6,4.1C730.5,230.4,729.1,228.6,729.1,226z M735.8,226.3
			c0-1.9-1.1-3.6-3.1-3.6c-2,0-3.1,1.7-3.1,3.6c0,1.9,1.1,3.6,3.1,3.6C734.7,230,735.8,228.2,735.8,226.3z"/>
		<path d="M737.6,230c0.8,0,1.4-0.9,1.8-3.6l0.5-3.9h4.5v7.7H744v-7.3h-3.6l-0.5,3.5c-0.4,3-1.1,4-2.2,4V230z"/>
		<path d="M749.4,226.4h-1.7v3.8h-0.5v-7.7h0.5v3.5h1.7c0.1-2.1,1.5-3.7,3.6-3.7c2.2,0,3.6,1.8,3.6,4c0,2.3-1.4,4.1-3.6,4.1
			C750.8,230.4,749.4,228.6,749.4,226.4z M756.1,226.3c0-1.9-1.1-3.6-3.1-3.6c-2,0-3.1,1.7-3.1,3.6c0,1.9,1.1,3.6,3.1,3.6
			C755,230,756.1,228.2,756.1,226.3z"/>
		<path d="M757.8,229.8c0.8-0.1,1.4-0.8,1.8-3.5l0.5-3.9h4.5v7.3h1v2.4h-0.5v-2h-6.8v2h-0.5V229.8z M760,226.4c-0.3,2-0.7,3-1.3,3.3
			h5.3v-6.9h-3.6L760,226.4z"/>
		<path d="M767.2,226.3c0-2.2,1.6-4,3.6-4c2.4,0,3.6,1.9,3.6,4v0.2h-6.7c0,1.9,1.3,3.5,3.2,3.5c1.1,0,2-0.4,2.7-1.2l0.3,0.3
			c-0.8,0.8-1.7,1.3-3,1.3C768.8,230.4,767.2,228.7,767.2,226.3z M770.8,222.7c-2,0-3,1.8-3.1,3.3h6.2
			C773.9,224.6,772.9,222.7,770.8,222.7z"/>
		<path d="M776.8,230.2v-7.7h0.5v3.5h4.7v-3.5h0.5v7.7H782v-3.8h-4.7v3.8H776.8z"/>
		<path d="M785.2,230.2v-7.7h0.5v7l4.8-7h0.4v7.7h-0.5v-7l-4.8,7H785.2z"/>
		<path d="M793.2,226.3c0-2.2,1.6-4,3.6-4c2.4,0,3.6,1.9,3.6,4v0.2h-6.7c0,1.9,1.3,3.5,3.2,3.5c1.1,0,2-0.4,2.7-1.2l0.3,0.3
			c-0.8,0.8-1.7,1.3-3,1.3C794.8,230.4,793.2,228.7,793.2,226.3z M796.9,222.7c-2,0-3,1.8-3.1,3.3h6.2
			C800,224.6,799,222.7,796.9,222.7z"/>
		<path d="M629.3,252c0.2,0.1,0.5,0.1,0.7,0.1c0.5,0,0.9-0.2,1.2-1.1l0.7-1.6l-3.3-7.8h0.6l3,7.2l3-7.2h0.6l-4.1,9.6
			c-0.4,0.8-0.9,1.3-1.7,1.3c-0.3,0-0.6,0-0.8-0.1L629.3,252z"/>
		<path d="M646.9,249.4l-3.4-3.9l-1.6,1.5v2.4h-0.5v-7.7h0.5v4.7l5-4.7h0.7l-3.8,3.5l3.7,4.2H646.9z"/>
		<path d="M649.4,249.4v-7.7h3.7c1.2,0,2,0.7,2,2c0,0.9-0.6,1.6-1.2,1.8c0.7,0.2,1.3,1,1.3,1.9c0,1.3-0.8,2.1-2.1,2.1H649.4z
			 M654.6,243.7c0-0.9-0.6-1.6-1.6-1.6h-3.1v3.1h3.1C654,245.2,654.6,244.5,654.6,243.7z M654.7,247.3c0-0.9-0.6-1.7-1.7-1.7h-3.2
			v3.3h3.2C654.1,249,654.7,248.4,654.7,247.3z"/>
		<path d="M662.8,249.4v-0.9c-0.7,0.8-1.6,1.1-2.7,1.1c-1.4,0-2.7-0.9-2.7-2.6s1.3-2.6,2.7-2.6c1.1,0,2,0.4,2.7,1.1v-1.7
			c0-1.2-1-1.9-2.2-1.9c-1,0-1.8,0.4-2.5,1.2l-0.4-0.3c0.8-0.9,1.6-1.3,2.8-1.3c1.5,0,2.7,0.8,2.7,2.3v5.6H662.8z M662.8,248v-1.9
			c-0.6-0.8-1.5-1.2-2.5-1.2c-1.4,0-2.3,0.9-2.3,2.1c0,1.2,0.9,2.1,2.3,2.1C661.3,249.2,662.2,248.8,662.8,248z"/>
		<path d="M664.9,249.2c0.8,0,1.4-0.9,1.8-3.6l0.5-3.9h4.5v7.7h-0.5v-7.3h-3.6l-0.5,3.5c-0.4,3-1.1,4-2.2,4V249.2z"/>
		<path d="M674.5,249.4v-7.7h0.5v7l4.8-7h0.4v7.7h-0.5v-7l-4.8,7H674.5z"/>
		<path d="M687.3,243v-4.3h0.5v4.2c0.4-0.8,1.2-1.5,2.1-1.5c1.6,0,2.6,1.6,2.6,4c0,2.4-1.1,4.1-2.6,4.1c-0.9,0-1.6-0.6-2.1-1.5v4.3
			h-0.5v-4.2c-0.4,0.8-1.2,1.5-2.1,1.5c-1.6,0-2.6-1.6-2.6-4c0-2.4,1.1-4.1,2.6-4.1C686,241.5,686.8,242.1,687.3,243z M683,245.6
			c0,2,0.8,3.6,2.2,3.6c0.9,0,1.7-0.7,2.1-1.5v-4.1c-0.4-0.8-1.2-1.6-2.1-1.6C683.8,241.9,683,243.5,683,245.6z M692.1,245.5
			c0-2-0.8-3.6-2.2-3.6c-0.9,0-1.7,0.7-2.1,1.5v4.1c0.4,0.8,1.2,1.6,2.1,1.6C691.3,249.2,692.1,247.6,692.1,245.5z"/>
		<path d="M694.9,249.4v-7.7h0.5v7l4.8-7h0.4v7.7h-0.5v-7l-4.8,7H694.9z"/>
		<path d="M709.5,249.4h-6.2v-7.7h0.5v7.3h4.7v-7.3h0.5v7.3h1v2.4h-0.5V249.4z"/>
		<path d="M712,249.4v-7.7h0.5v7l4.8-7h0.4v7.7h-0.5v-7l-4.8,7H712z"/>
		<path d="M721,248.1v4.3h-0.5v-10.7h0.5v1.3c0.5-0.8,1.6-1.5,2.8-1.5c2.1,0,3.5,1.6,3.5,4c0,2.4-1.4,4.1-3.5,4.1
			C722.6,249.6,721.6,249,721,248.1z M726.7,245.5c0-2-1-3.6-2.9-3.6c-1.2,0-2.3,0.7-2.8,1.5v4.1c0.5,0.8,1.6,1.6,2.8,1.6
			C725.6,249.2,726.7,247.6,726.7,245.5z"/>
		<path d="M729.1,245.5c0-2.3,1.4-4,3.6-4c2.2,0,3.6,1.8,3.6,4c0,2.3-1.4,4.1-3.6,4.1C730.5,249.6,729.1,247.8,729.1,245.5z
			 M735.7,245.5c0-1.9-1.1-3.6-3.1-3.6c-2,0-3.1,1.7-3.1,3.6c0,1.9,1.1,3.6,3.1,3.6C734.6,249.2,735.7,247.4,735.7,245.5z"/>
		<path d="M738.6,249.4v-7.7h3.7c1.2,0,2,0.7,2,2c0,0.9-0.6,1.6-1.2,1.8c0.7,0.2,1.3,1,1.3,1.9c0,1.3-0.8,2.1-2.1,2.1H738.6z
			 M743.8,243.7c0-0.9-0.6-1.6-1.6-1.6h-3.1v3.1h3.1C743.3,245.2,743.8,244.5,743.8,243.7z M743.9,247.3c0-0.9-0.6-1.7-1.7-1.7h-3.2
			v3.3h3.2C743.3,249,743.9,248.4,743.9,247.3z"/>
		<path d="M752,249.4v-0.9c-0.7,0.8-1.6,1.1-2.7,1.1c-1.4,0-2.7-0.9-2.7-2.6s1.3-2.6,2.7-2.6c1.1,0,2,0.4,2.7,1.1v-1.7
			c0-1.2-1-1.9-2.2-1.9c-1,0-1.8,0.4-2.5,1.2l-0.4-0.3c0.8-0.9,1.6-1.3,2.8-1.3c1.5,0,2.7,0.8,2.7,2.3v5.6H752z M752,248v-1.9
			c-0.6-0.8-1.5-1.2-2.5-1.2c-1.4,0-2.3,0.9-2.3,2.1c0,1.2,0.9,2.1,2.3,2.1C750.5,249.2,751.4,248.8,752,248z"/>
		<path d="M755.2,249.4v-7.7h0.5v3.5h4.7v-3.5h0.5v7.7h-0.5v-3.8h-4.7v3.8H755.2z"/>
		<path d="M763.7,249.4v-7.7h0.5v3.5h4.7v-3.5h0.5v7.7h-0.5v-3.8h-4.7v3.8H763.7z"/>
		<path d="M771.7,245.5c0-2.3,1.4-4,3.6-4c2.2,0,3.6,1.8,3.6,4c0,2.3-1.4,4.1-3.6,4.1C773.2,249.6,771.7,247.8,771.7,245.5z
			 M778.4,245.5c0-1.9-1.1-3.6-3.1-3.6c-2,0-3.1,1.7-3.1,3.6c0,1.9,1.1,3.6,3.1,3.6C777.3,249.2,778.4,247.4,778.4,245.5z"/>
		<path d="M786,242.1h-4.3v7.3h-0.5v-7.7h4.7V242.1z"/>
		<path d="M787.5,245.5c0-2.3,1.4-4,3.6-4c2.2,0,3.6,1.8,3.6,4c0,2.3-1.4,4.1-3.6,4.1C788.9,249.6,787.5,247.8,787.5,245.5z
			 M794.1,245.5c0-1.9-1.1-3.6-3.1-3.6c-2,0-3.1,1.7-3.1,3.6c0,1.9,1.1,3.6,3.1,3.6C793,249.2,794.1,247.4,794.1,245.5z"/>
		<path d="M668,264.7c0-2.2,1.4-4,3.6-4c1.3,0,2,0.5,2.6,1.3l-0.4,0.3c-0.6-0.8-1.4-1.2-2.3-1.2c-2,0-3.2,1.6-3.2,3.6
			c0,2,1.2,3.6,3.2,3.6c0.9,0,1.6-0.3,2.3-1.2l0.4,0.3c-0.7,0.8-1.4,1.3-2.6,1.3C669.4,268.8,668,267,668,264.7z"/>
		<path d="M681.5,268.6v-7.3h-4.7v7.3h-0.5v-7.7h5.7v7.7H681.5z"/>
		<path d="M684.3,264.7c0-2.2,1.6-4,3.6-4c2.4,0,3.6,1.9,3.6,4v0.2h-6.7c0,1.9,1.3,3.5,3.2,3.5c1.1,0,2-0.4,2.7-1.2l0.3,0.3
			c-0.8,0.8-1.7,1.3-3,1.3C685.9,268.8,684.3,267.1,684.3,264.7z M687.9,261.1c-2,0-3,1.8-3.1,3.3h6.2
			C691,263,690.1,261.1,687.9,261.1z"/>
		<path d="M700.1,268.6h-6.2v-7.7h0.5v7.3h4.7v-7.3h0.5v7.3h1v2.4h-0.5V268.6z"/>
		<path d="M702.6,268.6v-7.7h0.5v7l4.8-7h0.4v7.7h-0.5v-7l-4.8,7H702.6z"/>
		<path d="M716,268.6v-0.9c-0.7,0.8-1.6,1.1-2.7,1.1c-1.4,0-2.7-0.9-2.7-2.6s1.3-2.6,2.7-2.6c1.1,0,2,0.4,2.7,1.1V263
			c0-1.2-1-1.9-2.2-1.9c-1,0-1.8,0.4-2.5,1.2L711,262c0.8-0.9,1.6-1.3,2.8-1.3c1.5,0,2.7,0.8,2.7,2.3v5.6H716z M716,267.2v-1.9
			c-0.6-0.8-1.5-1.2-2.5-1.2c-1.4,0-2.3,0.9-2.3,2.1s0.9,2.1,2.3,2.1C714.5,268.4,715.4,268,716,267.2z"/>
		<path d="M718.2,268.4c0.8,0,1.4-0.9,1.8-3.6l0.5-3.9h4.5v7.7h-0.5v-7.3h-3.6l-0.5,3.5c-0.4,3-1.1,4-2.2,4V268.4z"/>
		<path d="M727.7,268.6v-7.7h0.5v7l4.8-7h0.4v7.7h-0.5v-7l-4.8,7H727.7z"/>
		<path d="M735.7,264.7c0-2.2,1.4-4,3.6-4c1.3,0,2,0.5,2.6,1.3l-0.4,0.3c-0.6-0.8-1.4-1.2-2.3-1.2c-2,0-3.2,1.6-3.2,3.6
			c0,2,1.2,3.6,3.2,3.6c0.9,0,1.6-0.3,2.3-1.2l0.4,0.3c-0.7,0.8-1.4,1.3-2.6,1.3C737.2,268.8,735.7,267,735.7,264.7z"/>
		<path d="M745.5,268.6v-7.3h-2.3v-0.4h5.1v0.4h-2.3v7.3H745.5z"/>
		<path d="M755.1,268.6v-0.9c-0.7,0.8-1.6,1.1-2.7,1.1c-1.4,0-2.7-0.9-2.7-2.6s1.3-2.6,2.7-2.6c1.1,0,2,0.4,2.7,1.1V263
			c0-1.2-1-1.9-2.2-1.9c-1,0-1.8,0.4-2.5,1.2l-0.4-0.3c0.8-0.9,1.6-1.3,2.8-1.3c1.5,0,2.7,0.8,2.7,2.3v5.6H755.1z M755.1,267.2v-1.9
			c-0.6-0.8-1.5-1.2-2.5-1.2c-1.4,0-2.3,0.9-2.3,2.1s0.9,2.1,2.3,2.1C753.6,268.4,754.5,268,755.1,267.2z"/>
	</g>
	<g>
		<path d="M482,45.5V34.8h3.7c2,0,3.1,1.4,3.1,3s-1.2,3-3.1,3h-3.2v4.6H482z M488.2,37.8c0-1.5-1-2.5-2.6-2.5h-3.2v5.1h3.2
			C487.2,40.3,488.2,39.3,488.2,37.8z"/>
		<path d="M490.4,41.6c0-2.2,1.6-4,3.6-4c2.4,0,3.6,1.9,3.6,4v0.2h-6.7c0,1.9,1.3,3.5,3.2,3.5c1.1,0,2-0.4,2.7-1.2l0.3,0.3
			c-0.8,0.8-1.7,1.3-3,1.3C492,45.6,490.4,43.9,490.4,41.6z M494,38c-2,0-3,1.8-3.1,3.3h6.2C497.1,39.8,496.1,38,494,38z"/>
		<path d="M505.4,45.5l-3.4-3.9l-1.6,1.5v2.4H500v-7.7h0.5v4.7l5-4.7h0.7l-3.8,3.5l3.7,4.2H505.4z"/>
		<path d="M507.5,41.6c0-2.3,1.4-4,3.6-4c2.2,0,3.6,1.8,3.6,4c0,2.3-1.4,4.1-3.6,4.1C508.9,45.6,507.5,43.9,507.5,41.6z M514.2,41.6
			c0-1.9-1.1-3.6-3.1-3.6c-2,0-3.1,1.7-3.1,3.6c0,1.9,1.1,3.6,3.1,3.6C513.1,45.2,514.2,43.5,514.2,41.6z"/>
		<path d="M523.3,45.5v-7.1l-2.8,7.1h-0.1l-2.8-7.1v7.1H517v-7.7h0.7l2.7,6.8l2.7-6.8h0.7v7.7H523.3z"/>
		<path d="M526.1,41.6c0-2.2,1.6-4,3.6-4c2.4,0,3.6,1.9,3.6,4v0.2h-6.7c0,1.9,1.3,3.5,3.2,3.5c1.1,0,2-0.4,2.7-1.2l0.3,0.3
			c-0.8,0.8-1.7,1.3-3,1.3C527.6,45.6,526.1,43.9,526.1,41.6z M529.7,38c-2,0-3,1.8-3.1,3.3h6.2C532.8,39.8,531.8,38,529.7,38z"/>
		<path d="M535.6,45.5v-7.7h0.5v3.5h4.7v-3.5h0.5v7.7h-0.5v-3.8h-4.7v3.8H535.6z"/>
		<path d="M543,45.1c0.8-0.1,1.4-0.8,1.8-3.5l0.5-3.9h4.5V45h1v2.4h-0.5v-2h-6.8v2H543V45.1z M545.2,41.7c-0.3,2-0.7,3-1.3,3.3h5.3
			v-6.9h-3.6L545.2,41.7z"/>
		<path d="M557.8,45.5v-0.9c-0.7,0.8-1.6,1.1-2.7,1.1c-1.4,0-2.7-0.9-2.7-2.6s1.3-2.6,2.7-2.6c1.1,0,2,0.4,2.7,1.1v-1.7
			c0-1.2-1-1.9-2.2-1.9c-1,0-1.8,0.4-2.5,1.2l-0.4-0.3c0.8-0.9,1.6-1.3,2.8-1.3c1.5,0,2.7,0.8,2.7,2.3v5.6H557.8z M557.8,44v-1.9
			c-0.6-0.8-1.5-1.2-2.5-1.2c-1.4,0-2.3,0.9-2.3,2.1s0.9,2.1,2.3,2.1C556.2,45.2,557.2,44.8,557.8,44z"/>
		<path d="M567.2,45.5H561v-7.7h0.5V45h4.7v-7.3h0.5V45h1v2.4h-0.5V45.5z"/>
		<path d="M569.7,45.5v-7.7h0.5v7l4.8-7h0.4v7.7H575v-7l-4.8,7H569.7z"/>
		<path d="M578,45.5l2.3-3.3c-1.4,0-2.2-0.9-2.2-2.2c0-1.3,0.9-2.2,2.3-2.2h3.6v7.7h-0.5v-3.3h-2.6l-2.2,3.3H578z M583.4,41.7v-3.6
			h-3.1c-1.1,0-1.8,0.7-1.8,1.8s0.6,1.8,1.8,1.8H583.4z"/>
		<path d="M597,45.5v-7.1l-2.8,7.1h-0.1l-2.8-7.1v7.1h-0.5v-7.7h0.7l2.7,6.8l2.7-6.8h0.7v7.7H597z"/>
		<path d="M599.8,41.6c0-2.2,1.6-4,3.6-4c2.4,0,3.6,1.9,3.6,4v0.2h-6.7c0,1.9,1.3,3.5,3.2,3.5c1.1,0,2-0.4,2.7-1.2l0.3,0.3
			c-0.8,0.8-1.7,1.3-3,1.3C601.4,45.6,599.8,43.9,599.8,41.6z M603.4,38c-2,0-3,1.8-3.1,3.3h6.2C606.5,39.8,605.6,38,603.4,38z"/>
		<path d="M610.8,45.5v-7.3h-2.3v-0.4h5.1v0.4h-2.3v7.3H610.8z"/>
		<path d="M615,41.6c0-2.3,1.4-4,3.6-4c2.2,0,3.6,1.8,3.6,4c0,2.3-1.4,4.1-3.6,4.1C616.5,45.6,615,43.9,615,41.6z M621.7,41.6
			c0-1.9-1.1-3.6-3.1-3.6c-2,0-3.1,1.7-3.1,3.6c0,1.9,1.1,3.6,3.1,3.6C620.6,45.2,621.7,43.5,621.7,41.6z"/>
		<path d="M623.5,45.1c0.8-0.1,1.4-0.8,1.8-3.5l0.5-3.9h4.5V45h1v2.4h-0.5v-2H624v2h-0.5V45.1z M625.7,41.7c-0.3,2-0.7,3-1.3,3.3
			h5.3v-6.9h-3.6L625.7,41.7z"/>
		<path d="M638.3,45.5v-0.9c-0.7,0.8-1.6,1.1-2.7,1.1c-1.4,0-2.7-0.9-2.7-2.6s1.3-2.6,2.7-2.6c1.1,0,2,0.4,2.7,1.1v-1.7
			c0-1.2-1-1.9-2.2-1.9c-1,0-1.8,0.4-2.5,1.2l-0.4-0.3c0.8-0.9,1.6-1.3,2.8-1.3c1.5,0,2.7,0.8,2.7,2.3v5.6H638.3z M638.3,44v-1.9
			c-0.6-0.8-1.5-1.2-2.5-1.2c-1.4,0-2.3,0.9-2.3,2.1s0.9,2.1,2.3,2.1C636.7,45.2,637.7,44.8,638.3,44z"/>
		<path d="M517.6,63.6l0.3-0.3c0.7,0.8,1.8,1.2,3.1,1.2c1.7,0,2.8-0.7,2.8-1.8c0-1.3-1.4-1.7-3-1.7h-1.9v-0.4h1.9
			c1.5,0,2.9-0.5,2.9-1.7c0-1-1.3-1.6-2.9-1.6c-1.2,0-2.1,0.3-2.8,1.1l-0.3-0.3c0.7-0.7,1.7-1.2,3.1-1.2c1.8,0,3.4,0.7,3.4,2
			c0,1.3-1.3,1.8-2.1,1.9c0.9,0.1,2.3,0.6,2.3,1.9c0,1.3-1.2,2.2-3.4,2.2C519.4,64.8,518.4,64.4,517.6,63.6z"/>
		<path d="M531.7,64.7v-0.9c-0.7,0.8-1.6,1.1-2.7,1.1c-1.4,0-2.7-0.9-2.7-2.6s1.3-2.6,2.7-2.6c1.1,0,2,0.4,2.7,1.1v-1.7
			c0-1.2-1-1.9-2.2-1.9c-1,0-1.8,0.4-2.5,1.2l-0.4-0.3c0.8-0.9,1.6-1.3,2.8-1.3c1.5,0,2.7,0.8,2.7,2.3v5.6H531.7z M531.7,63.2v-1.9
			c-0.6-0.8-1.5-1.2-2.5-1.2c-1.4,0-2.3,0.9-2.3,2.1c0,1.2,0.9,2.1,2.3,2.1C530.1,64.4,531.1,64,531.7,63.2z"/>
		<path d="M541.1,64.7v-7.1l-2.8,7.1h-0.1l-2.8-7.1v7.1h-0.5v-7.7h0.7l2.7,6.8l2.7-6.8h0.7v7.7H541.1z"/>
		<path d="M544,60.8c0-2.2,1.6-4,3.6-4c2.4,0,3.6,1.9,3.6,4v0.2h-6.7c0,1.9,1.3,3.5,3.2,3.5c1.1,0,2-0.4,2.7-1.2l0.3,0.3
			c-0.8,0.8-1.7,1.3-3,1.3C545.5,64.8,544,63.1,544,60.8z M547.6,57.2c-2,0-3,1.8-3.1,3.3h6.2C550.7,59,549.7,57.2,547.6,57.2z"/>
		<path d="M552.4,64.3c0.8-0.1,1.4-0.8,1.8-3.5l0.5-3.9h4.5v7.3h1v2.4h-0.5v-2h-6.8v2h-0.5V64.3z M554.6,60.9c-0.3,2-0.7,3-1.3,3.3
			h5.3v-6.9h-3.6L554.6,60.9z"/>
		<path d="M561.1,64.4c0.8,0,1.4-0.9,1.8-3.6l0.5-3.9h4.5v7.7h-0.5v-7.3h-3.6l-0.5,3.5c-0.4,3-1.1,4-2.2,4V64.4z"/>
		<path d="M570.3,60.8c0-2.2,1.6-4,3.6-4c2.4,0,3.6,1.9,3.6,4v0.2h-6.7c0,1.9,1.3,3.5,3.2,3.5c1.1,0,2-0.4,2.7-1.2l0.3,0.3
			c-0.8,0.8-1.7,1.3-3,1.3C571.8,64.8,570.3,63.1,570.3,60.8z M573.9,57.2c-2,0-3,1.8-3.1,3.3h6.2C577,59,576,57.2,573.9,57.2z"/>
		<path d="M579.8,64.7v-7.7h0.5v3.5h4.7v-3.5h0.5v7.7H585v-3.8h-4.7v3.8H579.8z"/>
		<path d="M588.3,64.7v-7.7h0.5v7l4.8-7h0.4v7.7h-0.5v-7l-4.8,7H588.3z"/>
		<path d="M596.5,64.7l2.3-3.3c-1.4,0-2.2-0.9-2.2-2.2c0-1.3,0.9-2.2,2.3-2.2h3.6v7.7h-0.5v-3.3h-2.6l-2.2,3.3H596.5z M601.9,60.9
			v-3.6h-3.1c-1.1,0-1.8,0.7-1.8,1.8s0.6,1.8,1.8,1.8H601.9z"/>
		<path d="M499.1,83.9v-7.3h-4.7v7.3h-0.5v-7.7h5.7v7.7H499.1z"/>
		<path d="M502.8,82.5v4.3h-0.5V76.1h0.5v1.3c0.5-0.8,1.6-1.5,2.8-1.5c2.1,0,3.5,1.6,3.5,4c0,2.4-1.4,4.1-3.5,4.1
			C504.5,84,503.5,83.4,502.8,82.5z M508.6,80c0-2-1-3.6-2.9-3.6c-1.2,0-2.3,0.7-2.8,1.5V82c0.5,0.8,1.6,1.6,2.8,1.6
			C507.5,83.6,508.6,82,508.6,80z"/>
		<path d="M510.9,80c0-2.3,1.4-4,3.6-4c2.2,0,3.6,1.8,3.6,4c0,2.3-1.4,4.1-3.6,4.1C512.4,84,510.9,82.3,510.9,80z M517.6,80
			c0-1.9-1.1-3.6-3.1-3.6c-2,0-3.1,1.7-3.1,3.6c0,1.9,1.1,3.6,3.1,3.6C516.5,83.6,517.6,81.9,517.6,80z"/>
		<path d="M525.2,76.6H521v7.3h-0.5v-7.7h4.7V76.6z"/>
		<path d="M527.6,82.5v4.3h-0.5V76.1h0.5v1.3c0.5-0.8,1.6-1.5,2.8-1.5c2.1,0,3.5,1.6,3.5,4c0,2.4-1.4,4.1-3.5,4.1
			C529.2,84,528.2,83.4,527.6,82.5z M533.3,80c0-2-1-3.6-2.9-3.6c-1.2,0-2.3,0.7-2.8,1.5V82c0.5,0.8,1.6,1.6,2.8,1.6
			C532.2,83.6,533.3,82,533.3,80z"/>
		<path d="M535.7,80c0-2.2,1.6-4,3.6-4c2.4,0,3.6,1.9,3.6,4v0.2h-6.7c0,1.9,1.3,3.5,3.2,3.5c1.1,0,2-0.4,2.7-1.2l0.3,0.3
			c-0.8,0.8-1.7,1.3-3,1.3C537.2,84,535.7,82.3,535.7,80z M539.3,76.4c-2,0-3,1.8-3.1,3.3h6.2C542.4,78.2,541.4,76.4,539.3,76.4z"/>
		<path d="M544.8,80c0-2.2,1.4-4,3.6-4c1.3,0,2,0.5,2.6,1.3l-0.4,0.3c-0.6-0.8-1.4-1.2-2.3-1.2c-2,0-3.2,1.6-3.2,3.6
			c0,2,1.2,3.6,3.2,3.6c0.9,0,1.6-0.3,2.3-1.2l0.4,0.3c-0.7,0.8-1.4,1.3-2.6,1.3C546.2,84,544.8,82.2,544.8,80z"/>
		<path d="M552.7,80c0-2.2,1.4-4,3.6-4c1.3,0,2,0.5,2.6,1.3l-0.4,0.3c-0.6-0.8-1.4-1.2-2.3-1.2c-2,0-3.2,1.6-3.2,3.6
			c0,2,1.2,3.6,3.2,3.6c0.9,0,1.6-0.3,2.3-1.2l0.4,0.3c-0.7,0.8-1.4,1.3-2.6,1.3C554.1,84,552.7,82.2,552.7,80z"/>
		<path d="M561,83.9v-7.7h0.5v7l4.8-7h0.4v7.7h-0.5v-7l-4.8,7H561z"/>
		<path d="M569.9,82.5v4.3h-0.5V76.1h0.5v1.3c0.5-0.8,1.6-1.5,2.8-1.5c2.1,0,3.5,1.6,3.5,4c0,2.4-1.4,4.1-3.5,4.1
			C571.5,84,570.5,83.4,569.9,82.5z M575.6,80c0-2-1-3.6-2.9-3.6c-1.2,0-2.3,0.7-2.8,1.5V82c0.5,0.8,1.6,1.6,2.8,1.6
			C574.6,83.6,575.6,82,575.6,80z"/>
		<path d="M578,80c0-2.3,1.4-4,3.6-4c2.2,0,3.6,1.8,3.6,4c0,2.3-1.4,4.1-3.6,4.1C579.4,84,578,82.3,578,80z M584.7,80
			c0-1.9-1.1-3.6-3.1-3.6c-2,0-3.1,1.7-3.1,3.6c0,1.9,1.1,3.6,3.1,3.6C583.6,83.6,584.7,81.9,584.7,80z"/>
		<path d="M587.5,83.9v-7.7h3.7c1.2,0,2,0.7,2,2c0,0.9-0.6,1.6-1.2,1.8c0.7,0.2,1.3,1,1.3,1.9c0,1.3-0.8,2.1-2.1,2.1H587.5z
			 M592.8,78.1c0-0.9-0.6-1.6-1.6-1.6H588v3.1h3.1C592.2,79.6,592.8,79,592.8,78.1z M592.9,81.8c0-0.9-0.6-1.7-1.7-1.7H588v3.3h3.2
			C592.3,83.4,592.9,82.8,592.9,81.8z"/>
		<path d="M601,83.9v-0.9c-0.7,0.8-1.6,1.1-2.7,1.1c-1.4,0-2.7-0.9-2.7-2.6s1.3-2.6,2.7-2.6c1.1,0,2,0.4,2.7,1.1v-1.7
			c0-1.2-1-1.9-2.2-1.9c-1,0-1.8,0.4-2.5,1.2l-0.4-0.3c0.8-0.9,1.6-1.3,2.8-1.3c1.5,0,2.7,0.8,2.7,2.3v5.6H601z M601,82.4v-1.9
			c-0.6-0.8-1.5-1.2-2.5-1.2c-1.4,0-2.3,0.9-2.3,2.1s0.9,2.1,2.3,2.1C599.4,83.6,600.4,83.2,601,82.4z"/>
		<path d="M604.2,83.9v-7.7h0.5v3.5h4.7v-3.5h0.5v7.7h-0.5V80h-4.7v3.8H604.2z"/>
		<path d="M612.7,83.9v-7.7h0.5v7l4.8-7h0.4v7.7h-0.5v-7l-4.8,7H612.7z"/>
		<path d="M620.9,83.9l2.3-3.3c-1.4,0-2.2-0.9-2.2-2.2c0-1.3,0.9-2.2,2.3-2.2h3.6v7.7h-0.5v-3.3h-2.6l-2.2,3.3H620.9z M626.3,80.1
			v-3.6h-3.1c-1.1,0-1.8,0.7-1.8,1.8s0.6,1.8,1.8,1.8H626.3z"/>
		<path d="M541.8,103.1v-7.1l-2.8,7.1h-0.1l-2.8-7.1v7.1h-0.5v-7.7h0.7l2.7,6.8l2.7-6.8h0.7v7.7H541.8z"/>
		<path d="M545,103.1v-7.7h0.5v7l4.8-7h0.4v7.7h-0.5v-7l-4.8,7H545z"/>
		<path d="M553,99.2c0-2.3,1.4-4,3.6-4c2.2,0,3.6,1.8,3.6,4c0,2.3-1.4,4.1-3.6,4.1C554.5,103.2,553,101.5,553,99.2z M559.7,99.2
			c0-1.9-1.1-3.6-3.1-3.6c-2,0-3.1,1.7-3.1,3.6c0,1.9,1.1,3.6,3.1,3.6C558.6,102.8,559.7,101.1,559.7,99.2z"/>
		<path d="M567.8,103.1v-7.3h-4.7v7.3h-0.5v-7.7h5.7v7.7H567.8z"/>
		<path d="M571,103.1v-7.7h0.5v7l4.8-7h0.4v7.7h-0.5v-7l-4.8,7H571z"/>
		<path d="M579.5,103.1v-7.7h0.5v7l4.8-7h0.4v7.7h-0.5v-7l-4.8,7H579.5z"/>
	</g>
	<path class="st1" d="M20,153.3v20.8c0,3.8,4.1,6.2,7.5,4.3l18-10.4c3.3-1.9,3.3-6.7,0-8.6l-18-10.4C24.1,147.1,20,149.5,20,153.3z"
		/>
	<line class="st5" x1="253.2" y1="148.1" x2="253.2" y2="117.8"/>
	<circle class="st2" cx="253.2" cy="117.8" r="2.5"/>
	<line class="st5" x1="560.4" y1="148.1" x2="560.4" y2="117.8"/>
	<circle class="st2" cx="560.4" cy="117.8" r="2.5"/>
	<line class="st5" x1="406.9" y1="179.3" x2="406.8" y2="209.6"/>
	<circle class="st2" cx="406.9" cy="209.6" r="2.5"/>
	<line class="st5" x1="712.6" y1="177.6" x2="712.6" y2="207.9"/>
	<circle class="st2" cx="712.6" cy="207.9" r="2.5"/>
	<line class="st5" x1="100.6" y1="179.2" x2="100.6" y2="209.5"/>
	<circle class="st2" cx="100.6" cy="209.5" r="2.5"/>
</g>
<g id="Слой_2">
</g>
</svg>
